<svg width="53" height="53" viewBox="0 0 53 53" fill="none" xmlns="http://www.w3.org/2000/svg">
<g id="Group 1000001118">
<path id="Vector" d="M26.832 52.4419C41.1914 52.4419 52.832 40.8013 52.832 26.4419C52.832 12.0825 41.1914 0.441895 26.832 0.441895C12.4726 0.441895 0.832031 12.0825 0.832031 26.4419C0.832031 40.8013 12.4726 52.4419 26.832 52.4419Z" fill="#1386C7"/>
<g id="Group">
<path id="Vector_2" d="M16.4076 27.25H37.2513C37.2661 27.0332 37.2858 25.9396 37.3121 25.7442C37.7604 22.4747 39.3352 19.6994 38.9082 16.8126C38.386 13.277 35.8292 11.6612 32.3003 11.1012C30.2919 10.7826 28.4035 11.1981 26.8303 12.0996C25.2555 11.1981 23.367 10.7826 21.3603 11.1012C17.8297 11.6612 15.2746 13.277 14.7524 16.8126C14.3254 19.7011 15.9002 22.4747 16.3485 25.7442C16.3731 25.9396 16.3929 27.0332 16.4076 27.25Z" fill="#EBEBEB"/>
<path id="Vector_3" opacity="0.1" d="M37.259 27.0069C37.2754 26.7902 37.2836 25.9395 37.3099 25.7458C37.7582 22.4763 39.333 19.701 38.9061 16.8142C38.3839 13.2786 35.827 11.6628 32.2981 11.1028C30.2897 10.7842 28.4013 11.1997 26.8281 12.1012V26.3665L37.259 27.0069Z" fill="black"/>
<g id="Group_2">
<path id="Vector_4" d="M32.2101 29.7984L21.418 31.0941L22.8319 31.8708L30.926 30.8346L32.2101 29.7984Z" fill="#B3B3B3"/>
<path id="Vector_5" d="M22.0913 29.8625L21.418 31.0941L32.2101 29.7984L22.0913 29.8625Z" fill="#CFCFCF"/>
<path id="Vector_6" d="M30.9268 30.8348L22.8327 31.871L21.8047 33.0369L31.825 31.7413L30.9268 30.8348Z" fill="#CCCCCC"/>
<path id="Vector_7" d="M21.8047 33.0369C21.8047 33.0369 23.0889 33.8137 23.2186 33.8137L30.5409 32.6477L31.825 31.7413L21.8047 33.0369Z" fill="#B8B8B8"/>
<path id="Vector_8" d="M23.7287 35.6282L30.4089 34.4623L31.5649 33.5558L22.0586 35.1109L23.7287 35.6282Z" fill="#BDBDBD"/>
<path id="Vector_9" d="M22.0586 35.1109L31.5649 33.5558L30.537 32.6493C30.537 32.6493 23.3428 33.8153 23.2147 33.8153L22.0586 35.1109Z" fill="#D6D6D6"/>
<path id="Vector_10" d="M30.5411 32.6477L23.2188 33.8137C23.3468 33.8137 30.5411 32.6477 30.5411 32.6477Z" fill="#BDBDBD"/>
<path id="Vector_11" d="M22.4141 36.9517L31.5723 35.4377L30.4162 34.4623L23.736 35.6282L22.4141 36.9517Z" fill="#D4D4D4"/>
<path id="Vector_12" d="M23.8641 37.5725C24.3781 37.4427 30.0303 36.666 30.0303 36.666L31.5723 35.4377L22.4141 36.9517L23.8641 37.5725Z" fill="#BABABA"/>
<path id="Vector_13" d="M24.1123 39.515L29.7645 38.6085L30.7728 37.4623L22.8281 38.868L24.1123 39.515Z" fill="#BABABA"/>
<path id="Vector_14" d="M22.8281 38.8678L30.7728 37.4638L30.0223 36.6657C28.7382 37.1846 23.8561 37.5721 23.8561 37.5721L22.8281 38.8678Z" fill="#D1D1D1"/>
<path id="Vector_15" d="M30.0295 36.6641C30.0295 36.6641 24.3773 37.4408 23.8633 37.5705C23.8633 37.5705 28.7454 37.183 30.0295 36.6641Z" fill="#BABABA"/>
<path id="Vector_16" d="M24.7599 41.3295L29.2577 40.5512L30.3826 39.515L23.3477 40.8106L24.7599 41.3295Z" fill="#B0B0B0"/>
<path id="Vector_17" d="M23.3477 40.8106L30.3826 39.515L29.7701 38.6085L24.1178 39.515L23.3477 40.8106Z" fill="#D9D9D9"/>
<path id="Vector_18" d="M23.8633 42.6253C24.0784 42.7468 29.8555 41.3674 29.8555 41.3674L29.2594 40.5529L24.7632 41.3313L23.8633 42.6253Z" fill="#C9C9C9"/>
<path id="Vector_19" d="M23.8633 42.625L25.0194 43.2737L28.6206 42.497L29.8555 41.3688C29.8555 41.3688 24.0784 42.7449 23.8633 42.625Z" fill="#B8B8B8"/>
<path id="Vector_20" d="M25.5311 44.9569L28.101 44.438L29.3622 43.4034C29.0879 43.4527 24.375 44.3082 24.375 44.3082L25.5311 44.9569Z" fill="#BDBDBD"/>
<path id="Vector_21" d="M24.375 44.3083C24.375 44.3083 29.0879 43.4528 29.3622 43.4035L28.6199 42.4938L25.0187 43.2705L24.375 44.3083Z" fill="#D1D1D1"/>
</g>
<path id="Vector_22" d="M37.2998 29.0811C37.2998 29.5688 36.9008 29.9662 36.4147 29.9662H17.2953C16.8076 29.9662 16.4102 29.5672 16.4102 29.0811V27.2501C16.4102 26.7624 16.8092 26.365 17.2953 26.365H36.4147C36.9024 26.365 37.2998 26.7641 37.2998 27.2501V29.0811Z" fill="#00B7FF"/>
<path id="Vector_23" opacity="0.1" d="M36.4117 26.365H26.8281V29.9662H36.4117C36.8994 29.9662 37.2968 29.5672 37.2968 29.0811V27.2501C37.2968 26.7641 36.8994 26.365 36.4117 26.365Z" fill="black"/>
<path id="Vector_24" opacity="0.9" d="M24.6397 24.0806C22.1174 23.9673 19.6755 23.8425 18.196 23.744C18.017 22.9722 17.8084 22.2398 17.613 21.5599C17.1351 19.8882 16.7213 18.4431 16.9167 17.1327C17.1499 15.5579 17.9004 13.8665 21.7019 13.2638C22.0336 13.2113 22.3686 13.185 22.6971 13.185C23.3572 13.185 24.0141 13.2934 24.6397 13.5052V24.0806Z" fill="white"/>
</g>
</g>
</svg>
