<svg width="53" height="52" viewBox="0 0 53 52" fill="none" xmlns="http://www.w3.org/2000/svg">
<g id="Group 1000001120">
<path id="Vector" d="M26.1992 52C40.5586 52 52.1992 40.3594 52.1992 26C52.1992 11.6406 40.5586 0 26.1992 0C11.8398 0 0.199219 11.6406 0.199219 26C0.199219 40.3594 11.8398 52 26.1992 52Z" fill="#1386C7"/>
<g id="Group">
<path id="Vector_2" d="M37.6493 16.7021H14.6937C13.3159 16.7021 12.1992 17.8188 12.1992 19.1965V26.3842H40.1438V19.1965C40.1438 17.8188 39.0271 16.7021 37.6493 16.7021Z" fill="#FF304A"/>
<g id="Group_2">
<path id="Vector_3" d="M25.1229 21.8897C25.0523 21.8322 24.9768 21.7763 24.9012 21.7254C24.7469 21.622 24.5843 21.5349 24.4102 21.4627C24.0654 21.3182 23.6844 21.2377 23.2853 21.2377C22.8551 21.2377 22.4462 21.3346 22.08 21.5005C21.9371 21.5662 21.8008 21.6384 21.6711 21.7254C21.5249 21.824 21.3887 21.9356 21.2622 22.0572C21.2556 22.0637 21.2491 22.0687 21.2441 22.0736C21.2392 22.0785 21.2327 22.0867 21.2277 22.0916C21.0799 22.2411 20.9502 22.4069 20.8369 22.5843C20.7728 22.6845 20.7154 22.7896 20.6645 22.8996C20.4953 23.2625 20.3984 23.6648 20.3984 24.0918V27.4172C20.3984 27.8983 20.7942 28.2891 21.2819 28.2891H25.2921C25.7798 28.2891 26.1755 27.8983 26.1755 27.4172V24.0918C26.1739 23.205 25.765 22.4135 25.1229 21.8897Z" fill="#F2F2F2"/>
<path id="Vector_4" d="M30.9282 21.8897C30.8559 21.8322 30.782 21.7763 30.7049 21.7254C30.5505 21.622 30.3846 21.5349 30.2106 21.4627C29.8624 21.3182 29.4798 21.2377 29.0791 21.2377C28.6456 21.2377 28.2351 21.3346 27.8656 21.5005C27.7227 21.5662 27.5848 21.6384 27.455 21.7254C27.3072 21.824 27.1709 21.9356 27.0428 22.0572C27.0363 22.0637 27.0297 22.0687 27.0248 22.0736C27.0182 22.0801 27.0133 22.0867 27.0084 22.0916C26.8589 22.2411 26.7292 22.4069 26.6159 22.5843C26.5518 22.6845 26.4944 22.7896 26.4435 22.8996C26.2727 23.2625 26.1758 23.6648 26.1758 24.0918V27.4172C26.1758 27.8983 26.5732 28.2891 27.0642 28.2891H31.1006C31.5916 28.2891 31.989 27.8983 31.989 27.4172V24.0918C31.9857 23.205 31.5735 22.4135 30.9282 21.8897Z" fill="#F2F2F2"/>
<path id="Vector_5" d="M35.8724 21.8897C35.8133 21.8322 35.7525 21.7763 35.6884 21.7254C35.562 21.622 35.4273 21.5349 35.2845 21.4627C35.0004 21.3182 34.6867 21.2377 34.3583 21.2377C34.0036 21.2377 33.6669 21.3346 33.3648 21.5005C33.2482 21.5662 33.1349 21.6384 33.0282 21.7254C32.9066 21.824 32.795 21.9356 32.6915 22.0572C32.6866 22.0637 32.6817 22.0687 32.6767 22.0736C32.6718 22.0801 32.6669 22.0867 32.6636 22.0916C32.5421 22.2411 32.4353 22.4069 32.3417 22.5843C32.2892 22.6845 32.2416 22.7896 32.2005 22.8996C32.0609 23.2625 31.9805 23.6648 31.9805 24.0918V27.4172C31.9805 27.8983 32.3056 28.2891 32.7079 28.2891H36.0103C36.4126 28.2891 36.7378 27.8983 36.7378 27.4172V24.0918C36.7378 23.205 36.4011 22.4135 35.8724 21.8897Z" fill="#F2F2F2"/>
<path id="Vector_6" d="M39.5195 21.8897C39.4768 21.8322 39.4341 21.7763 39.3881 21.7254C39.2978 21.622 39.2009 21.5349 39.0991 21.4627C38.8955 21.3182 38.6721 21.2377 38.4373 21.2377C38.1828 21.2377 37.943 21.3346 37.7262 21.5005C37.6425 21.5662 37.562 21.6384 37.4865 21.7254C37.3995 21.824 37.3206 21.9356 37.2451 22.0572C37.2418 22.0637 37.2369 22.0687 37.2336 22.0736C37.2303 22.0801 37.227 22.0867 37.2237 22.0916C37.1367 22.2411 37.0595 22.4069 36.9938 22.5843C36.9561 22.6845 36.9232 22.7896 36.892 22.8996C36.7919 23.2625 36.7344 23.6648 36.7344 24.0918V27.4172C36.7344 27.8983 36.9676 28.2891 37.2549 28.2891H39.6164C39.9037 28.2891 40.1369 27.8983 40.1369 27.4172V24.0918C40.1386 23.205 39.8988 22.4135 39.5195 21.8897Z" fill="#F2F2F2"/>
<path id="Vector_7" d="M16.4742 21.8897C16.5333 21.8322 16.5957 21.7763 16.6581 21.7254C16.7862 21.622 16.9225 21.5349 17.0654 21.4627C17.3528 21.3182 17.668 21.2377 17.9981 21.2377C18.3561 21.2377 18.6944 21.3346 18.9998 21.5005C19.1181 21.5662 19.233 21.6384 19.3398 21.7254C19.4613 21.824 19.5746 21.9356 19.6797 22.0572C19.6846 22.0637 19.6912 22.0687 19.6961 22.0736C19.701 22.0785 19.706 22.0867 19.7109 22.0916C19.834 22.2411 19.9408 22.4069 20.0344 22.5843C20.0869 22.6845 20.1346 22.7896 20.1772 22.8996C20.3185 23.2625 20.399 23.6648 20.399 24.0918V27.4172C20.399 27.8983 20.0705 28.2891 19.6666 28.2891H16.3379C15.9323 28.2891 15.6055 27.8983 15.6055 27.4172V24.0918C15.6022 23.205 15.9405 22.4135 16.4742 21.8897Z" fill="#F2F2F2"/>
<path id="Vector_8" d="M12.8167 21.8897C12.8594 21.8322 12.9021 21.7763 12.948 21.7254C13.0384 21.622 13.1353 21.5349 13.2371 21.4627C13.4407 21.3182 13.664 21.2377 13.8989 21.2377C14.1534 21.2377 14.3932 21.3346 14.6099 21.5005C14.6937 21.5662 14.7741 21.6384 14.8497 21.7254C14.9367 21.824 15.0172 21.9356 15.0911 22.0572C15.0944 22.0637 15.0993 22.0687 15.1026 22.0736C15.1059 22.0801 15.1091 22.0867 15.1124 22.0916C15.1994 22.2411 15.2766 22.4069 15.3423 22.5843C15.3801 22.6845 15.4146 22.7896 15.4441 22.8996C15.5443 23.2625 15.6018 23.6648 15.6018 24.0918V27.4172C15.6018 27.8983 15.3686 28.2891 15.0812 28.2891H12.7198C12.4324 28.2891 12.1992 27.8983 12.1992 27.4172V24.0918C12.1976 23.205 12.439 22.4135 12.8167 21.8897Z" fill="#F2F2F2"/>
</g>
<g id="Group_3" opacity="0.7">
<path id="Vector_9" d="M21.2818 27.6109C21.1701 27.6109 21.0781 27.5239 21.0781 27.4172V24.0918C21.0781 23.7798 21.1471 23.476 21.2818 23.187C21.3195 23.1065 21.3639 23.026 21.4131 22.9472C21.5018 22.8076 21.602 22.6812 21.7104 22.5712C21.7137 22.5679 21.735 22.5465 21.7416 22.54C21.8368 22.448 21.9419 22.3626 22.0503 22.2887C22.1406 22.2296 22.2424 22.1738 22.3623 22.1179C22.6563 21.9833 22.9682 21.9159 23.2868 21.9159C23.5857 21.9159 23.8764 21.9734 24.149 22.0884C24.2803 22.1426 24.4068 22.2115 24.5234 22.2887C24.5809 22.3281 24.6383 22.3692 24.6942 22.4152C25.2032 22.8306 25.4955 23.4415 25.4955 24.0902V27.4155C25.4955 27.5223 25.4036 27.6093 25.2919 27.6093L21.2818 27.6109Z" fill="white"/>
<path id="Vector_10" d="M27.0601 27.6109C26.9452 27.6109 26.8516 27.5239 26.8516 27.4172V24.0918C26.8516 23.7798 26.9205 23.476 27.0552 23.1886C27.093 23.1082 27.1373 23.0277 27.1866 22.9489C27.2752 22.8093 27.377 22.6812 27.4871 22.5728C27.4904 22.5695 27.5133 22.5465 27.5199 22.54C27.6152 22.448 27.7203 22.3626 27.8303 22.2904C27.9206 22.2296 28.0241 22.1738 28.1456 22.1196C28.4428 21.9849 28.7581 21.9159 29.08 21.9159C29.3821 21.9159 29.6761 21.9734 29.9503 22.0884C30.0817 22.1426 30.2098 22.2115 30.3296 22.2904C30.3888 22.3298 30.4463 22.3708 30.5021 22.4168C31.0144 22.8323 31.3084 23.4415 31.3084 24.0918V27.4172C31.3084 27.5239 31.2148 27.6109 31.0998 27.6109H27.0601Z" fill="white"/>
<path id="Vector_11" d="M32.7336 27.611C32.7107 27.5913 32.668 27.5256 32.668 27.4172V24.0918C32.668 23.7634 32.7271 23.4448 32.842 23.1427C32.8732 23.0606 32.911 22.9768 32.952 22.898C33.0243 22.7584 33.1064 22.632 33.1967 22.5219C33.2 22.5187 33.2148 22.499 33.2197 22.494C33.2986 22.4021 33.3806 22.32 33.4644 22.251C33.5317 22.1952 33.6105 22.1442 33.7025 22.0933C33.916 21.9751 34.1393 21.9143 34.3676 21.9143C34.5811 21.9143 34.7896 21.9653 34.985 22.0654C35.0836 22.1147 35.1788 22.1771 35.2691 22.251C35.3135 22.2871 35.3595 22.3282 35.4021 22.3709C35.8242 22.7896 36.0656 23.4153 36.0656 24.0902V27.4156C36.0656 27.5223 36.0229 27.588 35.9999 27.6093L32.7336 27.611Z" fill="white"/>
<path id="Vector_12" d="M37.4481 27.6109C37.435 27.5649 37.4219 27.4992 37.4219 27.4171V24.0918C37.4219 23.7403 37.4662 23.4004 37.5549 23.0802C37.5795 22.9932 37.6058 22.9061 37.6386 22.8224C37.6928 22.6779 37.7536 22.5481 37.8176 22.4365C37.8193 22.4332 37.8324 22.4118 37.8373 22.4036C37.8882 22.3199 37.9457 22.2394 38.0032 22.1754C38.0459 22.1277 38.0935 22.0834 38.1493 22.0391C38.2528 21.9586 38.353 21.9175 38.4433 21.9175C38.5303 21.9175 38.619 21.9504 38.7126 22.0161C38.7701 22.0571 38.8292 22.1097 38.885 22.1737C38.9162 22.2099 38.9458 22.2476 38.9754 22.287C39.2824 22.7124 39.4664 23.3873 39.4664 24.0918V27.4171C39.4664 27.4992 39.4549 27.5633 39.4401 27.6109H37.4481Z" fill="white"/>
<path id="Vector_13" d="M16.3447 27.6109C16.3217 27.5928 16.2773 27.5255 16.2773 27.4171V24.0918C16.2773 23.4185 16.5204 22.7912 16.9457 22.3741C16.9884 22.3314 17.0344 22.292 17.0804 22.2542C17.1707 22.1819 17.2676 22.1179 17.3677 22.0686C17.5681 21.9685 17.7783 21.9175 17.995 21.9175C18.2249 21.9175 18.4532 21.9783 18.67 22.0965C18.7636 22.1475 18.8407 22.2 18.9097 22.2542C18.9951 22.3232 19.0789 22.4053 19.1577 22.4972C19.161 22.5005 19.179 22.5235 19.1856 22.5301C19.2693 22.6319 19.3531 22.7583 19.427 22.8996C19.4681 22.9784 19.5058 23.0605 19.5387 23.1442C19.6552 23.4448 19.7144 23.7633 19.7144 24.0901V27.4155C19.7144 27.5239 19.6684 27.5896 19.6471 27.6093L16.3447 27.6109Z" fill="white"/>
<path id="Vector_14" d="M12.9052 27.6109C12.8921 27.5649 12.8789 27.4992 12.8789 27.4171V24.0917C12.8789 23.3872 13.0628 22.7123 13.3699 22.287C13.3978 22.2476 13.4274 22.2098 13.4586 22.1753C13.5161 22.1113 13.5736 22.0587 13.631 22.016C13.7246 21.9487 13.8133 21.9175 13.9003 21.9175C13.9923 21.9175 14.0908 21.9586 14.1943 22.039C14.2501 22.0834 14.2994 22.1277 14.3404 22.1753C14.3979 22.2394 14.4554 22.3182 14.5096 22.4102C14.5112 22.4134 14.5194 22.4266 14.5194 22.4266C14.59 22.5481 14.6508 22.6778 14.705 22.8223C14.7362 22.9061 14.7641 22.9931 14.7871 23.0802C14.8758 23.4004 14.9201 23.7419 14.9201 24.0917V27.4171C14.9201 27.4992 14.9086 27.5632 14.8938 27.6109H12.9052Z" fill="white"/>
</g>
<path id="Vector_15" opacity="0.2" d="M26.1759 21.7452C26.0215 21.5597 25.8491 21.3872 25.6586 21.2312C25.565 21.1557 25.4698 21.0834 25.3713 21.0194C25.1726 20.8864 24.9591 20.7714 24.7374 20.6795C24.2776 20.4873 23.7882 20.3888 23.2857 20.3888C22.7471 20.3888 22.2216 20.5037 21.7273 20.7287C21.5302 20.819 21.3578 20.9143 21.1985 21.0194C21.0179 21.1393 20.8455 21.2788 20.6845 21.4348C20.6714 21.4463 20.6599 21.4578 20.6468 21.4693C20.6369 21.4792 20.6238 21.494 20.6106 21.5071C20.5581 21.5596 20.5072 21.6155 20.4579 21.6713C20.4316 21.6368 20.4037 21.6007 20.3758 21.5679C20.3676 21.5564 20.3594 21.5465 20.3512 21.5367C20.3397 21.5235 20.3249 21.5071 20.3118 21.4907C20.1722 21.3298 20.026 21.1869 19.8717 21.0637C19.7321 20.9521 19.581 20.8502 19.4086 20.7566C18.9636 20.512 18.489 20.3888 17.998 20.3888C17.5398 20.3888 17.0981 20.4955 16.6826 20.7041C16.4872 20.8026 16.3 20.9241 16.1243 21.0637C16.0389 21.1327 15.9568 21.2066 15.8763 21.2838C15.8205 21.3396 15.7646 21.3971 15.7121 21.4562C15.6382 21.3495 15.5643 21.2509 15.4855 21.1639C15.3787 21.0424 15.2621 20.934 15.1275 20.8305C14.7547 20.5432 14.3294 20.3904 13.8975 20.3904C13.6052 20.3904 13.3162 20.4594 13.0469 20.5908V19.1982C13.0469 18.2918 13.7842 17.5544 14.6907 17.5544H37.6464C38.5528 17.5544 39.2918 18.2918 39.2918 19.1982V20.5908C39.0208 20.4578 38.7318 20.3904 38.4412 20.3904C38.0093 20.3904 37.584 20.5432 37.2112 20.8322C37.0765 20.9356 36.9599 21.0457 36.8532 21.1655C36.776 21.2542 36.7005 21.3495 36.6282 21.4546C36.5773 21.3971 36.5248 21.3412 36.4706 21.2887C36.3917 21.2115 36.3097 21.136 36.2259 21.0686C36.0518 20.9274 35.8646 20.8059 35.6708 20.7074C35.2587 20.4972 34.8169 20.3904 34.3604 20.3904C33.8711 20.3904 33.3997 20.5152 32.9564 20.7599C32.7839 20.8552 32.6345 20.9553 32.4966 21.067C32.3438 21.1918 32.1961 21.3347 32.0598 21.494C32.0499 21.5038 32.04 21.5153 32.0302 21.5268C32.0203 21.5383 32.0072 21.5547 31.9973 21.5695C31.9711 21.6023 31.9432 21.6368 31.9185 21.6713C31.779 21.5137 31.6262 21.3659 31.4604 21.2312C31.3684 21.1557 31.2699 21.0851 31.1714 21.0194C30.971 20.8864 30.7559 20.7714 30.5325 20.6795C30.0711 20.4873 29.5801 20.3904 29.076 20.3904C28.5357 20.3904 28.0086 20.5037 27.511 20.7287C27.3139 20.8174 27.1399 20.9126 26.9806 21.0194C26.7999 21.1393 26.6258 21.2788 26.4616 21.4348C26.4485 21.4463 26.4354 21.4578 26.4222 21.471C26.4124 21.4808 26.3992 21.494 26.3877 21.5071C26.3171 21.581 26.2449 21.6615 26.1759 21.7452Z" fill="white"/>
<path id="Vector_16" d="M15.3555 38.9369H36.9975C38.2964 38.9369 39.349 37.8383 39.349 36.4835V29.4108H13.0039V36.4835C13.0055 37.8383 14.0582 38.9369 15.3555 38.9369Z" fill="#FF304A"/>
<g id="Group_4">
<path id="Vector_17" d="M26.9634 34.8922C27.0176 34.9497 27.0734 35.0039 27.1309 35.0532C27.2475 35.155 27.3707 35.2404 27.502 35.3126C27.7631 35.4555 28.0505 35.5327 28.351 35.5327C28.6762 35.5327 28.9849 35.4374 29.2624 35.2732C29.3692 35.2092 29.4743 35.1369 29.5712 35.0532C29.6812 34.9563 29.7846 34.8463 29.8799 34.7264C29.8848 34.7198 29.8897 34.7149 29.8947 34.71C29.8996 34.7034 29.9029 34.6985 29.9078 34.6919C30.0195 34.5458 30.118 34.3815 30.2034 34.2075C30.251 34.1073 30.2953 34.0055 30.3331 33.8971C30.4612 33.5391 30.5351 33.1433 30.5351 32.7246V29.4518C30.5351 28.9772 30.2362 28.5929 29.8684 28.5929H26.8386C26.4708 28.5929 26.1719 28.9772 26.1719 29.4518V32.7246C26.1686 33.5966 26.479 34.3766 26.9634 34.8922Z" fill="#F2F2F2"/>
<path id="Vector_18" d="M22.5755 34.8922C22.6296 34.9497 22.6855 35.0039 22.7446 35.0532C22.8612 35.155 22.986 35.2404 23.1174 35.3126C23.3801 35.4555 23.6691 35.5327 23.9729 35.5327C24.3014 35.5327 24.6101 35.4374 24.8909 35.2732C24.9993 35.2092 25.1044 35.1369 25.2013 35.0532C25.3129 34.9563 25.4164 34.8463 25.5116 34.7264C25.5165 34.7198 25.5215 34.7149 25.5264 34.71C25.5313 34.7034 25.5346 34.6985 25.5395 34.6919C25.6528 34.5458 25.7514 34.3815 25.8368 34.2075C25.8844 34.1073 25.9287 34.0055 25.9681 33.8971C26.0979 33.5391 26.1701 33.1433 26.1701 32.7246V29.4518C26.1701 28.9772 25.8696 28.5929 25.4985 28.5929H22.449C22.0779 28.5929 21.7774 28.9772 21.7774 29.4518V32.7246C21.7757 33.5966 22.0861 34.3766 22.5755 34.8922Z" fill="#F2F2F2"/>
<path id="Vector_19" d="M33.0952 34.8922C33.0525 34.9497 33.0098 35.0039 32.9654 35.0532C32.8751 35.155 32.7799 35.2404 32.678 35.3126C32.4761 35.4555 32.2527 35.5327 32.0195 35.5327C31.7667 35.5327 31.5285 35.4374 31.3134 35.2732C31.2297 35.2092 31.1492 35.1369 31.0737 35.0532C30.9883 34.9563 30.9078 34.8463 30.8339 34.7264C30.8306 34.7215 30.8257 34.7149 30.8224 34.71C30.8191 34.7034 30.8158 34.6985 30.8126 34.6919C30.7255 34.5458 30.65 34.3815 30.5843 34.2075C30.5465 34.1073 30.5137 34.0055 30.4841 33.8971C30.3856 33.5391 30.3281 33.1433 30.3281 32.7246V29.4518C30.3281 28.9772 30.5597 28.5929 30.8454 28.5929H33.192C33.4778 28.5929 33.7093 28.9772 33.7093 29.4518V32.7246C33.7093 33.5966 33.4712 34.3766 33.0952 34.8922Z" fill="#F2F2F2"/>
<path id="Vector_20" d="M36.2836 34.8922C36.2442 34.9497 36.2048 35.0039 36.1621 35.0532C36.0783 35.155 35.9896 35.2404 35.8944 35.3126C35.7055 35.4555 35.4986 35.5327 35.2819 35.5327C35.047 35.5327 34.8253 35.4374 34.625 35.2732C34.5478 35.2092 34.4723 35.1369 34.4017 35.0532C34.3212 34.9563 34.2473 34.8463 34.1783 34.7264C34.175 34.7215 34.1718 34.7149 34.1685 34.71C34.1652 34.705 34.1619 34.6985 34.1586 34.6919C34.0782 34.5458 34.0076 34.3815 33.9452 34.2075C33.9107 34.1073 33.8795 34.0055 33.8515 33.8971C33.7596 33.5391 33.707 33.1433 33.707 32.7246V29.4518C33.707 28.9772 33.9222 28.5929 34.1882 28.5929H36.3739C36.6399 28.5929 36.8551 28.9772 36.8551 29.4518V32.7246C36.8567 33.5966 36.6334 34.3766 36.2836 34.8922Z" fill="#F2F2F2"/>
<path id="Vector_21" d="M38.8532 34.8922C38.8204 34.9497 38.7859 35.0039 38.7498 35.0532C38.6775 35.155 38.602 35.2404 38.5199 35.3126C38.3589 35.4555 38.18 35.5327 37.9944 35.5327C37.7924 35.5327 37.6019 35.4374 37.4295 35.2732C37.3621 35.2092 37.2981 35.1369 37.239 35.0532C37.17 34.9563 37.106 34.8463 37.0485 34.7264C37.0452 34.7215 37.0419 34.7149 37.0403 34.71C37.037 34.7034 37.0354 34.6985 37.0321 34.6919C36.9631 34.5458 36.9023 34.3815 36.8498 34.2075C36.8202 34.1073 36.7923 34.0055 36.7693 33.8971C36.6905 33.5391 36.6445 33.1433 36.6445 32.7246V29.4518C36.6445 28.9772 36.8301 28.5929 37.0584 28.5929H38.9353C39.1636 28.5929 39.3492 28.9772 39.3492 29.4518V32.7246C39.3442 33.5966 39.1537 34.3766 38.8532 34.8922Z" fill="#F2F2F2"/>
<path id="Vector_22" d="M19.2392 34.8922C19.2802 34.9497 19.3246 35.0039 19.3689 35.0532C19.4592 35.155 19.5545 35.2404 19.6563 35.3126C19.8583 35.4555 20.08 35.5327 20.3148 35.5327C20.5677 35.5327 20.8058 35.4374 21.0209 35.2732C21.1047 35.2092 21.1851 35.1369 21.2607 35.0532C21.3461 34.9563 21.4265 34.8463 21.5004 34.7264C21.5037 34.7215 21.507 34.7149 21.5119 34.71C21.5152 34.7034 21.5185 34.6985 21.5218 34.6919C21.6088 34.5458 21.6843 34.3815 21.75 34.2075C21.7878 34.1073 21.8207 34.0055 21.8502 33.8971C21.9487 33.5391 22.0062 33.1433 22.0062 32.7246V29.4518C22.0062 28.9772 21.7747 28.5929 21.4889 28.5929H19.1423C18.8566 28.5929 18.625 28.9772 18.625 29.4518V32.7246C18.6234 33.5966 18.8631 34.3766 19.2392 34.8922Z" fill="#F2F2F2"/>
<path id="Vector_23" d="M16.0542 34.8922C16.0936 34.9497 16.133 35.0039 16.1757 35.0532C16.2595 35.155 16.3482 35.2404 16.4434 35.3126C16.6323 35.4555 16.8392 35.5327 17.0559 35.5327C17.2908 35.5327 17.5141 35.4374 17.7128 35.2732C17.79 35.2092 17.8655 35.1369 17.9361 35.0532C18.0166 34.9563 18.0905 34.8463 18.1595 34.7264C18.1627 34.7215 18.166 34.7149 18.1693 34.71C18.1726 34.705 18.1759 34.6985 18.1791 34.6919C18.2596 34.5458 18.3302 34.3815 18.3926 34.2075C18.4271 34.1073 18.4583 34.0055 18.4862 33.8971C18.5782 33.5391 18.6324 33.1433 18.6324 32.7246V29.4518C18.6324 28.9772 18.4173 28.5929 18.1512 28.5929H15.9655C15.6995 28.5929 15.4844 28.9772 15.4844 29.4518V32.7246C15.4827 33.5966 15.7044 34.3766 16.0542 34.8922Z" fill="#F2F2F2"/>
<path id="Vector_24" d="M13.4826 34.8922C13.5154 34.9497 13.5499 35.0039 13.586 35.0532C13.6583 35.155 13.7355 35.2404 13.8159 35.3126C13.9769 35.4555 14.1559 35.5327 14.3414 35.5327C14.5434 35.5327 14.7339 35.4374 14.9063 35.2732C14.9736 35.2092 15.0377 35.1369 15.0968 35.0532C15.1658 34.9563 15.2298 34.8463 15.2889 34.7264C15.2922 34.7215 15.2955 34.7149 15.2972 34.71C15.3004 34.7034 15.3021 34.6985 15.3054 34.6919C15.3743 34.5458 15.4351 34.3815 15.4876 34.2075C15.5172 34.1073 15.5451 34.0055 15.5681 33.8971C15.6469 33.5391 15.6929 33.1433 15.6929 32.7246V29.4518C15.6929 28.9772 15.5074 28.5929 15.2791 28.5929H13.4021C13.1738 28.5929 12.9883 28.9772 12.9883 29.4518V32.7246C12.9899 33.5966 13.182 34.3766 13.4826 34.8922Z" fill="#F2F2F2"/>
</g>
<g id="Group_5">
<path id="Vector_25" d="M29.8645 29.2628C29.9499 29.2628 30.0188 29.3482 30.0188 29.4533V32.7261C30.0188 33.0332 29.9679 33.332 29.8661 33.6161C29.8382 33.6966 29.8037 33.7754 29.7676 33.8526C29.7002 33.9905 29.6247 34.1153 29.5426 34.2221C29.5393 34.2254 29.5245 34.2467 29.5196 34.2516C29.4474 34.342 29.3685 34.4274 29.2864 34.498C29.2191 34.5571 29.1419 34.6113 29.05 34.6655C28.8266 34.7968 28.5918 34.8642 28.352 34.8642C28.1254 34.8642 27.907 34.8067 27.7001 34.695C27.6016 34.6408 27.5063 34.5751 27.416 34.498C27.3717 34.4602 27.329 34.4175 27.2879 34.3732C26.9037 33.9643 26.6836 33.3632 26.6836 32.7244V29.4516C26.6836 29.3465 26.7526 29.2611 26.838 29.2611L29.8645 29.2628Z" fill="white"/>
<path id="Vector_26" d="M25.4956 29.2628C25.5826 29.2628 25.6532 29.3482 25.6532 29.4533V32.7261C25.6532 33.0332 25.6007 33.332 25.4989 33.6145C25.4693 33.6949 25.4365 33.7738 25.3987 33.8493C25.3314 33.9873 25.2558 34.1121 25.1721 34.2204C25.1688 34.2237 25.1524 34.2451 25.1475 34.2516C25.0752 34.342 24.9964 34.4257 24.9126 34.4963C24.8436 34.5554 24.7665 34.6113 24.6745 34.6655C24.4495 34.7985 24.2114 34.8658 23.9684 34.8658C23.7401 34.8658 23.5184 34.8083 23.3099 34.6967C23.2097 34.6425 23.1145 34.5751 23.0241 34.498C22.9798 34.4602 22.9371 34.4175 22.8944 34.3732C22.5069 33.9643 22.2852 33.3649 22.2852 32.7261V29.4533C22.2852 29.3482 22.3558 29.2628 22.4428 29.2628H25.4956Z" fill="white"/>
<path id="Vector_27" d="M33.1825 29.2627C33.1989 29.2808 33.2302 29.3465 33.2302 29.4532V32.726C33.2302 33.3895 33.0577 34.0053 32.7589 34.4158C32.7277 34.4585 32.6965 34.4979 32.6636 34.5341C32.5996 34.6063 32.5322 34.6671 32.4616 34.7163C32.3204 34.8149 32.171 34.8658 32.0182 34.8658C31.8557 34.8658 31.6964 34.8067 31.542 34.6901C31.4763 34.6392 31.4205 34.5883 31.3729 34.5341C31.3121 34.4667 31.253 34.3863 31.1972 34.2943C31.1955 34.291 31.1807 34.268 31.1775 34.2615C31.1183 34.1613 31.0592 34.0365 31.0067 33.8969C30.9771 33.8197 30.9508 33.7376 30.9278 33.6571C30.8457 33.3616 30.8047 33.0479 30.8047 32.726V29.4532C30.8047 29.3465 30.8375 29.2824 30.8523 29.2627H33.1825Z" fill="white"/>
<path id="Vector_28" d="M36.3643 29.2627C36.3791 29.2808 36.4087 29.3465 36.4087 29.4532V32.726C36.4087 33.3895 36.2477 34.0053 35.9686 34.4158C35.9407 34.4585 35.9111 34.4979 35.8799 34.5341C35.8208 34.6063 35.7567 34.6671 35.691 34.7163C35.5597 34.8149 35.4217 34.8658 35.2789 34.8658C35.1278 34.8658 34.9783 34.8067 34.8355 34.6901C34.7747 34.6392 34.7222 34.5883 34.6778 34.5341C34.622 34.4667 34.5662 34.3863 34.5153 34.2943C34.5136 34.291 34.5005 34.268 34.4972 34.2615C34.4414 34.1613 34.3872 34.0365 34.3395 33.8969C34.3133 33.8197 34.2887 33.7376 34.2673 33.6571C34.1901 33.3616 34.1523 33.0479 34.1523 32.726V29.4532C34.1523 29.3465 34.1819 29.2824 34.1967 29.2627H36.3643Z" fill="white"/>
<path id="Vector_29" d="M38.9224 29.2627C38.9355 29.2808 38.9602 29.3465 38.9602 29.4532V32.726C38.9602 33.3895 38.8222 34.0053 38.5825 34.4158C38.5578 34.4585 38.5316 34.4979 38.5069 34.5341C38.456 34.6063 38.4018 34.6671 38.346 34.7163C38.2327 34.8149 38.1144 34.8658 37.9929 34.8658C37.8632 34.8658 37.7351 34.8067 37.6136 34.6901C37.561 34.6392 37.5167 34.5883 37.4789 34.5341C37.4313 34.4667 37.3837 34.3863 37.3393 34.2943C37.3377 34.291 37.3279 34.268 37.3246 34.2615C37.277 34.1613 37.231 34.0365 37.1883 33.8969C37.1653 33.8197 37.1439 33.7376 37.1259 33.6571C37.0602 33.3616 37.0273 33.0479 37.0273 32.726V29.4532C37.0273 29.3465 37.0536 29.2824 37.0651 29.2627H38.9224Z" fill="white"/>
<path id="Vector_30" d="M19.157 29.2627C19.1406 29.2808 19.1094 29.3465 19.1094 29.4532V32.726C19.1094 33.3895 19.2818 34.0053 19.5807 34.4158C19.6119 34.4585 19.6431 34.4979 19.6759 34.5341C19.74 34.6063 19.8073 34.6671 19.8779 34.7163C20.0191 34.8149 20.1686 34.8658 20.3213 34.8658C20.4839 34.8658 20.6432 34.8067 20.7959 34.6901C20.8616 34.6392 20.9174 34.5883 20.965 34.5341C21.0258 34.4667 21.0849 34.3863 21.1407 34.2943C21.1424 34.291 21.1572 34.268 21.1604 34.2615C21.2196 34.1613 21.2787 34.0365 21.3312 33.8969C21.3608 33.8197 21.387 33.7376 21.41 33.6571C21.4921 33.3616 21.5332 33.0479 21.5332 32.726V29.4532C21.5332 29.3465 21.5004 29.2824 21.4856 29.2627H19.157Z" fill="white"/>
<path id="Vector_31" d="M15.974 29.2627C15.9593 29.2808 15.9297 29.3465 15.9297 29.4532V32.726C15.9297 33.3895 16.0906 34.0053 16.3698 34.4158C16.3977 34.4585 16.4273 34.4979 16.4585 34.5341C16.5176 34.6063 16.5816 34.6671 16.6473 34.7163C16.7787 34.8149 16.9166 34.8658 17.0595 34.8658C17.2106 34.8658 17.36 34.8067 17.5029 34.6901C17.5636 34.6392 17.6162 34.5883 17.6605 34.5341C17.7164 34.4667 17.7722 34.3863 17.8231 34.2943C17.8247 34.291 17.8379 34.268 17.8412 34.2615C17.897 34.1613 17.9512 34.0365 17.9988 33.8969C18.0267 33.8197 18.0497 33.7376 18.0711 33.6571C18.1482 33.3616 18.186 33.0479 18.186 32.726V29.4532C18.186 29.3465 18.1565 29.2824 18.1417 29.2627H15.974Z" fill="white"/>
<path id="Vector_32" d="M13.4128 29.2628C13.3996 29.2808 13.375 29.3465 13.375 29.4533V32.7261C13.375 33.3895 13.5129 34.0053 13.7527 34.4159C13.7773 34.4586 13.8036 34.498 13.8282 34.5341C13.8791 34.6064 13.9333 34.6671 13.9892 34.7164C14.1025 34.8149 14.2207 34.8658 14.3422 34.8658C14.472 34.8658 14.6001 34.8067 14.7216 34.6901C14.7741 34.6392 14.8185 34.5883 14.8579 34.5341C14.9055 34.4668 14.9531 34.3863 14.9975 34.2943C14.9991 34.2911 15.0106 34.2681 15.0122 34.2615C15.0599 34.1613 15.1058 34.0365 15.1485 33.8969C15.1715 33.8198 15.1929 33.7376 15.2109 33.6572C15.2766 33.3616 15.3095 33.0479 15.3095 32.7261V29.4533C15.3095 29.3465 15.2832 29.2825 15.2717 29.2628H13.4128Z" fill="white"/>
</g>
<path id="Vector_33" opacity="0.1" d="M15.3502 38.0879C14.5226 38.0879 13.8477 37.3686 13.8477 36.4835V36.3012C14.0069 36.3554 14.1728 36.3833 14.3403 36.3833C14.7558 36.3833 15.1548 36.2125 15.4931 35.8874C15.5457 35.8381 15.5949 35.7856 15.6409 35.733C15.7312 35.8283 15.8281 35.9153 15.9283 35.9909C16.2682 36.247 16.6574 36.3833 17.0532 36.3833C17.4768 36.3833 17.8906 36.2273 18.2503 35.9301C18.3751 35.8266 18.4867 35.7166 18.5869 35.5967C18.6083 35.5705 18.6296 35.5442 18.651 35.5163C18.6789 35.5524 18.7085 35.5869 18.738 35.6197C18.871 35.7692 19.0172 35.9005 19.1715 36.0089C19.5213 36.2536 19.9171 36.3833 20.3178 36.3833C20.7464 36.3833 21.1684 36.2339 21.5395 35.9498C21.6725 35.848 21.7908 35.7396 21.8959 35.6197C21.9271 35.5852 21.9583 35.5491 21.9878 35.5113C22.0519 35.577 22.1176 35.6394 22.1849 35.6985C22.3491 35.8398 22.5265 35.9629 22.7087 36.0615C23.1045 36.2749 23.5282 36.3833 23.9683 36.3833C24.4396 36.3833 24.8928 36.2569 25.3165 36.0073C25.4774 35.912 25.6203 35.8119 25.7517 35.6985C25.8945 35.5754 26.0325 35.4325 26.1589 35.2749L26.1622 35.2716C26.2197 35.3422 26.2788 35.4112 26.3412 35.4769C26.4151 35.5557 26.4923 35.6296 26.5711 35.6969C26.7337 35.8381 26.9094 35.9613 27.0916 36.0598C27.4874 36.2749 27.9094 36.3833 28.3479 36.3833C28.8175 36.3833 29.2691 36.2569 29.6928 36.0056C29.8538 35.9104 29.995 35.8086 30.1247 35.6953C30.1953 35.6345 30.2643 35.5672 30.3316 35.4966C30.3645 35.5393 30.399 35.5803 30.4351 35.6181C30.5418 35.738 30.6584 35.8463 30.7914 35.9482C31.1626 36.2322 31.5846 36.3817 32.0132 36.3817C32.4139 36.3817 32.8096 36.2519 33.1594 36.0073C33.3121 35.8989 33.4583 35.7692 33.5929 35.6181C33.6225 35.5852 33.6521 35.5508 33.68 35.5146C33.7013 35.5425 33.7227 35.5688 33.744 35.5951C33.8442 35.7166 33.9542 35.825 34.0807 35.9284C34.442 36.224 34.8558 36.3817 35.2778 36.3817C35.6735 36.3817 36.0627 36.247 36.4027 35.9892C36.5028 35.9137 36.5997 35.8283 36.69 35.7314C36.736 35.7839 36.7853 35.8365 36.8378 35.8858C37.1761 36.2093 37.5735 36.38 37.989 36.38C38.1598 36.38 38.3289 36.3505 38.4915 36.2946V36.4802C38.4915 37.3653 37.8182 38.0846 36.9889 38.0846H15.3502V38.0879Z" fill="black"/>
</g>
</g>
</svg>
