<svg width="23" height="11" viewBox="0 0 23 11" fill="none" xmlns="http://www.w3.org/2000/svg">
<g id="Group">
<path id="Vector" d="M10.8904 10.5459C10.4974 10.5459 8.42544 10.4859 6.20744 9.2959C3.48544 7.8359 1.61644 5.3099 0.648438 1.7859C1.25544 1.6489 2.51644 1.41791 4.14444 1.41791C6.52644 1.41791 8.80044 1.8919 10.9044 2.8259C10.9574 2.8499 11.0144 2.86191 11.0714 2.86191C11.1154 2.86191 11.1584 2.8549 11.2014 2.8409C11.2384 2.8289 14.9574 1.60991 19.1904 1.60991C20.1484 1.60991 21.0694 1.6729 21.9334 1.7959C21.6894 2.5839 21.0674 4.2929 19.8504 5.9799C18.8914 7.3089 17.7544 8.36591 16.4694 9.12291C14.8674 10.0669 13.0234 10.5449 10.9904 10.5449C10.9854 10.5449 10.9794 10.5449 10.9744 10.5449C10.9714 10.5449 10.9424 10.5459 10.8904 10.5459Z" fill="#792A2A"/>
<path id="Vector_2" d="M6.97656 7.56292C7.03056 7.50692 7.46156 6.30093 7.54256 6.36793C7.62356 6.43493 7.89256 7.44993 7.89256 7.44993C7.89256 7.44993 8.70056 7.78792 8.70056 7.73192C8.70056 7.67592 9.67056 6.99892 9.67056 7.05492C9.67056 7.11092 9.67056 8.23893 9.67056 8.23893L10.4866 8.38192L10.8556 7.61892L11.2146 7.23092C11.2146 7.23092 11.5566 7.44992 11.5566 7.78792C11.5566 8.12592 11.6106 8.57692 11.6646 8.57692C11.7186 8.57692 12.3736 8.44592 12.3966 8.39892C12.4196 8.35192 12.9956 7.01092 12.9956 7.01092L13.3896 8.01293L14.0906 8.18192L14.7376 7.44892L15.0606 6.77192L15.3836 7.39193C15.3836 7.39193 15.5456 7.67392 15.4376 7.78692C15.3296 7.89992 11.3416 9.02692 11.0726 8.97092C10.8026 8.91492 9.61756 8.85792 8.91656 8.63292C8.21556 8.40792 7.51556 8.35092 7.35356 8.12592C7.19256 7.90092 6.97656 7.56292 6.97656 7.56292Z" fill="#FF7A7A"/>
<path id="Vector_3" d="M16.5737 6.5619C16.5687 6.5089 16.4527 5.5419 16.6267 5.4109C16.8017 5.2799 17.4307 5.4109 17.4307 5.4109L17.6637 5.25591C17.6637 5.25591 17.7917 4.98191 17.7917 4.94591C17.7917 4.90991 18.0597 4.3849 18.4207 4.5399C18.7817 4.6949 18.8747 4.88589 18.8747 4.88589C18.8747 4.88589 19.1427 4.6119 19.1427 4.5759C19.1427 4.5399 19.0727 4.0029 19.0727 4.0029L19.1777 3.68091L19.2567 3.6019L19.3197 3.7449C19.3197 3.7449 19.7127 3.91991 19.7127 4.07491C19.7127 4.22991 19.6077 4.4689 19.6077 4.4689C19.6077 4.4689 19.0717 5.13691 18.9547 5.30391C18.8377 5.47091 18.5817 5.6619 18.3137 5.8649C18.0457 6.0679 17.3817 6.41389 17.3817 6.41389L16.5737 6.5619Z" fill="#CCCCCC"/>
<path id="Vector_4" d="M6.04134 6.5079C6.04634 6.4549 6.16234 5.4879 5.98834 5.3569C5.81334 5.2259 5.18434 5.3569 5.18434 5.3569L4.95134 5.2019C4.95134 5.2019 4.82334 4.92791 4.82334 4.89191C4.82334 4.85591 4.55534 4.33091 4.19434 4.48691C3.83334 4.64191 3.74034 4.8329 3.74034 4.8329C3.74034 4.8329 3.47234 4.5589 3.47234 4.5229C3.47234 4.4869 3.54234 3.9509 3.54234 3.9509L3.43734 3.62891L3.35834 3.5499L3.29534 3.6929C3.29534 3.6929 2.90234 3.8679 2.90234 4.0229C2.90234 4.1779 3.00734 4.4169 3.00734 4.4169C3.00734 4.4169 3.54334 5.08491 3.66034 5.25191C3.77634 5.41891 4.03334 5.6099 4.30134 5.8129C4.56934 6.0159 5.23334 6.36191 5.23334 6.36191L6.04134 6.5079Z" fill="#CCCCCC"/>
<g id="Group_2">
<path id="Vector_5" d="M11.2714 6.29791C11.2714 6.35391 11.1534 8.15491 11.5304 8.32391C11.9074 8.49291 12.8654 8.36792 12.8654 8.36792L12.9854 7.08292C12.9854 7.08292 11.9614 6.40591 11.9074 6.40591C11.8544 6.40691 11.2714 6.29791 11.2714 6.29791Z" fill="#E6E6E6"/>
<path id="Vector_6" d="M11.2567 6.0979C11.2567 6.0979 11.4237 7.9289 10.8307 8.2679C10.2377 8.6059 9.63769 8.0099 9.63769 8.0099L9.42969 6.8019L11.2567 6.0979Z" fill="#E6E6E6"/>
<path id="Vector_7" d="M12.9297 6.8019C12.9297 6.8579 13.0377 8.15291 13.1997 8.20891C13.3617 8.26491 14.7617 7.8729 14.7617 7.8169C14.7617 7.7609 15.1927 6.35091 15.0847 6.01291C14.9767 5.67491 14.7617 5.6749 14.6537 5.7309C14.5457 5.7869 13.9527 5.8999 13.8997 5.8999C13.8457 5.8999 12.9297 6.8019 12.9297 6.8019Z" fill="#E6E6E6"/>
<path id="Vector_8" d="M15.1947 6.06892C15.1407 6.12492 14.7097 7.47891 15.2487 7.59091C15.7877 7.70391 16.5417 6.85791 16.5417 6.80191C16.5417 6.74591 16.5957 5.44891 16.4337 5.16691C16.2717 4.88491 15.7327 5.78691 15.6797 5.78691C15.6257 5.78691 15.1947 6.06892 15.1947 6.06892Z" fill="#E6E6E6"/>
<path id="Vector_9" d="M7.59487 6.01291C7.54087 6.06891 7.48687 7.3099 7.75687 7.6479C8.02587 7.9859 8.99687 8.15491 8.99687 8.15491C8.99687 8.15491 9.64387 7.8169 9.48187 6.9149C9.31987 6.0129 8.83487 5.8439 8.78087 5.8439C8.72687 5.8439 8.13387 5.8999 8.07987 5.8999C8.02587 5.8999 7.59487 6.01291 7.59487 6.01291Z" fill="#E6E6E6"/>
<path id="Vector_10" d="M6.30114 5.22288C6.30114 5.22288 5.87014 6.23788 6.13914 6.74488C6.40814 7.25188 7.16314 7.42189 7.21714 7.42189C7.27114 7.42189 7.54014 7.36589 7.54014 7.36589C7.54014 7.36589 7.54014 6.12589 7.54014 6.06889C7.54014 6.01289 7.37814 5.50488 7.32414 5.44888C7.27014 5.39288 6.85514 4.96588 6.79314 4.98188C6.73214 4.99788 6.30114 5.22288 6.30114 5.22288Z" fill="#E6E6E6"/>
<path id="Vector_11" d="M5.33176 4.54691C5.33176 4.60291 4.57776 5.1109 4.90076 5.7309C5.22376 6.3509 5.49376 6.5199 5.60176 6.5199C5.70976 6.5199 5.76376 6.5199 5.87076 6.5199C5.97776 6.5199 6.03276 6.57591 6.03276 6.40691C6.03276 6.23791 6.19476 5.4489 6.19476 5.4489L5.97876 5.1109L5.33176 4.54691Z" fill="#E6E6E6"/>
</g>
<path id="Vector_12" opacity="0.1" d="M5.42188 5.76392C5.42188 5.76392 9.12387 7.96092 11.7329 7.96092C11.7329 7.96092 13.7649 7.86992 16.5479 6.42192L16.5559 6.55592C16.5559 6.55592 13.7529 9.30792 9.66587 7.94392C5.57787 6.57892 6.10287 6.42992 6.10287 6.42992L5.42188 5.76392Z" fill="black"/>
<path id="Vector_13" d="M3.63603 2.0379C3.63603 2.0939 3.58203 3.22191 3.58203 3.22191L4.44403 3.0529L4.92903 3.7299C4.92903 3.7299 5.36003 3.33491 5.36003 3.39191C5.36003 3.44891 6.76103 4.6889 6.76103 4.6889L7.13803 3.9559L8.80903 5.36591L9.18603 4.5769L11.072 5.7049H11.665C11.665 5.7049 11.88 4.9159 11.988 4.8589C12.096 4.8029 13.497 5.0849 13.551 5.1409C13.605 5.1969 14.144 5.30991 14.144 5.30991L15.168 3.8439L15.869 4.5199L16.031 4.6889C16.031 4.6889 16.57 3.8429 16.678 3.7309C16.786 3.6179 17.001 3.1109 17.001 3.1109L17.702 3.0549L18.133 3.6189C18.133 3.6189 18.187 3.1119 18.241 2.9989C18.295 2.8859 18.403 2.4919 18.456 2.5479C18.51 2.6039 18.779 2.6039 18.833 2.7169C18.887 2.8299 19.103 3.16791 19.103 3.16791C19.103 3.16791 19.318 3.1679 19.318 3.0549C19.318 2.9419 19.372 2.49091 19.372 2.43491C19.372 2.37891 19.749 2.26591 19.749 2.20891C19.749 2.15291 19.965 1.9839 19.965 1.9839L20.019 1.8149C20.019 1.8149 13.229 2.5479 13.121 2.6039C13.013 2.6599 10.696 2.9989 10.696 2.9989C10.696 2.9989 7.51603 1.7019 7.46303 1.7019C7.41003 1.7019 3.63703 1.9279 3.63703 1.9279L3.63603 2.0379Z" fill="#FF7A7A"/>
<path id="Vector_14" opacity="0.05" d="M4.54688 5.56392C4.58687 5.50092 5.45988 6.05692 5.45988 6.05692L6.30287 6.51892C6.30287 6.51892 6.09487 5.87192 6.47487 5.69292C6.47487 5.69292 7.00188 6.56491 7.68888 6.59091L8.17987 6.53992C8.17987 6.53992 8.32687 7.38692 9.99487 7.33592L11.3319 6.03992L11.7979 7.09192L12.6069 7.21991C12.6069 7.21991 13.4899 7.52792 14.7779 6.56592C14.7779 6.56592 15.9389 6.08092 16.2229 6.72992L16.5769 6.56291L16.5419 5.02492L16.0989 4.96892C16.0989 4.96892 15.6559 5.22792 15.6029 5.22792C15.5499 5.22792 13.7259 5.83891 13.4779 5.80191C13.2299 5.76491 12.3269 5.74692 11.9729 5.74692C11.6189 5.74692 11.0749 5.70291 11.0749 5.70291C11.0749 5.70291 9.51187 5.87692 9.45887 5.87692C9.40587 5.87692 8.66187 5.82092 8.32587 5.61792C7.98987 5.41392 7.54688 5.15492 7.17488 5.08092C6.80288 5.00692 6.11287 4.96992 6.00587 4.93292C5.89987 4.89592 5.47487 4.78491 5.42188 4.78491C5.36888 4.78491 5.06787 4.82191 5.06787 4.82191L4.54688 5.56392Z" fill="black"/>
<g id="Group_3">
<path id="Vector_15" d="M11.7996 4.09589C11.7996 4.09589 11.2606 4.77289 11.2606 5.61789C11.2606 6.46289 11.1526 7.47889 12.2846 7.36589C13.4166 7.25289 13.7936 7.14089 13.9556 6.85889C14.1176 6.57689 14.2246 6.18189 14.1176 5.50589C14.0096 4.82889 13.5786 4.03989 13.5786 4.03989L11.7996 4.09589Z" fill="#F2F2F2"/>
<path id="Vector_16" opacity="0.4" d="M11.7388 7.13887C11.6528 7.13887 11.5488 6.98186 11.4968 6.92686C11.3658 6.78786 11.3608 6.45187 11.3638 6.09987C11.3648 6.02987 11.3648 5.95987 11.3648 5.89087C11.3648 5.46487 11.5258 4.92388 11.6518 4.71088L12.9088 4.53687C13.0308 4.79887 13.2008 5.50187 13.2578 5.86087C13.3508 6.44687 13.2458 6.71687 13.1588 6.86987C13.1218 6.93487 12.8658 7.03287 11.8578 7.13287C11.8158 7.13587 11.7758 7.13887 11.7388 7.13887Z" fill="white"/>
<path id="Vector_17" d="M14.161 5.91587C14.161 5.91587 14.279 6.68886 14.98 6.51986C15.681 6.35086 16.273 5.89987 16.112 4.88487C15.95 3.86987 15.843 3.64486 15.681 3.47486C15.519 3.30586 14.738 3.72886 14.738 3.72886C14.738 3.72886 14.334 4.71587 13.957 4.94087C13.957 4.94087 14.097 5.36787 14.161 5.91587Z" fill="#F2F2F2"/>
<path id="Vector_18" d="M16.0156 4.25589C16.0156 4.25589 16.5076 3.45488 16.5686 2.99588C16.6296 2.53788 17.9426 2.68588 17.9966 2.91088C18.0506 3.13688 18.2126 5.05388 17.6196 5.61688C17.0266 6.18088 16.1526 5.30789 16.1526 5.30789L16.0156 4.25589Z" fill="#F2F2F2"/>
<path id="Vector_19" d="M18.0195 4.39789C18.0195 4.39789 18.4565 4.87588 18.6595 4.73988C18.8625 4.60288 19.4015 4.09589 19.3475 3.58789C19.2935 3.08089 18.9165 2.23489 18.9165 2.23489L18.2375 2.44688C18.2375 2.44688 18.1745 2.61388 18.0335 2.98788C18.0335 2.98788 18.0935 3.85489 18.0195 4.39789Z" fill="#F2F2F2"/>
<path id="Vector_20" d="M10.7422 4.09589C10.7422 4.09589 11.2612 4.77289 11.2612 5.61789C11.2612 6.46289 11.3652 7.47889 10.2752 7.36589C9.18518 7.25289 8.82218 7.14089 8.66618 6.85889C8.51018 6.57689 8.40718 6.18189 8.51018 5.50589C8.61418 4.82889 9.02918 4.03989 9.02918 4.03989L10.7422 4.09589Z" fill="#F2F2F2"/>
<path id="Vector_21" opacity="0.4" d="M10.2932 7.07589C10.1962 7.08189 10.0842 7.0849 10.0452 7.0839C10.0452 7.0839 10.0452 7.08388 10.0052 7.07988C8.99519 6.97488 8.79719 6.87389 8.76919 6.82389C8.68419 6.66989 8.58119 6.39689 8.67219 5.80489C8.72719 5.44789 8.72719 5.4479 8.72719 5.4479C8.88119 5.0779 9.26719 4.7849 9.58419 4.7949C9.90119 4.8049 10.2952 5.08288 10.4582 5.41188C10.4582 5.41188 10.4582 5.41189 10.4582 5.83689C10.4582 5.90589 10.4592 5.97589 10.4592 6.04589C10.4622 6.40289 10.4672 6.8909 10.3382 7.0279C10.2932 7.0759 10.2932 7.07589 10.2932 7.07589Z" fill="white"/>
<path id="Vector_22" d="M8.47104 5.97288C8.47104 5.97288 8.35704 6.81488 7.68204 6.62988C7.00804 6.44588 6.43704 5.95489 6.59204 4.85089C6.74804 3.74689 6.85104 3.50088 7.00704 3.31688C7.16304 3.13288 7.77404 3.65089 7.77404 3.65089C7.77404 3.65089 8.30404 4.66688 8.66704 4.91188C8.66704 4.91188 8.53304 5.37688 8.47104 5.97288Z" fill="#F2F2F2"/>
<path id="Vector_23" d="M6.68549 4.26889C6.68549 4.26889 6.12849 3.51389 6.07449 3.02689C6.01949 2.53889 4.95449 2.59889 4.90649 2.83889C4.85849 3.07889 4.71249 5.11889 5.24549 5.71889C5.77849 6.31889 6.56349 5.39089 6.56349 5.39089L6.68549 4.26889Z" fill="#F2F2F2"/>
<path id="Vector_24" d="M4.9261 4.6889C4.9261 4.6889 4.4421 5.20391 4.2361 5.05591C4.0291 4.90791 3.4801 4.3599 3.5351 3.8109C3.5901 3.2619 3.9751 2.3479 3.9751 2.3479L4.6671 2.5769C4.6671 2.5769 4.7311 2.7569 4.8751 3.1619C4.8751 3.1619 4.8511 4.1009 4.9261 4.6889Z" fill="#F2F2F2"/>
<path id="Vector_25" d="M18.9961 2.54489L19.2651 2.15889L19.9811 1.99188C19.9811 1.99188 20.0601 3.39889 19.7361 3.51189C19.4131 3.62489 19.3311 3.48988 19.3311 3.48988C19.3311 3.48988 19.0651 2.52089 18.9961 2.54489Z" fill="#F2F2F2"/>
<path id="Vector_26" d="M2.76195 2.13586C2.76195 2.13586 2.65395 3.30687 2.94295 3.78587C3.23195 4.26487 3.28595 4.20888 3.28595 4.20888C3.28595 4.20888 3.47795 3.99787 3.51595 3.90587C3.55495 3.81387 3.85795 2.66088 3.92995 2.55588C4.00195 2.45088 2.76195 2.13586 2.76195 2.13586Z" fill="#F2F2F2"/>
</g>
<path id="Vector_27" opacity="0.05" d="M16.5476 3.12489L16.3906 3.56389C16.3906 3.56389 18.1466 2.01289 18.0186 4.39789C18.0186 4.39789 18.1186 2.74588 18.2566 2.53888C18.2866 2.53888 19.1276 2.22788 19.3256 3.85388C19.3256 3.85388 19.3656 3.49189 19.2856 3.19089C19.2066 2.89089 19.3546 2.16589 19.7706 2.35289C20.1866 2.53889 19.8596 3.38789 19.4146 3.55389C19.4146 3.55389 19.8496 3.66788 19.9386 3.05688C20.0276 2.44588 20.0176 1.89789 19.9786 1.89789C19.9386 1.89789 19.1476 2.13588 19.1476 2.13588C19.1476 2.13588 18.1286 2.11489 17.9706 2.19789C17.8126 2.28089 17.3676 2.43589 17.0806 2.68489C16.7926 2.93189 16.5476 3.12489 16.5476 3.12489Z" fill="black"/>
<path id="Vector_28" opacity="0.05" d="M2.83392 3.56891C2.83392 3.54191 2.59592 2.4579 2.84192 1.9519L3.77592 2.3699L5.20292 2.9299L6.28192 3.4449L6.23092 3.54291C6.23092 3.54291 4.71892 2.6099 4.90592 4.7429C5.09292 6.8759 4.88392 4.6869 4.88392 4.6869C4.88392 4.6869 4.71892 3.4279 4.76192 2.9919L3.92992 2.67191C3.92992 2.67191 3.46292 4.19191 4.45692 5.05391L3.64992 4.5919L3.59892 4.2719C3.59892 4.2719 3.40392 3.60589 3.54792 2.98289C3.69192 2.35989 3.09792 2.4669 3.09792 2.4669C3.09792 2.4669 2.56292 3.36491 3.44592 3.98691L3.36092 4.1909L2.83392 3.56891Z" fill="black"/>
<path id="Vector_29" d="M0.132812 1.47391C2.58481 11.3129 10.9908 10.9739 10.9908 10.9739C20.2598 10.9739 22.4688 1.4449 22.4688 1.4449C22.0868 1.3789 21.7028 1.3269 21.3198 1.2869C21.3008 1.2999 21.2898 1.3069 21.2898 1.3069C17.0398 8.4989 11.5558 8.06891 11.5558 8.06891C4.76581 7.44891 1.39781 1.5569 1.39781 1.5569C1.39781 1.5569 1.40281 1.4099 1.40681 1.2009C0.600813 1.3329 0.132812 1.47391 0.132812 1.47391Z" fill="#FF455C"/>
<path id="Vector_30" d="M11.2258 1.41791C5.51381 -1.11909 0.132812 1.47391 0.132812 1.47391C0.148813 1.53691 0.164813 1.59789 0.180813 1.65989C0.488813 1.62689 1.78781 1.71689 4.79481 3.02389C4.79481 3.02389 8.88981 4.6029 11.2618 4.6029C13.6338 4.6029 17.1358 3.02389 17.1358 3.02389C20.6218 1.50889 22.3458 1.8359 22.3618 1.8399C22.4368 1.5889 22.4708 1.4449 22.4708 1.4449C17.2258 -0.741102 11.2258 1.41791 11.2258 1.41791Z" fill="#FF5267"/>
<path id="Vector_31" opacity="0.4" d="M6.81779 3.85388C6.81779 3.85388 6.41879 5.40889 6.79279 5.89789C7.16679 6.38689 7.52279 6.47589 7.52279 6.47589C7.52279 6.47589 6.82679 5.27588 7.19979 4.04988L6.81779 3.85388Z" fill="white"/>
<path id="Vector_32" opacity="0.4" d="M5.57527 5.75791C5.57527 5.75791 5.06927 5.50591 5.00927 5.02191C4.94927 4.53691 4.89727 3.8099 5.30927 3.5669C5.72127 3.3249 5.91927 5.00391 5.57527 5.75791Z" fill="white"/>
<path id="Vector_33" opacity="0.4" d="M4.09085 2.8399C4.05685 2.8759 3.79885 4.2679 4.40885 4.8689C4.40885 4.8689 4.63185 4.8509 4.64085 4.6799C4.64085 4.6799 4.23785 3.4229 4.33185 3.0099L4.09085 2.8399Z" fill="white"/>
<path id="Vector_34" opacity="0.4" d="M14.6523 4.07292C14.6643 4.13492 15.3933 5.40192 15.0643 6.27592C15.0643 6.27592 15.8763 6.06691 15.9703 5.32791C16.0643 4.58991 15.7113 3.77692 15.7113 3.77692L14.6523 4.07292Z" fill="white"/>
<path id="Vector_35" opacity="0.4" d="M16.5469 5.43991C16.5469 5.43991 17.3709 5.87091 17.6059 5.43991C17.8409 5.00891 17.9939 3.95092 17.8409 3.63092C17.6879 3.31092 17.4879 3.40892 17.4879 3.40892C17.4879 3.40892 17.4649 5.16891 16.5469 5.43991Z" fill="white"/>
<path id="Vector_36" opacity="0.4" d="M18.457 2.6459C18.457 2.6459 19.35 3.1969 19.231 3.8409C19.112 4.4849 18.556 4.59891 18.556 4.59891C18.556 4.59891 19.162 3.5909 18.457 2.6459Z" fill="white"/>
<path id="Vector_37" opacity="0.05" d="M16.1316 5.2169L16.0156 4.25591L16.4946 3.28391L16.1316 5.2169Z" fill="black"/>
<path id="Vector_38" opacity="0.1" d="M13.9577 4.94089C13.9437 4.95389 14.1497 5.58089 14.1627 5.91489C14.1697 5.89889 14.0687 5.09088 14.1997 4.70288C14.1997 4.70288 14.0987 4.81589 13.9577 4.94089Z" fill="black"/>
<path id="Vector_39" opacity="0.1" d="M8.38672 4.62689C8.40072 4.65689 8.52372 5.05589 8.52372 5.61989C8.52372 5.61989 8.57272 5.04789 8.66672 4.91289L8.38672 4.62689Z" fill="black"/>
<path id="Vector_40" opacity="0.1" d="M6.68475 4.26889C6.68475 4.27289 6.56175 4.98789 6.57675 5.28189C6.57675 5.28189 6.63475 4.18289 6.46875 3.94989L6.68475 4.26889Z" fill="black"/>
<path id="Vector_41" opacity="0.1" d="M4.87066 3.16188C4.86666 3.17988 4.85766 4.31488 4.85766 4.31488C4.85766 4.31488 4.84066 3.11689 4.59766 2.94489L4.79366 3.02489L4.87066 3.16188Z" fill="black"/>
<path id="Vector_42" opacity="0.3" d="M2.08594 1.42791C2.08594 1.42791 7.86394 0.304915 11.3629 2.23491C11.3629 2.23491 17.0309 0.882911 19.4899 1.10291C19.4899 1.10291 14.5999 3.93391 10.9119 3.80791C7.22394 3.68291 3.77194 1.33291 2.08594 1.42791Z" fill="white"/>
<path id="Vector_43" opacity="0.1" d="M1.92188 4.5079C1.92188 4.5079 5.98988 9.7399 12.5689 10.1749C12.5689 10.1749 4.56188 11.9109 1.92188 4.5079Z" fill="white"/>
</g>
</svg>
