<svg width="53" height="53" viewBox="0 0 53 53" fill="none" xmlns="http://www.w3.org/2000/svg">
<g id="Group 1000001119">
<path id="Vector" d="M26.8633 52.4419C41.2227 52.4419 52.8633 40.8013 52.8633 26.4419C52.8633 12.0825 41.2227 0.441895 26.8633 0.441895C12.5038 0.441895 0.863281 12.0825 0.863281 26.4419C0.863281 40.8013 12.5038 52.4419 26.8633 52.4419Z" fill="#1386C7"/>
<g id="Group">
<path id="Vector_2" d="M44.5733 28.5225C44.5733 28.5225 41.8358 29.621 39.1345 29.621C37.5761 29.621 36.0095 29.2565 34.9602 28.9461C34.791 28.8854 34.6153 28.8312 34.4314 28.7819C33.9716 28.6308 33.6957 28.5208 33.6957 28.5208C33.4559 28.5208 33.2244 28.529 33.0027 28.5454C32.7777 28.529 32.5446 28.5208 32.3048 28.5208C32.3048 28.5208 29.5674 29.6194 26.866 29.6194C25.3076 29.6194 23.741 29.2548 22.6917 28.9445C22.5226 28.8837 22.3469 28.8295 22.163 28.7803C21.7032 28.6292 21.4273 28.5192 21.4273 28.5192C21.1875 28.5192 20.956 28.5274 20.7343 28.5438C20.5093 28.5274 20.2761 28.5192 20.0364 28.5192C20.0364 28.5192 17.299 29.6178 14.5976 29.6178C11.8963 29.6178 9.15885 28.5192 9.15885 28.5192C7.48222 29.0906 6.36719 30.6244 6.36719 33.1976C6.36719 35.7709 9.50041 37.8744 13.3282 37.8744H18.8097C19.552 37.8744 20.2679 37.794 20.9396 37.6478C21.6129 37.794 22.3272 37.8744 23.0694 37.8744H31.0781C31.8204 37.8744 32.5363 37.794 33.208 37.6478C33.8796 37.794 34.5956 37.8744 35.3378 37.8744H40.458C44.2875 37.8744 47.4191 35.7692 47.4191 33.1976C47.4191 30.6277 46.6407 29.2713 44.5733 28.5225Z" fill="#FF304A"/>
<path id="Vector_3" opacity="0.2" d="M44.27 28.9312C43.8496 29.0692 41.5095 29.7999 39.1514 29.7999C36.7933 29.7999 34.4532 29.0692 34.0329 28.9312C33.6716 28.9329 33.3481 28.9575 33.041 28.9936C32.7109 28.9559 32.3661 28.9345 32.0015 28.9312C31.5811 29.0692 29.2411 29.7999 26.883 29.7999C24.5248 29.7999 22.1848 29.0692 21.7644 28.9312C21.4031 28.9329 21.0797 28.9575 20.7726 28.9936C20.4425 28.9559 20.0976 28.9345 19.7331 28.9312C19.3127 29.0692 16.9727 29.7999 14.6146 29.7999C12.2565 29.7999 9.9164 29.0692 9.49601 28.9312C8.37935 29.3549 7.48438 31.0726 7.48438 32.3387C7.48438 34.2173 8.78987 35.7461 12.1694 35.7461H18.5294C19.3866 35.7461 20.2011 35.6476 20.9417 35.4702C21.6823 35.6476 22.4985 35.7461 23.354 35.7461H30.7978C31.655 35.7461 32.4695 35.6476 33.2101 35.4702C33.9507 35.6476 34.7669 35.7461 35.6225 35.7461H40.1777C43.5573 35.7461 46.3062 34.2173 46.3062 32.3387C46.3062 30.2515 45.853 29.685 44.27 28.9312Z" fill="white"/>
<g id="Group_2">
<path id="Vector_4" d="M20.7214 24.5633C20.4603 22.7963 19.1827 21.9868 17.4174 21.7076C16.4141 21.5483 15.4699 21.7552 14.6816 22.2068C13.8951 21.7552 12.9508 21.5483 11.9458 21.7076C10.1805 21.9868 8.90293 22.7947 8.64183 24.5633C8.42835 26.0067 9.21493 27.3943 9.4399 29.0299C9.66323 30.6655 8.99326 34.0647 11.2693 35.0483C11.7865 35.2717 12.3711 34.9121 12.3908 34.3488C12.4352 33.0778 13.2021 29.4585 14.6816 29.4585C16.1612 29.4585 16.9281 33.0778 16.9724 34.3488C16.9921 34.9121 17.5783 35.2717 18.094 35.0483C20.37 34.0631 19.6984 30.6638 19.9233 29.0299C20.1483 27.3943 20.9365 26.0067 20.7214 24.5633Z" fill="#EBEBEB"/>
<path id="Vector_5" opacity="0.1" d="M16.9705 34.3472C16.9902 34.9104 17.5764 35.27 18.0921 35.0467C20.3681 34.0614 19.6965 30.6622 19.9214 29.0283C20.1448 27.3927 20.933 26.0067 20.7195 24.5616C20.4584 22.7947 19.1808 21.9851 17.4155 21.706C16.4122 21.5467 15.4679 21.7536 14.6797 22.2052V29.4569C16.1593 29.4585 16.9245 33.0761 16.9705 34.3472Z" fill="black"/>
<g id="Group_3" opacity="0.9">
<path id="Vector_6" opacity="0.9" d="M11.768 26.2615C11.8763 25.9183 12.1063 25.6161 12.4215 25.4026C12.6022 25.0791 12.9437 24.8509 13.3411 24.8098V23.0429C13.0866 22.9706 12.8239 22.9329 12.5545 22.9329C12.4002 22.9329 12.2425 22.946 12.0849 22.9706C10.3015 23.2531 9.95342 24.0282 9.84668 24.7491C9.77935 25.2023 9.87127 25.7032 10.0174 26.2598L11.768 26.2615Z" fill="white"/>
</g>
</g>
<g id="Group_4">
<path id="Vector_7" d="M45.2644 24.5633C45.0033 22.7963 43.7257 21.9868 41.9604 21.7076C40.957 21.5483 40.0128 21.7552 39.2246 22.2068C38.438 21.7552 37.4938 21.5483 36.4888 21.7076C34.7235 21.9868 33.4459 22.7947 33.1848 24.5633C32.9713 26.0067 33.7579 27.3943 33.9829 29.0299C34.2062 30.6655 33.5362 34.0647 35.8122 35.0483C36.3295 35.2717 36.9141 34.9121 36.9338 34.3488C36.9781 33.0778 37.745 29.4585 39.2246 29.4585C40.7042 29.4585 41.471 33.0778 41.5154 34.3488C41.5351 34.9121 42.1197 35.2717 42.637 35.0483C44.9113 34.0631 44.2413 30.6638 44.4663 29.0299C44.6913 27.3943 45.4778 26.0067 45.2644 24.5633Z" fill="#EBEBEB"/>
<path id="Vector_8" opacity="0.1" d="M41.5134 34.3472C41.5331 34.9104 42.1177 35.27 42.635 35.0467C44.9093 34.0614 44.2394 30.6622 44.4643 29.0283C44.6877 27.3927 45.4759 26.0067 45.2624 24.5616C45.0013 22.7947 43.7237 21.9851 41.9584 21.706C40.9551 21.5467 40.0109 21.7536 39.2227 22.2052V29.4569C40.7022 29.4585 41.4674 33.0761 41.5134 34.3472Z" fill="black"/>
<g id="Group_5" opacity="0.9">
<path id="Vector_9" opacity="0.9" d="M36.3109 26.2615C36.4193 25.9183 36.6492 25.6161 36.9645 25.4026C37.1451 25.0791 37.4867 24.8509 37.8841 24.8098V23.0429C37.6296 22.9706 37.3668 22.9329 37.0975 22.9329C36.9432 22.9329 36.7855 22.946 36.6279 22.9706C34.8462 23.2531 34.4964 24.0282 34.3896 24.7491C34.3223 25.2023 34.4143 25.7032 34.5604 26.2598L36.3109 26.2615Z" fill="white"/>
</g>
</g>
<g id="Group_6">
<path id="Vector_10" d="M21.4135 18.7715H32.0759C32.0841 18.6598 32.0939 18.1015 32.1071 18.0013C32.3353 16.3296 33.1416 14.9092 32.9232 13.4329C32.6556 11.6249 31.3484 10.7972 29.5421 10.5115C28.5141 10.3489 27.5485 10.5608 26.7439 11.0222C25.9392 10.5608 24.972 10.3489 23.9457 10.5115C22.1393 10.7972 20.8322 11.6249 20.5645 13.4329C20.3461 14.9108 21.1524 16.3296 21.3806 18.0013C21.3954 18.0998 21.4053 18.6598 21.4135 18.7715Z" fill="#EBEBEB"/>
<path id="Vector_11" opacity="0.1" d="M32.0791 18.6467C32.0874 18.535 32.0923 18.0998 32.1054 18.0013C32.3337 16.3296 33.14 14.9092 32.9216 13.4329C32.6539 11.6249 31.3468 10.7972 29.5404 10.5115C28.5124 10.3489 27.5468 10.5608 26.7422 11.0222V18.3199L32.0791 18.6467Z" fill="black"/>
<g id="Group_7">
<path id="Vector_12" d="M29.4974 20.0738L23.9766 20.7372L24.7008 21.1346L28.8406 20.6042L29.4974 20.0738Z" fill="#999999"/>
<path id="Vector_13" d="M24.3214 20.1066L23.9766 20.7372L29.4974 20.0738L24.3214 20.1066Z" fill="#CFCFCF"/>
<path id="Vector_14" d="M28.8428 20.604L24.7029 21.1344L24.1758 21.7305L29.3026 21.0687L28.8428 20.604Z" fill="#CCCCCC"/>
<path id="Vector_15" d="M24.1758 21.7304C24.1758 21.7304 24.8326 22.1278 24.8983 22.1278L28.6441 21.5317L29.3009 21.0687L24.1758 21.7304Z" fill="#999999"/>
<path id="Vector_16" d="M25.1603 23.0572L28.5776 22.4595L29.1687 21.9964L24.3047 22.7912L25.1603 23.0572Z" fill="#999999"/>
<path id="Vector_17" d="M24.3047 22.7912L29.1687 21.9965L28.6433 21.5317C28.6433 21.5317 24.9632 22.1278 24.8975 22.1278L24.3047 22.7912Z" fill="#D6D6D6"/>
<path id="Vector_18" d="M28.6442 21.5317L24.8984 22.1278C24.9625 22.1295 28.6442 21.5317 28.6442 21.5317Z" fill="#BDBDBD"/>
<path id="Vector_19" d="M24.4844 23.7337L29.1694 22.9587L28.5783 22.4594L25.161 23.0572L24.4844 23.7337Z" fill="#D4D4D4"/>
<path id="Vector_20" d="M25.2266 24.051C25.4894 23.9853 28.3812 23.5863 28.3812 23.5863L29.1694 22.959L24.4844 23.7341L25.2266 24.051Z" fill="#999999"/>
<path id="Vector_21" d="M25.36 25.0443L28.2518 24.5812L28.7674 23.9949L24.7031 24.7142L25.36 25.0443Z" fill="#999999"/>
<path id="Vector_22" d="M24.7031 24.7141L28.7674 23.9949L28.3832 23.586C27.7263 23.852 25.2286 24.0507 25.2286 24.0507L24.7031 24.7141Z" fill="#D1D1D1"/>
<path id="Vector_23" d="M28.3811 23.586C28.3811 23.586 25.4893 23.9834 25.2266 24.0507C25.2266 24.0507 27.7227 23.852 28.3811 23.586Z" fill="#BABABA"/>
<path id="Vector_24" d="M25.689 25.974L27.988 25.5749L28.5644 25.0445L24.9648 25.7079L25.689 25.974Z" fill="#999999"/>
<path id="Vector_25" d="M24.9648 25.708L28.5644 25.0445L28.2524 24.5815L25.3606 25.0445L24.9648 25.708Z" fill="#D9D9D9"/>
<path id="Vector_26" d="M25.2266 26.6358C25.3366 26.6982 28.2924 25.992 28.2924 25.992L27.987 25.5749L25.6864 25.9723L25.2266 26.6358Z" fill="#C9C9C9"/>
<path id="Vector_27" d="M25.2266 26.6356L25.8178 26.9673L27.6602 26.5699L28.2908 25.9935C28.2908 25.9935 25.3366 26.698 25.2266 26.6356Z" fill="#999999"/>
<path id="Vector_28" d="M26.085 27.8295L27.3987 27.5634L28.0441 27.0347C27.9029 27.0593 25.4922 27.4977 25.4922 27.4977L26.085 27.8295Z" fill="#999999"/>
<path id="Vector_29" d="M25.4922 27.4978C25.4922 27.4978 27.9029 27.061 28.0441 27.0347L27.6631 26.57L25.8206 26.9674L25.4922 27.4978Z" fill="#D1D1D1"/>
</g>
<path id="Vector_30" d="M32.1011 19.7076C32.1011 19.9572 31.8975 20.1608 31.6479 20.1608H21.8673C21.6177 20.1608 21.4141 19.9572 21.4141 19.7076V18.7716C21.4141 18.522 21.6177 18.3183 21.8673 18.3183H31.6479C31.8975 18.3183 32.1011 18.522 32.1011 18.7716V19.7076Z" fill="#00B7FF"/>
<path id="Vector_31" opacity="0.1" d="M31.6456 18.3183H26.7422V20.1608H31.6456C31.8952 20.1608 32.0988 19.9572 32.0988 19.7076V18.7716C32.0988 18.522 31.8952 18.3183 31.6456 18.3183Z" fill="black"/>
<path id="Vector_32" opacity="0.9" d="M25.6232 17.1492C24.3325 17.0917 23.0828 17.0277 22.3274 16.9768C22.2355 16.581 22.1287 16.2066 22.0302 15.8601C21.7855 15.0045 21.5737 14.2656 21.6739 13.5956C21.7937 12.7893 22.1763 11.9255 24.1223 11.6168C24.2914 11.5905 24.4638 11.5758 24.6313 11.5758C24.9696 11.5758 25.3046 11.6316 25.6249 11.74V17.1492H25.6232Z" fill="white"/>
</g>
</g>
</g>
</svg>
