<svg width="18" height="19" viewBox="0 0 18 19" fill="none" xmlns="http://www.w3.org/2000/svg">
<g id="Group">
<g id="Group_2">
<path id="Vector" d="M16.9991 4.57003C16.6581 2.26703 14.9941 1.21402 12.6941 0.850023C11.3861 0.643023 10.1561 0.913025 9.13115 1.50002C8.10615 0.912025 6.87515 0.642023 5.56815 0.850023C3.26815 1.21402 1.60415 2.26703 1.26315 4.57003C0.98515 6.45103 2.01015 8.25903 2.30215 10.389C2.59415 12.519 1.72015 16.947 4.68515 18.231C5.35815 18.523 6.12115 18.052 6.14715 17.319C6.20615 15.663 7.20315 10.949 9.13215 10.949C11.0611 10.949 12.0581 15.664 12.1161 17.319C12.1421 18.052 12.9051 18.523 13.5781 18.231C16.5421 16.947 15.6691 12.519 15.9611 10.389C16.2511 8.25803 17.2771 6.45103 16.9991 4.57003Z" fill="#EBEBEB"/>
<path id="Vector_2" opacity="0.1" d="M12.1149 17.318C12.1409 18.051 12.9039 18.521 13.5769 18.23C16.5409 16.946 15.6679 12.518 15.9599 10.388C16.2519 8.25801 17.2769 6.45101 16.9989 4.56901C16.6579 2.26601 14.9939 1.21301 12.6939 0.84901C11.3859 0.64201 10.1559 0.912012 9.13086 1.49901V10.947C11.0589 10.948 12.0559 15.663 12.1149 17.318Z" fill="black"/>
<path id="Vector_3" opacity="0.9" d="M4.61876 16.05C4.11776 15.228 4.05676 13.837 4.04476 12.183C4.03976 11.456 4.03476 10.768 3.95176 10.162C3.82376 9.22605 3.57576 8.36004 3.35776 7.59604C3.05376 6.53304 2.79176 5.61605 2.90976 4.81305C3.04876 3.87305 3.50376 2.86305 5.82676 2.49505C6.03076 2.46305 6.23676 2.44604 6.43776 2.44604C6.78876 2.44604 7.13176 2.49404 7.46276 2.58904V9.79205C5.60976 11.0421 4.88376 14.275 4.61876 16.05Z" fill="white"/>
</g>
<path id="Vector_4" opacity="0.5" d="M1.56168 9.33301H16.6997C16.8047 8.87901 16.9287 8.43102 17.0527 7.99602C17.1177 7.76802 17.1827 7.54202 17.2427 7.31902C17.3097 7.07202 17.3717 6.82602 17.4257 6.58202C17.4847 6.31202 17.5287 6.06601 17.5597 5.83101C17.5957 5.56101 17.6137 5.30902 17.6157 5.06102C17.6177 4.79002 17.5997 4.52402 17.5627 4.27002C17.2167 1.93102 15.6087 0.518015 12.7827 0.070015C12.4637 0.020015 12.1397 -0.00598145 11.8217 -0.00598145C11.1067 -0.00598145 10.4047 0.121017 9.73568 0.371017C9.53068 0.448017 9.32768 0.537016 9.12968 0.637016C8.29368 0.216016 7.36968 -0.00598145 6.43768 -0.00598145C6.11968 -0.00598145 5.79668 0.020015 5.47668 0.070015C2.65068 0.518015 1.04268 1.93102 0.696681 4.27002C0.507681 5.55102 0.846681 6.73801 1.20668 7.99501C1.33168 8.43201 1.45668 8.87901 1.56168 9.33301Z" fill="#3D969E"/>
</g>
</svg>
