<svg width="26" height="11" viewBox="0 0 26 11" fill="none" xmlns="http://www.w3.org/2000/svg">
<g id="Group">
<g id="Group_2">
<g id="Group_3">
<path id="Vector" d="M9.25995 2.15695C9.10095 1.08095 8.32296 0.587948 7.24796 0.417948C6.63696 0.320948 6.06195 0.446949 5.58295 0.721949C5.10395 0.446949 4.52896 0.320948 3.91696 0.417948C2.84196 0.587948 2.06396 1.07995 1.90496 2.15695C1.77496 3.03595 2.25396 3.88095 2.39096 4.87695C2.52696 5.87195 2.11896 7.94295 3.50496 8.54195C3.81996 8.67795 4.17596 8.45895 4.18796 8.11595C4.21496 7.34195 4.68195 5.13895 5.58295 5.13895C6.48395 5.13895 6.95095 7.34295 6.97795 8.11595C6.98995 8.45895 7.34695 8.67895 7.66095 8.54195C9.04695 7.94195 8.63795 5.87195 8.77495 4.87695C8.91095 3.88095 9.38995 3.03695 9.25995 2.15695Z" fill="#EBEBEB"/>
<path id="Vector_2" opacity="0.1" d="M6.97702 8.11595C6.98902 8.45895 7.34602 8.67895 7.66002 8.54195C9.04602 7.94195 8.63702 5.87195 8.77402 4.87695C8.91002 3.88095 9.39001 3.03695 9.26001 2.15695C9.10101 1.08095 8.32302 0.587948 7.24802 0.417948C6.63702 0.320948 6.06201 0.446949 5.58301 0.721949V5.13795C6.48401 5.13895 6.95002 7.34195 6.97702 8.11595Z" fill="black"/>
<g id="Group_4" opacity="0.9">
<path id="Vector_3" opacity="0.9" d="M3.8077 3.19204C3.8737 2.98304 4.01369 2.79904 4.20569 2.66904C4.31569 2.47204 4.5237 2.33304 4.7657 2.30804V1.23204C4.6107 1.18804 4.4507 1.16504 4.2867 1.16504C4.1927 1.16504 4.0967 1.17304 4.0007 1.18804C2.9147 1.36004 2.7027 1.83204 2.6377 2.27104C2.5967 2.54704 2.6527 2.85204 2.7417 3.19104L3.8077 3.19204Z" fill="white"/>
</g>
</g>
<g id="Group_5">
<path id="Vector_4" d="M16.7316 2.15695C16.5726 1.08095 15.7947 0.587948 14.7197 0.417948C14.1087 0.320948 13.5337 0.446949 13.0537 0.721949C12.5747 0.446949 11.9997 0.320948 11.3877 0.417948C10.3127 0.587948 9.53466 1.07995 9.37566 2.15695C9.24566 3.03595 9.72465 3.88095 9.86165 4.87695C9.99765 5.87195 9.58965 7.94295 10.9757 8.54195C11.2907 8.67795 11.6466 8.45895 11.6586 8.11595C11.6856 7.34195 12.1527 5.13895 13.0537 5.13895C13.9547 5.13895 14.4217 7.34295 14.4487 8.11595C14.4607 8.45895 14.8167 8.67895 15.1317 8.54195C16.5167 7.94195 16.1087 5.87195 16.2457 4.87695C16.3817 3.88095 16.8616 3.03695 16.7316 2.15695Z" fill="#EBEBEB"/>
<path id="Vector_5" opacity="0.1" d="M14.4487 8.11595C14.4607 8.45895 14.8167 8.67895 15.1317 8.54195C16.5167 7.94195 16.1087 5.87195 16.2457 4.87695C16.3817 3.88095 16.8617 3.03695 16.7317 2.15695C16.5727 1.08095 15.7947 0.587948 14.7197 0.417948C14.1087 0.320948 13.5337 0.446949 13.0537 0.721949V5.13795C13.9547 5.13895 14.4207 7.34195 14.4487 8.11595Z" fill="black"/>
<g id="Group_6" opacity="0.9">
<path id="Vector_6" opacity="0.9" d="M11.2784 3.19204C11.3444 2.98304 11.4844 2.79904 11.6764 2.66904C11.7864 2.47204 11.9944 2.33304 12.2364 2.30804V1.23204C12.0814 1.18804 11.9214 1.16504 11.7574 1.16504C11.6634 1.16504 11.5674 1.17304 11.4714 1.18804C10.3854 1.36004 10.1734 1.83204 10.1084 2.27104C10.0674 2.54704 10.1234 2.85204 10.2124 3.19104L11.2784 3.19204Z" fill="white"/>
</g>
</g>
<g id="Group_7">
<path id="Vector_7" d="M24.2033 2.15695C24.0443 1.08095 23.2663 0.587948 22.1913 0.417948C21.5803 0.320948 21.0053 0.446949 20.5253 0.721949C20.0463 0.446949 19.4713 0.320948 18.8593 0.417948C17.7843 0.587948 17.0063 1.07995 16.8473 2.15695C16.7173 3.03595 17.1963 3.88095 17.3333 4.87695C17.4693 5.87195 17.0613 7.94295 18.4473 8.54195C18.7623 8.67795 19.1183 8.45895 19.1303 8.11595C19.1573 7.34195 19.6243 5.13895 20.5253 5.13895C21.4263 5.13895 21.8933 7.34295 21.9203 8.11595C21.9323 8.45895 22.2883 8.67895 22.6033 8.54195C23.9883 7.94195 23.5803 5.87195 23.7173 4.87695C23.8543 3.88095 24.3333 3.03695 24.2033 2.15695Z" fill="#EBEBEB"/>
<path id="Vector_8" opacity="0.1" d="M21.9204 8.11595C21.9324 8.45895 22.2884 8.67895 22.6034 8.54195C23.9884 7.94195 23.5804 5.87195 23.7174 4.87695C23.8534 3.88095 24.3334 3.03695 24.2034 2.15695C24.0444 1.08095 23.2664 0.587948 22.1914 0.417948C21.5804 0.320948 21.0054 0.446949 20.5254 0.721949V5.13795C21.4274 5.13895 21.8934 7.34195 21.9204 8.11595Z" fill="black"/>
<g id="Group_8" opacity="0.9">
<path id="Vector_9" opacity="0.9" d="M18.7511 3.19204C18.8171 2.98304 18.9571 2.79904 19.1491 2.66904C19.2591 2.47204 19.4671 2.33304 19.7091 2.30804V1.23204C19.5541 1.18804 19.3941 1.16504 19.2301 1.16504C19.1361 1.16504 19.0401 1.17304 18.9441 1.18804C17.8581 1.36004 17.6461 1.83204 17.5811 2.27104C17.5401 2.54704 17.5961 2.85204 17.6851 3.19104L18.7511 3.19204Z" fill="white"/>
</g>
</g>
</g>
<g id="Group_9">
<path id="Vector_10" d="M6.87842 3.02593C6.87842 2.73793 6.60342 2.50293 6.26642 2.50293H4.84442C4.50742 2.50293 4.23242 2.73693 4.23242 3.02593V3.24493C4.23242 3.29993 4.25142 3.35193 4.28142 3.39593C4.25142 3.44093 4.23242 3.49193 4.23242 3.54693V3.76593C4.23242 4.05393 4.50742 4.28893 4.84442 4.28893H6.26642C6.60442 4.28893 6.87842 4.05393 6.87842 3.76593V3.54693C6.87842 3.49193 6.85942 3.43993 6.82942 3.39593C6.85942 3.35093 6.87842 3.29993 6.87842 3.24493V3.02593Z" fill="#00B7FF"/>
<g id="Group_10">
<path id="Vector_11" d="M5.02289 4.46278H4.84489C4.70289 4.46278 4.58789 4.36278 4.58789 4.23878V3.55078H5.27989V4.23878C5.27989 4.36278 5.16489 4.46278 5.02289 4.46278Z" fill="#666666"/>
<path id="Vector_12" opacity="0.1" d="M4.84462 4.28576C4.79662 4.28576 4.76562 4.25776 4.76562 4.23976V3.72876H5.10162V4.23976C5.10162 4.25776 5.06961 4.28576 5.02261 4.28576H4.84462Z" fill="white"/>
<path id="Vector_13" d="M6.25337 4.46278H6.07536C5.93336 4.46278 5.81836 4.36278 5.81836 4.23878V3.55078H6.51036V4.23878C6.51036 4.36278 6.39537 4.46278 6.25337 4.46278Z" fill="#666666"/>
<path id="Vector_14" opacity="0.1" d="M6.07509 4.28576C6.02709 4.28576 5.99609 4.25776 5.99609 4.23976V3.72876H6.33209V4.23976C6.33209 4.25776 6.3001 4.28576 6.2531 4.28576H6.07509Z" fill="white"/>
<path id="Vector_15" d="M5.02289 2.32983H4.84489C4.70289 2.32983 4.58789 2.42983 4.58789 2.55383V3.24183H5.27989V2.55383C5.27989 2.42983 5.16489 2.32983 5.02289 2.32983Z" fill="#666666"/>
<path id="Vector_16" opacity="0.1" d="M4.76562 3.06381V2.55381C4.76562 2.53581 4.79762 2.50781 4.84462 2.50781H5.02261C5.07061 2.50781 5.10162 2.53581 5.10162 2.55381V3.06381H4.76562Z" fill="white"/>
<path id="Vector_17" d="M6.25337 2.32983H6.07536C5.93336 2.32983 5.81836 2.42983 5.81836 2.55383V3.24183H6.51036V2.55383C6.51036 2.42983 6.39537 2.32983 6.25337 2.32983Z" fill="#666666"/>
<path id="Vector_18" opacity="0.1" d="M5.99512 3.06381V2.55381C5.99512 2.53581 6.02713 2.50781 6.07413 2.50781H6.25212C6.30012 2.50781 6.33112 2.53581 6.33112 2.55381V3.06381H5.99512Z" fill="white"/>
</g>
<g id="Group_11">
<path id="Vector_19" d="M9.13278 3.57475H1.97879C1.88079 3.57475 1.80078 3.49475 1.80078 3.39675C1.80078 3.29875 1.87979 3.21875 1.97879 3.21875H9.13278C9.23078 3.21875 9.31079 3.29875 9.31079 3.39675C9.31079 3.49475 9.23078 3.57475 9.13278 3.57475Z" fill="#CCCCCC"/>
</g>
<path id="Vector_20" opacity="0.1" d="M1.97877 3.57473H9.13276C9.23076 3.57473 9.31077 3.49473 9.31077 3.39673H1.80177C1.80077 3.49473 1.88077 3.57473 1.97877 3.57473Z" fill="black"/>
</g>
<g id="Group_12">
<path id="Vector_21" d="M14.3501 3.02593C14.3501 2.73793 14.0751 2.50293 13.7381 2.50293H12.3161C11.9791 2.50293 11.7041 2.73693 11.7041 3.02593V3.24493C11.7041 3.29993 11.7231 3.35193 11.7531 3.39593C11.7231 3.44093 11.7041 3.49193 11.7041 3.54693V3.76593C11.7041 4.05393 11.9791 4.28893 12.3161 4.28893H13.7381C14.0761 4.28893 14.3501 4.05393 14.3501 3.76593V3.54693C14.3501 3.49193 14.3311 3.43993 14.3011 3.39593C14.3311 3.35093 14.3501 3.29993 14.3501 3.24493V3.02593Z" fill="#00B7FF"/>
<g id="Group_13">
<path id="Vector_22" d="M12.4946 4.46278H12.3166C12.1746 4.46278 12.0596 4.36278 12.0596 4.23878V3.55078H12.7516V4.23878C12.7506 4.36278 12.6356 4.46278 12.4946 4.46278Z" fill="#666666"/>
<path id="Vector_23" opacity="0.1" d="M12.3153 4.28576C12.2673 4.28576 12.2363 4.25776 12.2363 4.23976V3.72876H12.5723V4.23976C12.5723 4.25776 12.5403 4.28576 12.4933 4.28576H12.3153Z" fill="white"/>
<path id="Vector_24" d="M13.7241 4.46278H13.5461C13.4041 4.46278 13.2891 4.36278 13.2891 4.23878V3.55078H13.9811V4.23878C13.9811 4.36278 13.8661 4.46278 13.7241 4.46278Z" fill="#666666"/>
<path id="Vector_25" opacity="0.1" d="M13.5458 4.28576C13.4978 4.28576 13.4668 4.25776 13.4668 4.23976V3.72876H13.8028V4.23976C13.8028 4.25776 13.7708 4.28576 13.7238 4.28576H13.5458Z" fill="white"/>
<path id="Vector_26" d="M12.4946 2.32983H12.3166C12.1746 2.32983 12.0596 2.42983 12.0596 2.55383V3.24183H12.7516V2.55383C12.7506 2.42983 12.6356 2.32983 12.4946 2.32983Z" fill="#666666"/>
<path id="Vector_27" opacity="0.1" d="M12.2363 3.06381V2.55381C12.2363 2.53581 12.2673 2.50781 12.3153 2.50781H12.4933C12.5403 2.50781 12.5723 2.53581 12.5723 2.55381V3.06381H12.2363Z" fill="white"/>
<path id="Vector_28" d="M13.7241 2.32983H13.5461C13.4041 2.32983 13.2891 2.42983 13.2891 2.55383V3.24183H13.9811V2.55383C13.9811 2.42983 13.8661 2.32983 13.7241 2.32983Z" fill="#666666"/>
<path id="Vector_29" opacity="0.1" d="M13.4668 3.06381V2.55381C13.4668 2.53581 13.4978 2.50781 13.5458 2.50781H13.7238C13.7718 2.50781 13.8028 2.53581 13.8028 2.55381V3.06381H13.4668Z" fill="white"/>
</g>
<g id="Group_14">
<path id="Vector_30" d="M16.8749 3.57475H9.15587C9.04987 3.57475 8.96387 3.49475 8.96387 3.39675C8.96387 3.29875 9.04987 3.21875 9.15587 3.21875H16.8749C16.9809 3.21875 17.0669 3.29875 17.0669 3.39675C17.0669 3.49475 16.9809 3.57475 16.8749 3.57475Z" fill="#CCCCCC"/>
</g>
<path id="Vector_31" opacity="0.1" d="M9.18323 3.57473H16.9532C17.0602 3.57473 17.1462 3.49473 17.1462 3.39673H8.99023C8.99023 3.49473 9.07723 3.57473 9.18323 3.57473Z" fill="black"/>
</g>
<g id="Group_15">
<path id="Vector_32" d="M21.8218 3.02593C21.8218 2.73793 21.5468 2.50293 21.2098 2.50293H19.7878C19.4498 2.50293 19.1758 2.73693 19.1758 3.02593V3.24493C19.1758 3.29993 19.1948 3.35193 19.2248 3.39593C19.1948 3.44093 19.1758 3.49193 19.1758 3.54693V3.76593C19.1758 4.05393 19.4508 4.28893 19.7878 4.28893H21.2098C21.5468 4.28893 21.8218 4.05393 21.8218 3.76593V3.54693C21.8218 3.49193 21.8028 3.43993 21.7728 3.39593C21.8028 3.35093 21.8218 3.29993 21.8218 3.24493V3.02593Z" fill="#00B7FF"/>
<g id="Group_16">
<path id="Vector_33" d="M19.9662 4.46278H19.7882C19.6462 4.46278 19.5312 4.36278 19.5312 4.23878V3.55078H20.2233V4.23878C20.2233 4.36278 20.1082 4.46278 19.9662 4.46278Z" fill="#666666"/>
<path id="Vector_34" opacity="0.1" d="M19.788 4.28576C19.74 4.28576 19.709 4.25776 19.709 4.23976V3.72876H20.045V4.23976C20.045 4.25776 20.013 4.28576 19.966 4.28576H19.788Z" fill="white"/>
<path id="Vector_35" d="M21.1967 4.46278H21.0187C20.8767 4.46278 20.7617 4.36278 20.7617 4.23878V3.55078H21.4537V4.23878C21.4527 4.36278 21.3377 4.46278 21.1967 4.46278Z" fill="#666666"/>
<path id="Vector_36" opacity="0.1" d="M21.0175 4.28576C20.9695 4.28576 20.9385 4.25776 20.9385 4.23976V3.72876H21.2745V4.23976C21.2745 4.25776 21.2425 4.28576 21.1955 4.28576H21.0175Z" fill="white"/>
<path id="Vector_37" d="M19.9662 2.32983H19.7882C19.6462 2.32983 19.5312 2.42983 19.5312 2.55383V3.24183H20.2233V2.55383C20.2233 2.42983 20.1082 2.32983 19.9662 2.32983Z" fill="#666666"/>
<path id="Vector_38" opacity="0.1" d="M19.709 3.06381V2.55381C19.709 2.53581 19.74 2.50781 19.788 2.50781H19.966C20.014 2.50781 20.045 2.53581 20.045 2.55381V3.06381H19.709Z" fill="white"/>
<path id="Vector_39" d="M21.1967 2.32983H21.0187C20.8767 2.32983 20.7617 2.42983 20.7617 2.55383V3.24183H21.4537V2.55383C21.4527 2.42983 21.3377 2.32983 21.1967 2.32983Z" fill="#666666"/>
<path id="Vector_40" opacity="0.1" d="M20.9385 3.06381V2.55381C20.9385 2.53581 20.9705 2.50781 21.0175 2.50781H21.1955C21.2435 2.50781 21.2745 2.53581 21.2745 2.55381V3.06381H20.9385Z" fill="white"/>
</g>
<g id="Group_17">
<path id="Vector_41" d="M24.0761 3.57475H16.9221C16.8241 3.57475 16.7441 3.49475 16.7441 3.39675C16.7441 3.29875 16.8231 3.21875 16.9221 3.21875H24.0761C24.1741 3.21875 24.2541 3.29875 24.2541 3.39675C24.2541 3.49475 24.1741 3.57475 24.0761 3.57475Z" fill="#CCCCCC"/>
</g>
<path id="Vector_42" opacity="0.1" d="M16.9221 3.57473H24.0761C24.1741 3.57473 24.2541 3.49473 24.2541 3.39673H16.7451C16.7441 3.49473 16.8241 3.57473 16.9221 3.57473Z" fill="black"/>
</g>
<path id="Vector_43" d="M23.8451 4.36186C23.8451 4.36186 22.1781 5.03086 20.5331 5.03086C19.5841 5.03086 18.6301 4.80886 17.9911 4.61986C17.8881 4.58286 17.7811 4.54986 17.6691 4.51986C17.3881 4.42786 17.2211 4.36086 17.2211 4.36086C17.0751 4.36086 16.9341 4.36586 16.7991 4.37586C16.6621 4.36586 16.5201 4.36086 16.3741 4.36086C16.3741 4.36086 14.7071 5.02986 13.0621 5.02986C12.1131 5.02986 11.1591 4.80786 10.5201 4.61886C10.4171 4.58186 10.3101 4.54886 10.1991 4.51886C9.91808 4.42686 9.75108 4.35986 9.75108 4.35986C9.60508 4.35986 9.46407 4.36486 9.32907 4.37486C9.19207 4.36486 9.05008 4.35986 8.90408 4.35986C8.90408 4.35986 7.23707 5.02886 5.59207 5.02886C3.94707 5.02886 2.28008 4.35986 2.28008 4.35986C1.25908 4.70786 0.580078 5.64186 0.580078 7.20786C0.580078 8.77386 2.48808 10.0569 4.81908 10.0569H8.15707C8.60907 10.0569 9.04507 10.0079 9.45407 9.91786C9.86307 10.0069 10.2991 10.0569 10.7511 10.0569H15.6281C16.0801 10.0569 16.5161 10.0079 16.9251 9.91786C17.3341 10.0069 17.7701 10.0569 18.2221 10.0569H21.3401C23.6711 10.0569 25.5791 8.77486 25.5791 7.20786C25.5791 5.64086 25.1041 4.81786 23.8451 4.36186Z" fill="#FF304A"/>
<path id="Vector_44" opacity="0.2" d="M23.6588 4.61084C23.4028 4.69484 21.9768 5.13984 20.5418 5.13984C19.1058 5.13984 17.6808 4.69484 17.4248 4.61084C17.2048 4.61184 17.0078 4.62684 16.8208 4.64884C16.6198 4.62584 16.4098 4.61284 16.1878 4.61084C15.9318 4.69484 14.5068 5.13984 13.0708 5.13984C11.6348 5.13984 10.2098 4.69484 9.95381 4.61084C9.73381 4.61184 9.53682 4.62684 9.34982 4.64884C9.14882 4.62584 8.93881 4.61284 8.71681 4.61084C8.46081 4.69484 7.03482 5.13984 5.59982 5.13984C4.16382 5.13984 2.73882 4.69484 2.48282 4.61084C1.80282 4.86884 1.25781 5.91484 1.25781 6.68584C1.25781 7.82984 2.05281 8.76084 4.11081 8.76084H7.98381C8.50481 8.76084 9.00182 8.70084 9.45282 8.59284C9.90382 8.70084 10.4008 8.76084 10.9218 8.76084H15.4548C15.9758 8.76084 16.4728 8.70084 16.9238 8.59284C17.3748 8.70084 17.8718 8.76084 18.3928 8.76084H21.1668C23.2248 8.76084 24.8988 7.82984 24.8988 6.68584C24.8988 5.41484 24.6228 5.06984 23.6588 4.61084Z" fill="white"/>
</g>
</svg>
