<svg width="20" height="19" viewBox="0 0 20 19" fill="none" xmlns="http://www.w3.org/2000/svg">
<g id="Group">
<g id="Group_2">
<path id="Vector" d="M15.1026 5.20301C14.7826 3.04101 13.2196 2.05201 11.0606 1.71001C9.83265 1.51601 8.67764 1.76901 7.71464 2.32101C6.75164 1.76901 5.59664 1.51601 4.36864 1.71001C2.20964 2.05201 0.646636 3.04001 0.326636 5.20301C0.065636 6.96901 1.02863 8.66601 1.30263 10.666C1.57663 12.666 0.756634 16.823 3.53963 18.029C4.17163 18.303 4.88764 17.861 4.91164 17.173C4.96664 15.618 5.90364 11.192 7.71364 11.192C9.52464 11.192 10.4606 15.618 10.5156 17.173C10.5396 17.861 11.2556 18.303 11.8876 18.029C14.6706 16.824 13.8506 12.666 14.1246 10.666C14.3986 8.66601 15.3636 6.96901 15.1026 5.20301Z" fill="#EBEBEB"/>
<path id="Vector_2" opacity="0.1" d="M10.5169 17.172C10.5409 17.86 11.2569 18.302 11.8889 18.028C14.6719 16.823 13.8519 12.665 14.1259 10.665C14.3999 8.66504 15.3629 6.96803 15.1019 5.20203C14.7819 3.04004 13.2189 2.05104 11.0599 1.70904C9.83186 1.51504 8.67687 1.76804 7.71387 2.32004V11.19C9.52587 11.191 10.4619 15.617 10.5169 17.172Z" fill="black"/>
<path id="Vector_3" opacity="0.9" d="M3.4792 15.981C3.0082 15.209 2.95121 13.904 2.94121 12.35C2.93621 11.667 2.9322 11.022 2.8542 10.453C2.7342 9.57496 2.5012 8.76196 2.2962 8.04396C2.0112 7.04696 1.76421 6.18496 1.87621 5.43196C2.00621 4.54996 2.43421 3.60096 4.61421 3.25596C4.80621 3.22596 4.9992 3.20996 5.1882 3.20996C5.5182 3.20996 5.83921 3.25496 6.15021 3.34396V10.106C4.40921 11.279 3.7282 14.315 3.4792 15.981Z" fill="white"/>
</g>
<path id="Vector_4" opacity="0.1" d="M15.1154 6.35405L13.8714 6.11305L15.0214 4.78905C14.9504 4.49405 14.8514 4.22605 14.7314 3.97805L13.3044 5.62105L12.4124 3.03605L12.7074 2.16005C12.2434 1.96605 11.7264 1.82505 11.1674 1.73005L11.3094 2.14105L10.6714 1.71105C10.6304 1.68405 10.5864 1.66705 10.5414 1.65705C10.5014 1.65505 10.4624 1.65505 10.4234 1.65405C10.3164 1.66505 10.2154 1.71705 10.1504 1.81305C10.0344 1.98505 10.0804 2.21805 10.2514 2.33405L11.7164 3.32205L12.5944 5.86705L9.90941 5.34705L8.79841 4.08605C8.66141 3.93105 8.42441 3.91505 8.26841 4.05305C8.11241 4.19005 8.0974 4.42705 8.2354 4.58305L8.70241 5.11305L7.71441 4.92205C7.51041 4.88205 7.3144 5.01505 7.2744 5.21905C7.2354 5.42305 7.36742 5.62005 7.57142 5.65905L8.58341 5.85505L7.89141 6.19305C7.70541 6.28405 7.6274 6.50905 7.7184 6.69505C7.8024 6.86705 8.0014 6.94605 8.1774 6.88505C8.1924 6.88005 8.2064 6.87405 8.2204 6.86705L9.80842 6.09205L12.4514 6.60405L10.6584 8.66905L9.0114 9.00105C8.8094 9.04305 8.67641 9.24005 8.71741 9.44305C8.75841 9.64605 8.95641 9.77805 9.15941 9.73705L9.85241 9.59705L9.1924 10.3571C9.0564 10.5141 9.07341 10.7511 9.22941 10.8871C9.33441 10.9781 9.47541 11.0011 9.59841 10.9581C9.65841 10.9371 9.7144 10.9011 9.7594 10.8491L10.4354 10.0711L10.3824 10.8391C10.3684 11.0461 10.5244 11.2251 10.7304 11.2401C10.7824 11.2441 10.8324 11.2371 10.8784 11.2211C11.0164 11.1731 11.1204 11.0471 11.1304 10.8921L11.2534 9.12905L13.0184 7.09705L13.9104 9.68205L13.3744 11.2751C13.3084 11.4711 13.4144 11.6841 13.6104 11.7511C13.7934 11.8121 13.9854 11.7221 14.0654 11.5511C14.0744 11.2281 14.0914 10.9291 14.1274 10.6681C14.2044 10.1021 14.3374 9.56205 14.4824 9.03605L13.7294 6.85205L14.9984 7.09805C15.0494 6.84805 15.0894 6.60105 15.1154 6.35405Z" fill="black"/>
<path id="Vector_5" d="M19.0844 6.72607L18.0724 6.53007L18.7644 6.19207C18.9504 6.10107 19.0284 5.87607 18.9374 5.69007C18.8464 5.50307 18.6174 5.42807 18.4354 5.51707L16.8474 6.29207L14.2044 5.78007L15.9974 3.71507L17.6444 3.38307C17.6614 3.38007 17.6774 3.37507 17.6934 3.37007C17.8684 3.31007 17.9764 3.12807 17.9384 2.94107C17.8974 2.73807 17.6994 2.60607 17.4964 2.64707L16.8034 2.78707L17.4634 2.02707C17.5994 1.87007 17.5824 1.63307 17.4264 1.49707C17.2694 1.36107 17.0324 1.37707 16.8964 1.53407L16.2204 2.31207L16.2734 1.54407C16.2874 1.33707 16.1324 1.15807 15.9254 1.14307C15.7184 1.12907 15.5394 1.28507 15.5244 1.49107L15.4014 3.25407L13.6364 5.28607L12.7444 2.70107L13.2804 1.10807C13.3464 0.912067 13.2404 0.699067 13.0444 0.632067C12.8474 0.566067 12.6354 0.671067 12.5684 0.868067L12.3424 1.53807L12.0144 0.587067C11.9464 0.391067 11.7334 0.287067 11.5374 0.354067C11.3414 0.422067 11.2374 0.635067 11.3054 0.831067L11.6414 1.80507L11.0024 1.37507C10.8304 1.25907 10.5974 1.30407 10.4814 1.47607C10.3654 1.64807 10.4114 1.88107 10.5824 1.99707L12.0474 2.98507L12.9254 5.53007L10.2404 5.00907L9.12942 3.74807C8.99242 3.59307 8.75543 3.57707 8.59943 3.71507C8.44343 3.85207 8.42842 4.08907 8.56642 4.24507L9.03342 4.77507L8.04542 4.58307C7.84142 4.54307 7.64442 4.67707 7.60542 4.88007C7.56642 5.08307 7.69942 5.28107 7.90242 5.32007L8.91441 5.51607L8.22243 5.85407C8.03643 5.94507 7.95842 6.17007 8.04942 6.35607C8.13342 6.52807 8.33242 6.60707 8.50842 6.54607C8.52342 6.54107 8.53742 6.53507 8.55142 6.52807L10.1394 5.75307L12.7824 6.26507L10.9894 8.33007L9.34242 8.66207C9.14042 8.70407 9.00742 8.90107 9.04842 9.10407C9.08942 9.30707 9.28742 9.43907 9.49042 9.39807L10.1834 9.25807L9.52342 10.0181C9.38742 10.1741 9.40442 10.4121 9.56042 10.5481C9.66542 10.6391 9.80641 10.6621 9.92941 10.6191C9.98941 10.5981 10.0454 10.5621 10.0904 10.5101L10.7664 9.73207L10.7134 10.5001C10.6994 10.7071 10.8544 10.8861 11.0614 10.9011C11.1134 10.9051 11.1634 10.8981 11.2094 10.8811C11.3474 10.8331 11.4514 10.7071 11.4614 10.5521L11.5844 8.78907L13.3494 6.75707L14.2414 9.34307L13.7054 10.9361C13.6394 11.1321 13.7454 11.3451 13.9414 11.4121C14.1374 11.4781 14.3504 11.3731 14.4174 11.1761L14.6424 10.5061L14.9704 11.4571C15.0384 11.6531 15.2514 11.7571 15.4474 11.6901C15.6434 11.6221 15.7474 11.4091 15.6794 11.2131L15.3434 10.2381L15.9824 10.6691C16.0844 10.7381 16.2074 10.7501 16.3154 10.7131C16.3894 10.6871 16.4564 10.6381 16.5044 10.5681C16.6204 10.3961 16.5744 10.1631 16.4034 10.0471L14.9384 9.05907L14.0604 6.51407L16.7454 7.03507L17.8564 8.29607C17.9604 8.41407 18.1214 8.45107 18.2604 8.40307C18.3054 8.38807 18.3484 8.36307 18.3864 8.33007C18.5424 8.19307 18.5574 7.95607 18.4204 7.80007L17.9534 7.27007L18.9414 7.46107C19.0084 7.47407 19.0744 7.46807 19.1354 7.44807C19.2584 7.40607 19.3554 7.30107 19.3824 7.16407C19.4214 6.96207 19.2884 6.76507 19.0844 6.72607Z" fill="#00DBFF"/>
</g>
</svg>
