<svg width="16" height="17" viewBox="0 0 16 17" fill="none" xmlns="http://www.w3.org/2000/svg">
<g id="location_on_FILL0_wght400_GRAD0_opsz24">
<path id="Vector" d="M8.00008 8C8.36675 8 8.68064 7.86945 8.94175 7.60834C9.20286 7.34722 9.33342 7.03334 9.33342 6.66667C9.33342 6.3 9.20286 5.98611 8.94175 5.725C8.68064 5.46389 8.36675 5.33334 8.00008 5.33334C7.63341 5.33334 7.31953 5.46389 7.05841 5.725C6.7973 5.98611 6.66675 6.3 6.66675 6.66667C6.66675 7.03334 6.7973 7.34722 7.05841 7.60834C7.31953 7.86945 7.63341 8 8.00008 8ZM8.00008 12.9C9.35564 11.6556 10.3612 10.525 11.0167 9.50834C11.6723 8.49167 12.0001 7.58889 12.0001 6.8C12.0001 5.58889 11.614 4.59722 10.8417 3.825C10.0695 3.05278 9.1223 2.66667 8.00008 2.66667C6.87786 2.66667 5.93064 3.05278 5.15841 3.825C4.38619 4.59722 4.00008 5.58889 4.00008 6.8C4.00008 7.58889 4.32786 8.49167 4.98341 9.50834C5.63897 10.525 6.64453 11.6556 8.00008 12.9ZM8.00008 14.6667C6.21119 13.1444 4.87508 11.7306 3.99175 10.425C3.10841 9.11945 2.66675 7.91111 2.66675 6.8C2.66675 5.13334 3.20286 3.80556 4.27508 2.81667C5.3473 1.82778 6.58897 1.33334 8.00008 1.33334C9.41119 1.33334 10.6529 1.82778 11.7251 2.81667C12.7973 3.80556 13.3334 5.13334 13.3334 6.8C13.3334 7.91111 12.8917 9.11945 12.0084 10.425C11.1251 11.7306 9.78897 13.1444 8.00008 14.6667Z" fill="#F8F387"/>
</g>
</svg>
