<svg width="133" height="39" viewBox="0 0 133 39" fill="none" xmlns="http://www.w3.org/2000/svg">
<path d="M2.90494 31.384C2.3211 31.384 1.80847 31.2556 1.36703 30.9989C0.939833 30.7422 0.605195 30.3714 0.363117 29.8865C0.121039 29.4015 0 28.8239 0 28.1536V11.7877C0 11.1031 0.121039 10.5255 0.363117 10.0549C0.605195 9.56994 0.939833 9.19912 1.36703 8.9424C1.80847 8.68568 2.31398 8.55732 2.88358 8.55732C3.46741 8.55732 3.97293 8.69281 4.40013 8.9638C4.84156 9.22052 5.1762 9.5842 5.40404 10.0549C5.64612 10.5255 5.76716 11.1031 5.76716 11.7877V20.6231H0.790314V19.2754H4.95548L4.20789 20.4092V11.6594C4.20789 11.3028 4.15093 11.0033 4.03701 10.7608C3.92309 10.5184 3.76645 10.333 3.56709 10.2046C3.38197 10.0762 3.15414 10.0121 2.88358 10.0121C2.6415 10.0121 2.41366 10.0762 2.20006 10.2046C2.0007 10.333 1.84407 10.5184 1.73015 10.7608C1.63047 11.0033 1.58063 11.3028 1.58063 11.6594V28.3033C1.58063 28.6599 1.63047 28.9594 1.73015 29.2019C1.84407 29.4443 2.0007 29.6297 2.20006 29.7581C2.41366 29.8864 2.64862 29.9506 2.90494 29.9506C3.16126 29.9506 3.38909 29.8936 3.58845 29.7795C3.78781 29.6511 3.94445 29.4657 4.05837 29.2233C4.17229 28.9665 4.22925 28.6599 4.22925 28.3033V23.4257H5.76716V28.1536C5.76716 28.6528 5.69596 29.102 5.55356 29.5014C5.4254 29.9007 5.23316 30.243 4.97684 30.5282C4.72052 30.8135 4.41437 31.0274 4.05837 31.17C3.71661 31.3127 3.33213 31.384 2.90494 31.384Z" fill="white"/>
<path d="M9.07622 31.2556V0H10.6355V31.2556H9.07622Z" fill="white"/>
<path d="M14.1368 31.2556V8.70708H15.6961V31.2556H14.1368ZM14.9271 6.43939C14.5853 6.43939 14.2934 6.33242 14.0514 6.11849C13.8235 5.89029 13.7096 5.61218 13.7096 5.28415C13.7096 4.95612 13.8235 4.68513 14.0514 4.4712C14.2934 4.24301 14.5853 4.12891 14.9271 4.12891C15.2546 4.12891 15.5323 4.24301 15.7601 4.4712C16.0022 4.68513 16.1233 4.95612 16.1233 5.28415C16.1233 5.61218 16.0022 5.89029 15.7601 6.11849C15.5323 6.33242 15.2546 6.43939 14.9271 6.43939Z" fill="white"/>
<path d="M21.3547 31.384C20.8848 31.384 20.4718 31.2699 20.1158 31.0417C19.7598 30.7992 19.4822 30.4569 19.2828 30.0148C19.0834 29.5727 18.9838 29.0307 18.9838 28.3889V11.5738C18.9838 10.932 19.0834 10.39 19.2828 9.94789C19.4822 9.50576 19.7598 9.16347 20.1158 8.92101C20.4718 8.67855 20.8848 8.55732 21.3547 8.55732C21.6965 8.55732 21.9884 8.6215 22.2305 8.74986C22.4868 8.86396 22.7004 9.02084 22.8713 9.22052C23.0421 9.42019 23.1845 9.63412 23.2985 9.86231H23.3412V0H24.9218V31.2556H23.3412V30.1004H23.2985C23.1988 30.3428 23.0635 30.5639 22.8926 30.7636C22.7217 30.949 22.5081 31.0987 22.2518 31.2128C21.9955 31.3269 21.6965 31.384 21.3547 31.384ZM21.9528 29.9292C22.2233 29.9292 22.4654 29.8651 22.679 29.7367C22.8926 29.6083 23.0564 29.4229 23.1703 29.1805C23.2842 28.9237 23.3412 28.61 23.3412 28.2392V11.7235C23.3412 11.3527 23.2842 11.0461 23.1703 10.8036C23.0564 10.5469 22.8926 10.3544 22.679 10.226C22.4654 10.0976 22.2233 10.0335 21.9528 10.0335C21.6822 10.0335 21.4401 10.0976 21.2265 10.226C21.0272 10.3544 20.8634 10.5469 20.7353 10.8036C20.6214 11.0461 20.5644 11.3527 20.5644 11.7235V28.2392C20.5644 28.61 20.6214 28.9237 20.7353 29.1805C20.8634 29.4229 21.0272 29.6083 21.2265 29.7367C21.4401 29.8651 21.6822 29.9292 21.9528 29.9292Z" fill="white"/>
<path d="M30.2814 31.384C29.8257 31.384 29.4199 31.2841 29.0639 31.0845C28.7221 30.8705 28.4516 30.5639 28.2522 30.1646C28.0671 29.751 27.9745 29.2447 27.9745 28.6456V21.5003C27.9745 20.8727 28.0956 20.345 28.3377 19.9172C28.594 19.475 28.9642 19.1327 29.4484 18.8903C29.9468 18.6336 30.5662 18.4696 31.3067 18.3982L33.0155 18.2271V19.5749L31.4776 19.746C30.8225 19.8031 30.3384 19.9742 30.0251 20.2595C29.7261 20.5447 29.5765 20.944 29.5765 21.4575V28.4959C29.5765 28.9808 29.6905 29.3445 29.9183 29.5869C30.1461 29.8294 30.4665 29.9506 30.8795 29.9506C31.15 29.9506 31.385 29.8936 31.5844 29.7795C31.798 29.6511 31.9546 29.4657 32.0543 29.2233C32.1682 28.9808 32.2252 28.6956 32.2252 28.3675V11.5524C32.2252 11.0675 32.1112 10.6895 31.8834 10.4185C31.6556 10.1476 31.3423 10.0121 30.9436 10.0121C30.5448 10.0121 30.2316 10.1476 30.0037 10.4185C29.7901 10.6895 29.6833 11.0675 29.6833 11.5524V16.7724H28.1241V11.6594C28.1241 11.0318 28.238 10.4899 28.4658 10.0335C28.7079 9.56281 29.0425 9.19912 29.4697 8.9424C29.8969 8.68568 30.3953 8.55732 30.9649 8.55732C31.5488 8.55732 32.0472 8.68568 32.4601 8.9424C32.8873 9.19912 33.2148 9.56281 33.4427 10.0335C33.6705 10.4899 33.7844 11.0389 33.7844 11.6807V31.2556H32.2252V30.1218H32.1611C32.0472 30.3928 31.8976 30.6281 31.7125 30.8278C31.5416 31.0132 31.328 31.1558 31.0717 31.2556C30.8296 31.3412 30.5662 31.384 30.2814 31.384Z" fill="white"/>
<path d="M43.991 31.384C43.5211 31.384 43.1081 31.2699 42.7521 31.0417C42.3961 30.7992 42.1185 30.4569 41.9191 30.0148C41.7197 29.5727 41.6201 29.0307 41.6201 28.3889V11.5738C41.6201 10.932 41.7197 10.39 41.9191 9.94789C42.1185 9.50576 42.3961 9.16347 42.7521 8.92101C43.1081 8.67855 43.5211 8.55732 43.991 8.55732C44.3328 8.55732 44.6247 8.6215 44.8668 8.74986C45.1231 8.86396 45.3367 9.02084 45.5076 9.22052C45.6784 9.42019 45.8208 9.63412 45.9347 9.86231H45.9775V0H47.5581V31.2556H45.9775V30.1004H45.9347C45.8351 30.3428 45.6998 30.5639 45.5289 30.7636C45.358 30.949 45.1444 31.0987 44.8881 31.2128C44.6318 31.3269 44.3328 31.384 43.991 31.384ZM44.5891 29.9292C44.8596 29.9292 45.1017 29.8651 45.3153 29.7367C45.5289 29.6083 45.6927 29.4229 45.8066 29.1805C45.9205 28.9237 45.9775 28.61 45.9775 28.2392V11.7235C45.9775 11.3527 45.9205 11.0461 45.8066 10.8036C45.6927 10.5469 45.5289 10.3544 45.3153 10.226C45.1017 10.0976 44.8596 10.0335 44.5891 10.0335C44.3185 10.0335 44.0764 10.0976 43.8628 10.226C43.6635 10.3544 43.4997 10.5469 43.3716 10.8036C43.2577 11.0461 43.2007 11.3527 43.2007 11.7235V28.2392C43.2007 28.61 43.2577 28.9237 43.3716 29.1805C43.4997 29.4229 43.6635 29.6083 43.8628 29.7367C44.0764 29.8651 44.3185 29.9292 44.5891 29.9292Z" fill="white"/>
<path d="M53.7294 31.384C53.1455 31.384 52.6329 31.2556 52.1915 30.9989C51.7643 30.7422 51.4296 30.3714 51.1876 29.8865C50.9455 29.4015 50.8244 28.8239 50.8244 28.1536V11.7877C50.8244 11.1031 50.9455 10.5255 51.1876 10.0549C51.4296 9.56994 51.7643 9.19912 52.1915 8.9424C52.6329 8.68568 53.1384 8.55732 53.708 8.55732C54.2919 8.55732 54.7974 8.69281 55.2246 8.9638C55.666 9.22052 56.0006 9.5842 56.2285 10.0549C56.4706 10.5255 56.5916 11.1031 56.5916 11.7877V20.6231H51.6148V19.2754H55.7799L55.0323 20.4092V11.6594C55.0323 11.3028 54.9754 11.0033 54.8615 10.7608C54.7475 10.5184 54.5909 10.333 54.3915 10.2046C54.2064 10.0762 53.9786 10.0121 53.708 10.0121C53.4659 10.0121 53.2381 10.0762 53.0245 10.2046C52.8251 10.333 52.6685 10.5184 52.5546 10.7608C52.4549 11.0033 52.4051 11.3028 52.4051 11.6594V28.3033C52.4051 28.6599 52.4549 28.9594 52.5546 29.2019C52.6685 29.4443 52.8251 29.6297 53.0245 29.7581C53.2381 29.8864 53.4731 29.9506 53.7294 29.9506C53.9857 29.9506 54.2135 29.8936 54.4129 29.7795C54.6123 29.6511 54.7689 29.4657 54.8828 29.2233C54.9967 28.9665 55.0537 28.6599 55.0537 28.3033V23.4257H56.5916V28.1536C56.5916 28.6528 56.5204 29.102 56.378 29.5014C56.2498 29.9007 56.0576 30.243 55.8013 30.5282C55.545 30.8135 55.2388 31.0274 54.8828 31.17C54.5411 31.3127 54.1566 31.384 53.7294 31.384Z" fill="white"/>
<path d="M59.7725 31.2556V8.70708H61.3318V9.92649H61.3959C61.5525 9.54142 61.8017 9.22052 62.1434 8.9638C62.4852 8.69281 62.8982 8.55732 63.3823 8.55732C64.1086 8.55732 64.671 8.81404 65.0697 9.32748C65.4685 9.82666 65.6678 10.5469 65.6678 11.4882V31.2556H64.1086V11.6594C64.1086 11.1174 63.9946 10.7109 63.7668 10.4399C63.539 10.169 63.2114 10.0335 62.7842 10.0335C62.471 10.0335 62.2075 10.1119 61.9939 10.2688C61.7803 10.4257 61.6166 10.6396 61.5026 10.9106C61.3887 11.1673 61.3318 11.4739 61.3318 11.8305V31.2556H59.7725Z" fill="white"/>
<path d="M71.8818 31.3198C71.0274 31.3198 70.3866 31.1059 69.9594 30.678C69.5465 30.2359 69.34 29.5869 69.34 28.7312V10.119H68.3575V8.70708H69.34V2.63138H70.9206V8.70708H72.3731V10.119H70.9206V28.6456C70.9206 29.0735 71.0132 29.3944 71.1983 29.6083C71.3834 29.808 71.6753 29.9078 72.0741 29.9078C72.131 29.9078 72.1809 29.9078 72.2236 29.9078C72.2805 29.9078 72.3304 29.9007 72.3731 29.8865V31.277C72.3019 31.277 72.2236 31.2841 72.1381 31.2984C72.0669 31.3127 71.9815 31.3198 71.8818 31.3198Z" fill="white"/>
<path d="M76.9638 31.384C76.5081 31.384 76.1022 31.2841 75.7462 31.0845C75.4045 30.8705 75.1339 30.5639 74.9346 30.1646C74.7495 29.751 74.6569 29.2447 74.6569 28.6456V21.5003C74.6569 20.8727 74.7779 20.345 75.02 19.9172C75.2763 19.475 75.6466 19.1327 76.1307 18.8903C76.6291 18.6336 77.2486 18.4696 77.989 18.3982L79.6978 18.2271V19.5749L78.1599 19.746C77.5049 19.8031 77.0207 19.9742 76.7074 20.2595C76.4084 20.5447 76.2589 20.944 76.2589 21.4575V28.4959C76.2589 28.9808 76.3728 29.3445 76.6006 29.5869C76.8285 29.8294 77.1489 29.9506 77.5618 29.9506C77.8324 29.9506 78.0673 29.8936 78.2667 29.7795C78.4803 29.6511 78.6369 29.4657 78.7366 29.2233C78.8505 28.9808 78.9075 28.6956 78.9075 28.3675V11.5524C78.9075 11.0675 78.7936 10.6895 78.5657 10.4185C78.3379 10.1476 78.0246 10.0121 77.6259 10.0121C77.2272 10.0121 76.9139 10.1476 76.6861 10.4185C76.4725 10.6895 76.3657 11.0675 76.3657 11.5524V16.7724H74.8064V11.6594C74.8064 11.0318 74.9203 10.4899 75.1482 10.0335C75.3902 9.56281 75.7249 9.19912 76.1521 8.9424C76.5793 8.68568 77.0777 8.55732 77.6473 8.55732C78.2311 8.55732 78.7295 8.68568 79.1425 8.9424C79.5697 9.19912 79.8972 9.56281 80.125 10.0335C80.3528 10.4899 80.4668 11.0389 80.4668 11.6807V31.2556H78.9075V30.1218H78.8434C78.7295 30.3928 78.58 30.6281 78.3949 30.8278C78.224 31.0132 78.0104 31.1558 77.7541 31.2556C77.512 31.3412 77.2486 31.384 76.9638 31.384Z" fill="white"/>
<path d="M83.8613 31.2556V0H85.4205V31.2556H83.8613Z" fill="white"/>
<path d="M96.4388 39C95.855 39 95.3423 38.8788 94.9009 38.6363C94.4737 38.3939 94.1391 38.0516 93.897 37.6094C93.6691 37.1673 93.5552 36.6396 93.5552 36.0263V32.8815H95.0931V36.1333C95.0931 36.5754 95.2142 36.9248 95.4562 37.1816C95.6983 37.4383 96.0258 37.5666 96.4388 37.5666C96.8518 37.5666 97.1721 37.4312 97.4 37.1602C97.6421 36.8892 97.7631 36.5041 97.7631 36.0049V30.0576H97.699C97.5993 30.3001 97.4569 30.5211 97.2718 30.7208C97.1009 30.9062 96.8874 31.056 96.631 31.17C96.389 31.2841 96.097 31.3412 95.7553 31.3412C95.2854 31.3412 94.8724 31.2271 94.5164 30.9989C94.1604 30.7564 93.8827 30.4142 93.6834 29.972C93.484 29.5156 93.3843 28.9665 93.3843 28.3247V11.5738C93.3843 10.932 93.484 10.39 93.6834 9.94789C93.8827 9.50576 94.1604 9.16347 94.5164 8.92101C94.8724 8.67855 95.2854 8.55732 95.7553 8.55732C96.097 8.55732 96.3961 8.6215 96.6524 8.74986C96.9087 8.86396 97.1152 9.02084 97.2718 9.22052C97.4427 9.40592 97.5851 9.62699 97.699 9.88371H97.7631V8.70708H99.3224V35.8766C99.3224 36.5184 99.2013 37.0746 98.9593 37.5453C98.7314 38.0159 98.3968 38.3725 97.9553 38.6149C97.5281 38.8716 97.0226 39 96.4388 39ZM96.3534 29.9078C96.6239 29.9078 96.866 29.8437 97.0796 29.7153C97.2932 29.5869 97.4569 29.4015 97.5709 29.1591C97.6848 28.9024 97.7417 28.5886 97.7417 28.2178V11.7235C97.7417 11.3527 97.6848 11.0461 97.5709 10.8036C97.4569 10.5469 97.2932 10.3544 97.0796 10.226C96.866 10.0976 96.6239 10.0335 96.3534 10.0335C96.0828 10.0335 95.8407 10.0976 95.6271 10.226C95.4278 10.3544 95.264 10.5469 95.1358 10.8036C95.0219 11.0461 94.965 11.3527 94.965 11.7235V28.2178C94.965 28.5886 95.0219 28.9024 95.1358 29.1591C95.264 29.4015 95.4278 29.5869 95.6271 29.7153C95.8407 29.8437 96.0828 29.9078 96.3534 29.9078Z" fill="white"/>
<path d="M102.696 31.2556V8.70708H104.276V10.1832H104.34C104.483 9.65551 104.71 9.27043 105.024 9.02798C105.351 8.77126 105.75 8.6429 106.22 8.6429C106.334 8.6429 106.426 8.65716 106.498 8.68568C106.583 8.69995 106.647 8.71421 106.69 8.72847V10.3544C106.619 10.3258 106.54 10.3044 106.455 10.2902C106.369 10.2759 106.277 10.2688 106.177 10.2688C105.75 10.2688 105.394 10.3686 105.109 10.5683C104.839 10.768 104.632 11.0603 104.49 11.4454C104.347 11.8305 104.276 12.3012 104.276 12.8574V31.2556H102.696Z" fill="white"/>
<path d="M111.665 31.384C111.095 31.384 110.583 31.2628 110.127 31.0203C109.686 30.7636 109.33 30.3928 109.059 29.9078C108.803 29.4229 108.675 28.831 108.675 28.1322V11.8305C108.675 11.1317 108.803 10.5398 109.059 10.0549C109.33 9.56994 109.686 9.19912 110.127 8.9424C110.583 8.68568 111.095 8.55732 111.665 8.55732C112.249 8.55732 112.761 8.68568 113.203 8.9424C113.659 9.19912 114.015 9.56994 114.271 10.0549C114.541 10.5398 114.677 11.1317 114.677 11.8305V28.1322C114.677 28.831 114.541 29.4229 114.271 29.9078C114.015 30.3928 113.659 30.7636 113.203 31.0203C112.761 31.2628 112.249 31.384 111.665 31.384ZM111.665 29.9292C111.964 29.9292 112.213 29.8651 112.413 29.7367C112.626 29.5941 112.79 29.4015 112.904 29.1591C113.032 28.9024 113.096 28.6028 113.096 28.2606V11.7021C113.096 11.3456 113.032 11.0461 112.904 10.8036C112.79 10.5469 112.626 10.3544 112.413 10.226C112.213 10.0976 111.964 10.0335 111.665 10.0335C111.38 10.0335 111.131 10.0976 110.917 10.226C110.718 10.3544 110.561 10.5469 110.447 10.8036C110.334 11.0461 110.277 11.3456 110.277 11.7021V28.2606C110.277 28.6028 110.334 28.9024 110.447 29.1591C110.561 29.4015 110.718 29.5941 110.917 29.7367C111.131 29.8651 111.38 29.9292 111.665 29.9292Z" fill="white"/>
<path d="M120.122 31.4054C119.609 31.4054 119.182 31.2984 118.84 31.0845C118.498 30.8563 118.242 30.5282 118.071 30.1004C117.9 29.6725 117.815 29.1591 117.815 28.5601V8.70708H119.395V28.4103C119.395 28.9095 119.502 29.2946 119.716 29.5655C119.944 29.8223 120.278 29.9506 120.72 29.9506C120.962 29.9506 121.168 29.915 121.339 29.8437C121.51 29.7581 121.66 29.6369 121.788 29.48C121.916 29.3231 122.009 29.1377 122.065 28.9237C122.122 28.7098 122.151 28.4745 122.151 28.2178V8.70708H123.732V31.2556H122.151V30.1004H122.108C121.994 30.3571 121.845 30.5853 121.66 30.785C121.475 30.9846 121.247 31.1415 120.976 31.2556C120.72 31.3555 120.435 31.4054 120.122 31.4054Z" fill="white"/>
<path d="M127.062 38.8502V8.70708H128.643V9.88371H128.685C128.799 9.62699 128.935 9.40592 129.091 9.22052C129.262 9.02084 129.476 8.86396 129.732 8.74986C129.988 8.6215 130.28 8.55732 130.608 8.55732C131.106 8.55732 131.526 8.67855 131.868 8.92101C132.224 9.16347 132.502 9.50576 132.701 9.94789C132.9 10.39 133 10.932 133 11.5738V28.3889C133 29.0307 132.9 29.5727 132.701 30.0148C132.502 30.4569 132.224 30.7992 131.868 31.0417C131.526 31.2699 131.106 31.384 130.608 31.384C130.28 31.384 129.988 31.3269 129.732 31.2128C129.49 31.0987 129.283 30.949 129.113 30.7636C128.942 30.5639 128.799 30.3428 128.685 30.1004H128.643V38.8502H127.062ZM130.01 29.9292C130.294 29.9292 130.536 29.8651 130.736 29.7367C130.949 29.6083 131.113 29.4229 131.227 29.1805C131.355 28.9237 131.419 28.61 131.419 28.2392V11.7235C131.419 11.3527 131.355 11.0461 131.227 10.8036C131.113 10.5469 130.949 10.3544 130.736 10.226C130.536 10.0976 130.294 10.0335 130.01 10.0335C129.753 10.0335 129.518 10.0976 129.305 10.226C129.091 10.3544 128.927 10.5469 128.813 10.8036C128.7 11.0461 128.643 11.3527 128.643 11.7235V28.2392C128.643 28.61 128.7 28.9237 128.813 29.1805C128.927 29.4229 129.091 29.6083 129.305 29.7367C129.518 29.8651 129.753 29.9292 130.01 29.9292Z" fill="white"/>
</svg>
