<svg width="16" height="17" viewBox="0 0 16 17" fill="none" xmlns="http://www.w3.org/2000/svg">
<g id="location_on_FILL0_wght400_GRAD0_opsz24">
<path id="Vector" d="M8.00033 7.96403C8.36699 7.96403 8.68088 7.83347 8.94199 7.57236C9.2031 7.31125 9.33366 6.99736 9.33366 6.6307C9.33366 6.26403 9.2031 5.95014 8.94199 5.68903C8.68088 5.42792 8.36699 5.29736 8.00033 5.29736C7.63366 5.29736 7.31977 5.42792 7.05866 5.68903C6.79755 5.95014 6.66699 6.26403 6.66699 6.6307C6.66699 6.99736 6.79755 7.31125 7.05866 7.57236C7.31977 7.83347 7.63366 7.96403 8.00033 7.96403ZM8.00033 12.864C9.35588 11.6196 10.3614 10.489 11.017 9.47236C11.6725 8.4557 12.0003 7.55292 12.0003 6.76403C12.0003 5.55292 11.6142 4.56125 10.842 3.78903C10.0698 3.01681 9.12255 2.6307 8.00033 2.6307C6.8781 2.6307 5.93088 3.01681 5.15866 3.78903C4.38644 4.56125 4.00033 5.55292 4.00033 6.76403C4.00033 7.55292 4.3281 8.4557 4.98366 9.47236C5.63921 10.489 6.64477 11.6196 8.00033 12.864ZM8.00033 14.6307C6.21144 13.1085 4.87533 11.6946 3.99199 10.389C3.10866 9.08347 2.66699 7.87514 2.66699 6.76403C2.66699 5.09736 3.2031 3.76959 4.27533 2.7807C5.34755 1.79181 6.58921 1.29736 8.00033 1.29736C9.41144 1.29736 10.6531 1.79181 11.7253 2.7807C12.7975 3.76959 13.3337 5.09736 13.3337 6.76403C13.3337 7.87514 12.892 9.08347 12.0087 10.389C11.1253 11.6946 9.78921 13.1085 8.00033 14.6307Z" fill="#F8F387"/>
</g>
</svg>
