<svg width="478" height="370" viewBox="0 0 478 370" fill="none" xmlns="http://www.w3.org/2000/svg">
<g clip-path="url(#clip0_520_80104)">
<path d="M294.142 167.41C220.161 134.412 147.616 143.36 120.591 151.959C193.838 99.844 261.141 117.906 328.841 148.103C400.465 180.049 446.264 177.288 465.292 168.745C404.249 215.434 386.618 208.657 294.142 167.41Z" fill="#BBE2F8"/>
<path d="M293.204 132.964C214.118 115.428 144.829 138.705 120.07 152.535C181.414 86.8235 250.97 91.0604 323.341 107.107C399.907 124.084 444.229 112.218 461.164 100.043C410.691 157.997 392.062 154.883 293.204 132.964Z" fill="#F8F387"/>
<path d="M286.662 98.2752C205.668 96.8224 142.394 133.417 120.881 151.896C167.928 75.2948 236.935 65.6109 311.053 66.9404C389.466 68.3469 430.541 47.9022 444.716 32.6012C406.78 99.437 387.904 100.091 286.662 98.2752Z" fill="#1386C7"/>
</g>
<path d="M21.6217 268.37C19.59 268.37 17.806 267.924 16.2699 267.032C14.7832 266.14 13.6187 264.851 12.7763 263.166C11.9339 261.482 11.5127 259.475 11.5127 257.146V200.283C11.5127 197.904 11.9339 195.897 12.7763 194.262C13.6187 192.577 14.7832 191.289 16.2699 190.397C17.806 189.505 19.5652 189.059 21.5473 189.059C23.579 189.059 25.3382 189.529 26.8248 190.471C28.361 191.363 29.5255 192.627 30.3184 194.262C31.1608 195.897 31.582 197.904 31.582 200.283V230.981H14.2629V226.298H28.7574L26.1558 230.238V199.837C26.1558 198.598 25.9576 197.557 25.5612 196.715C25.1648 195.872 24.6197 195.228 23.9259 194.782C23.2817 194.336 22.4889 194.113 21.5473 194.113C20.7049 194.113 19.9121 194.336 19.1688 194.782C18.475 195.228 17.9299 195.872 17.5335 196.715C17.1866 197.557 17.0132 198.598 17.0132 199.837V257.666C17.0132 258.905 17.1866 259.945 17.5335 260.788C17.9299 261.63 18.475 262.274 19.1688 262.72C19.9121 263.166 20.7297 263.389 21.6217 263.389C22.5136 263.389 23.3065 263.191 24.0003 262.795C24.694 262.349 25.2391 261.705 25.6355 260.862C26.032 259.97 26.2302 258.905 26.2302 257.666V240.719H31.582V257.146C31.582 258.88 31.3342 260.441 30.8387 261.828C30.3927 263.216 29.7237 264.405 28.8318 265.396C27.9398 266.387 26.8744 267.131 25.6355 267.626C24.4462 268.122 23.1083 268.37 21.6217 268.37Z" fill="#1386C7"/>
<path d="M43.0973 267.924V159.326H48.5234V267.924H43.0973Z" fill="#1386C7"/>
<path d="M60.7077 267.924V189.579H66.1339V267.924H60.7077ZM63.458 181.7C62.2687 181.7 61.2528 181.328 60.4104 180.585C59.6176 179.792 59.2211 178.826 59.2211 177.686C59.2211 176.546 59.6176 175.605 60.4104 174.862C61.2528 174.069 62.2687 173.672 63.458 173.672C64.5977 173.672 65.564 174.069 66.3569 174.862C67.1993 175.605 67.6205 176.546 67.6205 177.686C67.6205 178.826 67.1993 179.792 66.3569 180.585C65.564 181.328 64.5977 181.7 63.458 181.7Z" fill="#1386C7"/>
<path d="M85.8256 268.37C84.1903 268.37 82.7532 267.973 81.5144 267.18C80.2755 266.338 79.3092 265.149 78.6155 263.612C77.9217 262.076 77.5749 260.193 77.5749 257.963V199.539C77.5749 197.309 77.9217 195.426 78.6155 193.89C79.3092 192.354 80.2755 191.165 81.5144 190.322C82.7532 189.48 84.1903 189.059 85.8256 189.059C87.0149 189.059 88.0307 189.282 88.8731 189.728C89.7651 190.124 90.5084 190.669 91.1031 191.363C91.6977 192.057 92.1932 192.8 92.5897 193.593H92.7383V159.326H98.2388V267.924H92.7383V263.91H92.5897C92.2428 264.752 91.772 265.52 91.1774 266.214C90.5827 266.858 89.8394 267.379 88.9475 267.775C88.0555 268.171 87.0149 268.37 85.8256 268.37ZM87.9068 263.315C88.8484 263.315 89.6908 263.092 90.4341 262.646C91.1774 262.2 91.7473 261.556 92.1437 260.714C92.5401 259.822 92.7383 258.731 92.7383 257.443V200.06C92.7383 198.771 92.5401 197.706 92.1437 196.863C91.7473 195.971 91.1774 195.302 90.4341 194.857C89.6908 194.411 88.8484 194.188 87.9068 194.188C86.9653 194.188 86.1229 194.411 85.3796 194.857C84.6858 195.302 84.116 195.971 83.67 196.863C83.2736 197.706 83.0753 198.771 83.0753 200.06V257.443C83.0753 258.731 83.2736 259.822 83.67 260.714C84.116 261.556 84.6858 262.2 85.3796 262.646C86.1229 263.092 86.9653 263.315 87.9068 263.315Z" fill="#1386C7"/>
<path d="M116.89 268.37C115.304 268.37 113.892 268.023 112.653 267.329C111.464 266.586 110.522 265.52 109.828 264.133C109.184 262.696 108.862 260.937 108.862 258.855V234.029C108.862 231.848 109.283 230.015 110.126 228.528C111.018 226.992 112.306 225.803 113.991 224.96C115.725 224.068 117.881 223.499 120.458 223.251L126.404 222.656V227.339L121.052 227.934C118.773 228.132 117.088 228.727 115.998 229.718C114.957 230.709 114.437 232.096 114.437 233.88V258.335C114.437 260.02 114.833 261.283 115.626 262.126C116.419 262.968 117.534 263.389 118.971 263.389C119.913 263.389 120.73 263.191 121.424 262.795C122.167 262.349 122.712 261.705 123.059 260.862C123.456 260.02 123.654 259.029 123.654 257.889V199.465C123.654 197.78 123.258 196.467 122.465 195.525C121.672 194.584 120.582 194.113 119.194 194.113C117.807 194.113 116.716 194.584 115.924 195.525C115.18 196.467 114.809 197.78 114.809 199.465V217.602H109.382V199.837C109.382 197.656 109.779 195.773 110.572 194.188C111.414 192.552 112.579 191.289 114.065 190.397C115.552 189.505 117.286 189.059 119.268 189.059C121.3 189.059 123.035 189.505 124.472 190.397C125.958 191.289 127.098 192.552 127.891 194.188C128.684 195.773 129.08 197.681 129.08 199.911V267.924H123.654V263.984H123.431C123.035 264.926 122.514 265.743 121.87 266.437C121.275 267.081 120.532 267.577 119.64 267.924C118.798 268.221 117.881 268.37 116.89 268.37Z" fill="#1386C7"/>
<path d="M164.598 268.37C162.963 268.37 161.526 267.973 160.287 267.18C159.048 266.338 158.082 265.149 157.388 263.612C156.694 262.076 156.348 260.193 156.348 257.963V199.539C156.348 197.309 156.694 195.426 157.388 193.89C158.082 192.354 159.048 191.165 160.287 190.322C161.526 189.48 162.963 189.059 164.598 189.059C165.788 189.059 166.803 189.282 167.646 189.728C168.538 190.124 169.281 190.669 169.876 191.363C170.47 192.057 170.966 192.8 171.362 193.593H171.511V159.326H177.012V267.924H171.511V263.91H171.362C171.016 264.752 170.545 265.52 169.95 266.214C169.355 266.858 168.612 267.379 167.72 267.775C166.828 268.171 165.788 268.37 164.598 268.37ZM166.68 263.315C167.621 263.315 168.463 263.092 169.207 262.646C169.95 262.2 170.52 261.556 170.916 260.714C171.313 259.822 171.511 258.731 171.511 257.443V200.06C171.511 198.771 171.313 197.706 170.916 196.863C170.52 195.971 169.95 195.302 169.207 194.857C168.463 194.411 167.621 194.188 166.68 194.188C165.738 194.188 164.896 194.411 164.152 194.857C163.459 195.302 162.889 195.971 162.443 196.863C162.046 197.706 161.848 198.771 161.848 200.06V257.443C161.848 258.731 162.046 259.822 162.443 260.714C162.889 261.556 163.459 262.2 164.152 262.646C164.896 263.092 165.738 263.315 166.68 263.315Z" fill="#1386C7"/>
<path d="M198.487 268.37C196.455 268.37 194.672 267.924 193.135 267.032C191.649 266.14 190.484 264.851 189.642 263.166C188.799 261.482 188.378 259.475 188.378 257.146V200.283C188.378 197.904 188.799 195.897 189.642 194.262C190.484 192.577 191.649 191.289 193.135 190.397C194.672 189.505 196.431 189.059 198.413 189.059C200.445 189.059 202.204 189.529 203.69 190.471C205.226 191.363 206.391 192.627 207.184 194.262C208.026 195.897 208.447 197.904 208.447 200.283V230.981H191.128V226.298H205.623L203.021 230.238V199.837C203.021 198.598 202.823 197.557 202.427 196.715C202.03 195.872 201.485 195.228 200.791 194.782C200.147 194.336 199.354 194.113 198.413 194.113C197.57 194.113 196.778 194.336 196.034 194.782C195.34 195.228 194.795 195.872 194.399 196.715C194.052 197.557 193.879 198.598 193.879 199.837V257.666C193.879 258.905 194.052 259.945 194.399 260.788C194.795 261.63 195.34 262.274 196.034 262.72C196.778 263.166 197.595 263.389 198.487 263.389C199.379 263.389 200.172 263.191 200.866 262.795C201.559 262.349 202.105 261.705 202.501 260.862C202.897 259.97 203.096 258.905 203.096 257.666V240.719H208.447V257.146C208.447 258.88 208.2 260.441 207.704 261.828C207.258 263.216 206.589 264.405 205.697 265.396C204.805 266.387 203.74 267.131 202.501 267.626C201.312 268.122 199.974 268.37 198.487 268.37Z" fill="#1386C7"/>
<path d="M219.517 267.924V189.579H224.943V193.816H225.166C225.711 192.478 226.578 191.363 227.768 190.471C228.957 189.529 230.394 189.059 232.079 189.059C234.606 189.059 236.563 189.951 237.951 191.735C239.338 193.469 240.032 195.971 240.032 199.242V267.924H234.606V199.837C234.606 197.954 234.209 196.541 233.417 195.6C232.624 194.658 231.484 194.188 229.997 194.188C228.907 194.188 227.99 194.46 227.247 195.005C226.504 195.55 225.934 196.294 225.538 197.235C225.141 198.127 224.943 199.192 224.943 200.431V267.924H219.517Z" fill="#1386C7"/>
<path d="M261.656 268.147C258.683 268.147 256.453 267.403 254.967 265.917C253.53 264.381 252.811 262.126 252.811 259.153V194.485H249.392V189.579H252.811V168.469H258.311V189.579H263.366V194.485H258.311V258.855C258.311 260.342 258.634 261.457 259.278 262.2C259.922 262.894 260.938 263.241 262.325 263.241C262.524 263.241 262.697 263.241 262.846 263.241C263.044 263.241 263.217 263.216 263.366 263.166V267.998C263.118 267.998 262.846 268.023 262.548 268.072C262.301 268.122 262.003 268.147 261.656 268.147Z" fill="#1386C7"/>
<path d="M279.341 268.37C277.755 268.37 276.343 268.023 275.104 267.329C273.915 266.586 272.973 265.52 272.28 264.133C271.636 262.696 271.313 260.937 271.313 258.855V234.029C271.313 231.848 271.735 230.015 272.577 228.528C273.469 226.992 274.757 225.803 276.442 224.96C278.177 224.068 280.332 223.499 282.909 223.251L288.855 222.656V227.339L283.504 227.934C281.224 228.132 279.539 228.727 278.449 229.718C277.409 230.709 276.888 232.096 276.888 233.88V258.335C276.888 260.02 277.285 261.283 278.077 262.126C278.87 262.968 279.985 263.389 281.422 263.389C282.364 263.389 283.182 263.191 283.875 262.795C284.619 262.349 285.164 261.705 285.511 260.862C285.907 260.02 286.105 259.029 286.105 257.889V199.465C286.105 197.78 285.709 196.467 284.916 195.525C284.123 194.584 283.033 194.113 281.645 194.113C280.258 194.113 279.168 194.584 278.375 195.525C277.632 196.467 277.26 197.78 277.26 199.465V217.602H271.834V199.837C271.834 197.656 272.23 195.773 273.023 194.188C273.865 192.552 275.03 191.289 276.517 190.397C278.003 189.505 279.738 189.059 281.72 189.059C283.751 189.059 285.486 189.505 286.923 190.397C288.409 191.289 289.549 192.552 290.342 194.188C291.135 195.773 291.531 197.681 291.531 199.911V267.924H286.105V263.984H285.882C285.486 264.926 284.965 265.743 284.321 266.437C283.727 267.081 282.983 267.577 282.091 267.924C281.249 268.221 280.332 268.37 279.341 268.37Z" fill="#1386C7"/>
<path d="M303.344 267.924V159.326H308.77V267.924H303.344Z" fill="#1386C7"/>
<path d="M347.113 294.831C345.081 294.831 343.297 294.41 341.761 293.568C340.274 292.725 339.11 291.536 338.268 290C337.475 288.464 337.078 286.63 337.078 284.499V273.573H342.43V284.871C342.43 286.407 342.851 287.621 343.694 288.513C344.536 289.405 345.676 289.851 347.113 289.851C348.55 289.851 349.665 289.38 350.458 288.439C351.3 287.497 351.721 286.159 351.721 284.425V263.761H351.498C351.152 264.603 350.656 265.372 350.012 266.065C349.417 266.71 348.674 267.23 347.782 267.626C346.939 268.023 345.924 268.221 344.734 268.221C343.099 268.221 341.662 267.824 340.423 267.032C339.184 266.189 338.218 265 337.524 263.464C336.83 261.878 336.484 259.97 336.484 257.74V199.539C336.484 197.309 336.83 195.426 337.524 193.89C338.218 192.354 339.184 191.165 340.423 190.322C341.662 189.48 343.099 189.059 344.734 189.059C345.924 189.059 346.964 189.282 347.856 189.728C348.748 190.124 349.467 190.669 350.012 191.363C350.606 192.007 351.102 192.775 351.498 193.667H351.721V189.579H357.148V283.979C357.148 286.209 356.726 288.142 355.884 289.777C355.091 291.412 353.927 292.651 352.39 293.493C350.904 294.385 349.145 294.831 347.113 294.831ZM346.816 263.241C347.757 263.241 348.6 263.018 349.343 262.572C350.086 262.126 350.656 261.482 351.052 260.639C351.449 259.747 351.647 258.657 351.647 257.369V200.06C351.647 198.771 351.449 197.706 351.052 196.863C350.656 195.971 350.086 195.302 349.343 194.857C348.6 194.411 347.757 194.188 346.816 194.188C345.874 194.188 345.032 194.411 344.288 194.857C343.595 195.302 343.025 195.971 342.579 196.863C342.182 197.706 341.984 198.771 341.984 200.06V257.369C341.984 258.657 342.182 259.747 342.579 260.639C343.025 261.482 343.595 262.126 344.288 262.572C345.032 263.018 345.874 263.241 346.816 263.241Z" fill="#1386C7"/>
<path d="M368.886 267.924V189.579H374.386V194.708H374.609C375.105 192.874 375.898 191.536 376.988 190.694C378.128 189.802 379.515 189.356 381.15 189.356C381.547 189.356 381.869 189.406 382.117 189.505C382.414 189.554 382.637 189.604 382.786 189.653V195.302C382.538 195.203 382.265 195.129 381.968 195.079C381.671 195.03 381.349 195.005 381.002 195.005C379.515 195.005 378.276 195.352 377.285 196.046C376.344 196.74 375.625 197.755 375.13 199.093C374.634 200.431 374.386 202.067 374.386 203.999V267.924H368.886Z" fill="#1386C7"/>
<path d="M400.099 268.37C398.117 268.37 396.333 267.948 394.747 267.106C393.211 266.214 391.972 264.926 391.03 263.241C390.138 261.556 389.693 259.499 389.693 257.071V200.431C389.693 198.003 390.138 195.947 391.03 194.262C391.972 192.577 393.211 191.289 394.747 190.397C396.333 189.505 398.117 189.059 400.099 189.059C402.131 189.059 403.914 189.505 405.451 190.397C407.036 191.289 408.275 192.577 409.167 194.262C410.109 195.947 410.579 198.003 410.579 200.431V257.071C410.579 259.499 410.109 261.556 409.167 263.241C408.275 264.926 407.036 266.214 405.451 267.106C403.914 267.948 402.131 268.37 400.099 268.37ZM400.099 263.315C401.139 263.315 402.007 263.092 402.7 262.646C403.444 262.151 404.014 261.482 404.41 260.639C404.856 259.747 405.079 258.707 405.079 257.517V199.985C405.079 198.746 404.856 197.706 404.41 196.863C404.014 195.971 403.444 195.302 402.7 194.857C402.007 194.411 401.139 194.188 400.099 194.188C399.108 194.188 398.241 194.411 397.497 194.857C396.803 195.302 396.258 195.971 395.862 196.863C395.466 197.706 395.267 198.746 395.267 199.985V257.517C395.267 258.707 395.466 259.747 395.862 260.639C396.258 261.482 396.803 262.151 397.497 262.646C398.241 263.092 399.108 263.315 400.099 263.315Z" fill="#1386C7"/>
<path d="M429.528 268.444C427.744 268.444 426.257 268.072 425.068 267.329C423.879 266.536 422.987 265.396 422.392 263.91C421.797 262.423 421.5 260.639 421.5 258.558V189.579H427.001V258.038C427.001 259.772 427.372 261.11 428.116 262.051C428.908 262.943 430.073 263.389 431.609 263.389C432.451 263.389 433.17 263.266 433.765 263.018C434.359 262.72 434.88 262.299 435.326 261.754C435.772 261.209 436.094 260.565 436.292 259.822C436.49 259.078 436.589 258.261 436.589 257.369V189.579H442.09V267.924H436.589V263.91H436.441C436.044 264.802 435.524 265.595 434.88 266.288C434.235 266.982 433.443 267.527 432.501 267.924C431.609 268.27 430.618 268.444 429.528 268.444Z" fill="#1386C7"/>
<path d="M453.679 294.311V189.579H459.18V193.667H459.328C459.725 192.775 460.196 192.007 460.741 191.363C461.335 190.669 462.079 190.124 462.971 189.728C463.863 189.282 464.879 189.059 466.018 189.059C467.753 189.059 469.214 189.48 470.404 190.322C471.643 191.165 472.609 192.354 473.303 193.89C473.996 195.426 474.343 197.309 474.343 199.539V257.963C474.343 260.193 473.996 262.076 473.303 263.612C472.609 265.149 471.643 266.338 470.404 267.18C469.214 267.973 467.753 268.37 466.018 268.37C464.879 268.37 463.863 268.171 462.971 267.775C462.128 267.379 461.41 266.858 460.815 266.214C460.22 265.52 459.725 264.752 459.328 263.91H459.18V294.311H453.679ZM463.937 263.315C464.928 263.315 465.771 263.092 466.464 262.646C467.208 262.2 467.777 261.556 468.174 260.714C468.62 259.822 468.843 258.731 468.843 257.443V200.06C468.843 198.771 468.62 197.706 468.174 196.863C467.777 195.971 467.208 195.302 466.464 194.857C465.771 194.411 464.928 194.188 463.937 194.188C463.045 194.188 462.227 194.411 461.484 194.857C460.741 195.302 460.171 195.971 459.774 196.863C459.378 197.706 459.18 198.771 459.18 200.06V257.443C459.18 258.731 459.378 259.822 459.774 260.714C460.171 261.556 460.741 262.2 461.484 262.646C462.227 263.092 463.045 263.315 463.937 263.315Z" fill="#1386C7"/>
<line y1="309.026" x2="478" y2="309.026" stroke="#BBE2F8" stroke-width="3.04459"/>
<path d="M429.832 361.782C429.832 362.927 429.662 363.95 429.321 364.851C428.98 365.728 428.505 366.483 427.896 367.116C427.311 367.725 426.617 368.188 425.814 368.504C425.01 368.845 424.157 369.016 423.256 369.016C421.941 369.016 420.723 368.736 419.603 368.176C418.507 367.615 417.618 366.873 416.936 365.947L418.507 364.157C419.067 364.961 419.773 365.582 420.626 366.02C421.478 366.459 422.343 366.678 423.22 366.678C424.389 366.678 425.363 366.264 426.142 365.436C426.946 364.607 427.348 363.426 427.348 361.892C427.348 361.161 427.226 360.515 426.983 359.955C426.739 359.395 426.41 358.896 425.996 358.457C425.582 358.019 425.107 357.629 424.571 357.288C424.06 356.947 423.512 356.631 422.927 356.338C422.221 355.997 421.551 355.62 420.918 355.206C420.285 354.767 419.724 354.268 419.237 353.708C418.774 353.148 418.397 352.49 418.105 351.735C417.812 350.955 417.666 350.054 417.666 349.031C417.666 347.838 417.849 346.803 418.214 345.926C418.58 345.025 419.067 344.282 419.676 343.697C420.309 343.088 421.015 342.638 421.795 342.345C422.574 342.053 423.39 341.907 424.243 341.907C425.412 341.907 426.459 342.114 427.385 342.528C428.334 342.918 429.126 343.539 429.759 344.391L428.188 346.182C427.701 345.475 427.129 344.976 426.471 344.684C425.814 344.367 425.095 344.209 424.316 344.209C423.804 344.209 423.293 344.306 422.781 344.501C422.294 344.671 421.856 344.952 421.466 345.341C421.076 345.731 420.76 346.23 420.516 346.839C420.272 347.448 420.151 348.167 420.151 348.995C420.151 349.725 420.26 350.359 420.479 350.895C420.699 351.43 420.991 351.905 421.356 352.319C421.746 352.734 422.184 353.099 422.672 353.416C423.183 353.732 423.707 354.024 424.243 354.292C424.925 354.633 425.594 355.023 426.252 355.461C426.934 355.9 427.543 356.411 428.079 356.996C428.615 357.581 429.041 358.263 429.357 359.042C429.674 359.821 429.832 360.735 429.832 361.782Z" fill="#1386C7"/>
<path d="M413.792 355.498C413.792 357.617 413.573 359.48 413.135 361.088C412.696 362.695 412.063 364.047 411.235 365.143C410.407 366.215 409.408 367.031 408.239 367.591C407.094 368.127 405.816 368.395 404.403 368.395H398.85V342.528H404.439C405.852 342.528 407.131 342.808 408.276 343.368C409.445 343.904 410.431 344.72 411.235 345.816C412.063 346.912 412.696 348.276 413.135 349.908C413.573 351.516 413.792 353.379 413.792 355.498ZM411.272 355.498C411.272 353.671 411.089 352.088 410.723 350.748C410.383 349.384 409.895 348.264 409.262 347.387C408.653 346.51 407.922 345.853 407.07 345.414C406.242 344.976 405.341 344.757 404.366 344.757H401.371V366.166H404.366C405.341 366.166 406.242 365.947 407.07 365.509C407.922 365.07 408.653 364.413 409.262 363.536C409.895 362.659 410.383 361.551 410.723 360.211C411.089 358.871 411.272 357.3 411.272 355.498Z" fill="#1386C7"/>
<path d="M383.579 368.395V342.528H393.992V344.793H386.063V353.89H393.48V356.046H386.063V366.093H394.357V368.395H383.579Z" fill="#1386C7"/>
<path d="M368.31 368.395V342.528H378.722V344.793H370.794V353.89H378.211V356.046H370.794V366.093H379.087V368.395H368.31Z" fill="#1386C7"/>
<path d="M359.338 368.395L350.313 346.876H350.204V368.395H347.829V342.528H351.008L359.959 364.047H360.068V342.528H362.407V368.395H359.338Z" fill="#1386C7"/>
<path d="M328.92 368.395V342.528H331.477V366.02H338.857V368.395H328.92Z" fill="#1386C7"/>
<path d="M323.043 368.395L321.472 361.928H313.508L311.864 368.395H309.27L315.846 342.528H319.317L325.71 368.395H323.043ZM317.6 344.83H317.453L313.873 359.882H321.107L317.6 344.83Z" fill="#1386C7"/>
<path d="M304.658 344.72V368.395H302.137V344.72H297.168V342.528H309.663V344.72H304.658Z" fill="#1386C7"/>
<path d="M291.156 368.395L282.132 346.876H282.022V368.395H279.647V342.528H282.826L291.777 364.047H291.887V342.528H294.225V368.395H291.156Z" fill="#1386C7"/>
<path d="M264.377 368.395V342.528H274.789V344.793H266.861V353.89H274.278V356.046H266.861V366.093H275.155V368.395H264.377Z" fill="#1386C7"/>
<path d="M259.554 355.498C259.554 357.617 259.335 359.48 258.897 361.088C258.458 362.695 257.825 364.047 256.997 365.143C256.169 366.215 255.17 367.031 254.001 367.591C252.856 368.127 251.577 368.395 250.165 368.395H244.611V342.528H250.201C251.614 342.528 252.893 342.808 254.037 343.368C255.206 343.904 256.193 344.72 256.997 345.816C257.825 346.912 258.458 348.276 258.897 349.908C259.335 351.516 259.554 353.379 259.554 355.498ZM257.033 355.498C257.033 353.671 256.851 352.088 256.485 350.748C256.144 349.384 255.657 348.264 255.024 347.387C254.415 346.51 253.684 345.853 252.832 345.414C252.004 344.976 251.102 344.757 250.128 344.757H247.132V366.166H250.128C251.102 366.166 252.004 365.947 252.832 365.509C253.684 365.07 254.415 364.413 255.024 363.536C255.657 362.659 256.144 361.551 256.485 360.211C256.851 358.871 257.033 357.3 257.033 355.498Z" fill="#1386C7"/>
<path d="M231.014 368.395L226.338 356.411H223.013V368.395H220.492V342.528H226.703C227.556 342.528 228.372 342.65 229.151 342.893C229.955 343.113 230.661 343.49 231.27 344.026C231.903 344.562 232.403 345.268 232.768 346.145C233.158 347.022 233.353 348.094 233.353 349.36C233.353 350.456 233.206 351.406 232.914 352.21C232.646 352.989 232.281 353.647 231.818 354.183C231.38 354.719 230.88 355.133 230.32 355.425C229.784 355.717 229.248 355.9 228.713 355.973L233.754 368.395H231.014ZM230.868 349.47C230.868 348.544 230.734 347.777 230.466 347.168C230.223 346.535 229.882 346.035 229.443 345.67C229.029 345.305 228.542 345.049 227.982 344.903C227.446 344.757 226.886 344.684 226.301 344.684H223.013V354.402H226.411C227.799 354.402 228.883 353.976 229.662 353.123C230.466 352.246 230.868 351.029 230.868 349.47Z" fill="#1386C7"/>
<path d="M214.872 359.334C214.872 360.674 214.738 361.94 214.471 363.134C214.227 364.303 213.813 365.326 213.228 366.203C212.668 367.08 211.913 367.774 210.963 368.285C210.013 368.772 208.844 369.016 207.456 369.016C206.068 369.016 204.898 368.772 203.948 368.285C203.023 367.774 202.268 367.08 201.683 366.203C201.123 365.326 200.721 364.303 200.478 363.134C200.234 361.94 200.112 360.674 200.112 359.334V342.528H202.67V359.005C202.67 359.955 202.731 360.893 202.852 361.819C202.999 362.744 203.242 363.572 203.583 364.303C203.948 365.009 204.436 365.582 205.045 366.02C205.678 366.459 206.494 366.678 207.492 366.678C208.467 366.678 209.27 366.459 209.904 366.02C210.537 365.582 211.024 365.009 211.365 364.303C211.73 363.572 211.974 362.756 212.096 361.855C212.242 360.93 212.315 359.98 212.315 359.005V342.528H214.872V359.334Z" fill="#1386C7"/>
<path d="M195.571 355.425C195.571 357.447 195.376 359.298 194.986 360.978C194.597 362.635 194.037 364.059 193.306 365.253C192.575 366.446 191.686 367.372 190.639 368.03C189.591 368.687 188.398 369.016 187.058 369.016C185.719 369.016 184.513 368.687 183.441 368.03C182.394 367.372 181.493 366.446 180.738 365.253C180.007 364.059 179.447 362.635 179.057 360.978C178.668 359.298 178.473 357.447 178.473 355.425C178.473 353.428 178.655 351.601 179.021 349.945C179.41 348.264 179.971 346.839 180.701 345.67C181.432 344.477 182.321 343.551 183.368 342.893C184.44 342.236 185.67 341.907 187.058 341.907C188.398 341.907 189.591 342.236 190.639 342.893C191.686 343.551 192.575 344.477 193.306 345.67C194.037 346.839 194.597 348.264 194.986 349.945C195.376 351.601 195.571 353.428 195.571 355.425ZM192.904 355.425C192.904 353.866 192.782 352.405 192.539 351.041C192.295 349.677 191.918 348.495 191.406 347.497C190.919 346.498 190.31 345.707 189.579 345.122C188.849 344.538 188.008 344.245 187.058 344.245C186.06 344.245 185.183 344.538 184.428 345.122C183.697 345.707 183.088 346.498 182.601 347.497C182.114 348.495 181.749 349.677 181.505 351.041C181.262 352.405 181.14 353.866 181.14 355.425C181.14 356.984 181.262 358.445 181.505 359.809C181.749 361.173 182.114 362.367 182.601 363.39C183.088 364.413 183.697 365.216 184.428 365.801C185.183 366.385 186.06 366.678 187.058 366.678C188.033 366.678 188.885 366.385 189.616 365.801C190.347 365.216 190.955 364.413 191.443 363.39C191.93 362.367 192.295 361.173 192.539 359.809C192.782 358.445 192.904 356.984 192.904 355.425Z" fill="#1386C7"/>
<path d="M170.539 357.763V368.395H168.054V357.763L161.624 342.528H164.401L169.296 355.133L174.302 342.528H177.042L170.539 357.763Z" fill="#1386C7"/>
<path d="M146.566 368.395V342.528H149.124V366.02H156.504V368.395H146.566Z" fill="#1386C7"/>
<path d="M133.507 368.395V342.528H136.064V366.02H143.444V368.395H133.507Z" fill="#1386C7"/>
<path d="M127.63 368.395L126.059 361.928H118.095L116.45 368.395H113.856L120.433 342.528H123.904L130.297 368.395H127.63ZM122.186 344.83H122.04L118.46 359.882H125.694L122.186 344.83Z" fill="#1386C7"/>
<path d="M103.606 368.395L98.9296 356.411H95.6049V368.395H93.084V342.528H99.2949C100.147 342.528 100.963 342.65 101.743 342.893C102.547 343.113 103.253 343.49 103.862 344.026C104.495 344.562 104.994 345.268 105.36 346.145C105.749 347.022 105.944 348.094 105.944 349.36C105.944 350.456 105.798 351.406 105.506 352.21C105.238 352.989 104.873 353.647 104.41 354.183C103.971 354.719 103.472 355.133 102.912 355.425C102.376 355.717 101.84 355.9 101.304 355.973L106.346 368.395H103.606ZM103.46 349.47C103.46 348.544 103.326 347.777 103.058 347.168C102.814 346.535 102.473 346.035 102.035 345.67C101.621 345.305 101.134 345.049 100.574 344.903C100.038 344.757 99.4776 344.684 98.8931 344.684H95.6049V354.402H99.0027C100.391 354.402 101.475 353.976 102.254 353.123C103.058 352.246 103.46 351.029 103.46 349.47Z" fill="#1386C7"/>
<path d="M88.2488 355.425C88.2488 357.447 88.0539 359.298 87.6642 360.978C87.2745 362.635 86.7143 364.059 85.9836 365.253C85.2529 366.446 84.3639 367.372 83.3166 368.03C82.2692 368.687 81.0757 369.016 79.7361 369.016C78.3965 369.016 77.1908 368.687 76.1192 368.03C75.0718 367.372 74.1706 366.446 73.4156 365.253C72.6849 364.059 72.1247 362.635 71.735 360.978C71.3452 359.298 71.1504 357.447 71.1504 355.425C71.1504 353.428 71.3331 351.601 71.6984 349.945C72.0881 348.264 72.6483 346.839 73.379 345.67C74.1097 344.477 74.9987 343.551 76.0461 342.893C77.1178 342.236 78.3478 341.907 79.7361 341.907C81.0757 341.907 82.2692 342.236 83.3166 342.893C84.3639 343.551 85.2529 344.477 85.9836 345.67C86.7143 346.839 87.2745 348.264 87.6642 349.945C88.0539 351.601 88.2488 353.428 88.2488 355.425ZM85.5817 355.425C85.5817 353.866 85.4599 352.405 85.2164 351.041C84.9728 349.677 84.5953 348.495 84.0838 347.497C83.5967 346.498 82.9877 345.707 82.257 345.122C81.5263 344.538 80.686 344.245 79.7361 344.245C78.7375 344.245 77.8607 344.538 77.1056 345.122C76.3749 345.707 75.766 346.498 75.2788 347.497C74.7917 348.495 74.4264 349.677 74.1828 351.041C73.9392 352.405 73.8174 353.866 73.8174 355.425C73.8174 356.984 73.9392 358.445 74.1828 359.809C74.4264 361.173 74.7917 362.367 75.2788 363.39C75.766 364.413 76.3749 365.216 77.1056 365.801C77.8607 366.385 78.7375 366.678 79.7361 366.678C80.7104 366.678 81.5629 366.385 82.2936 365.801C83.0243 365.216 83.6332 364.413 84.1203 363.39C84.6075 362.367 84.9728 361.173 85.2164 359.809C85.4599 358.445 85.5817 356.984 85.5817 355.425Z" fill="#1386C7"/>
<path d="M60.2826 344.83V354.073H67.5531V356.302H60.2826V368.395H57.7617V342.528H68.1011V344.83H60.2826Z" fill="#1386C7"/>
<defs>
<clipPath id="clip0_520_80104">
<rect width="342.899" height="267.584" fill="white" transform="translate(136.031) rotate(5.01286)"/>
</clipPath>
</defs>
</svg>
