<svg width="17" height="19" viewBox="0 0 17 19" fill="none" xmlns="http://www.w3.org/2000/svg">
<path d="M16.6613 4.70394C16.3203 2.40094 14.6563 1.34793 12.3563 0.983934C11.0483 0.776934 9.81828 1.04694 8.79228 1.63394C7.76728 1.04594 6.53628 0.775934 5.22928 0.983934C2.93028 1.34793 1.26528 2.40094 0.924282 4.70394C0.646282 6.58494 1.67128 8.39294 1.96328 10.5229C2.25528 12.6529 1.38128 17.0819 4.34628 18.3649C5.01928 18.6569 5.78228 18.1859 5.80828 17.4529C5.86728 15.7969 6.86428 11.0829 8.79328 11.0829C10.7213 11.0829 11.7193 15.7979 11.7783 17.4529C11.8043 18.1859 12.5663 18.6569 13.2403 18.3649C16.2043 17.0809 15.3313 12.6529 15.6233 10.5229C15.9143 8.39294 16.9403 6.58594 16.6613 4.70394Z" fill="#EBEBEB"/>
<path opacity="0.1" d="M11.778 17.4529C11.804 18.1859 12.566 18.6569 13.24 18.365C16.204 17.0809 15.331 12.6529 15.623 10.5229C15.915 8.39295 16.94 6.58595 16.662 4.70395C16.321 2.40095 14.657 1.34795 12.357 0.983948C11.049 0.776948 9.81897 1.04695 8.79297 1.63495V11.0829C10.722 11.0829 11.719 15.7969 11.778 17.4529Z" fill="black"/>
<g opacity="0.9">
<path opacity="0.9" d="M4.99683 6.91693C5.13783 6.46993 5.43683 6.07593 5.84883 5.79893C6.08483 5.37793 6.52783 5.07993 7.04683 5.02593V2.72393C6.71583 2.62893 6.37383 2.58093 6.02183 2.58093C5.81983 2.58093 5.61483 2.59693 5.41083 2.62993C3.08783 2.99793 2.63283 4.00793 2.49383 4.94793C2.40683 5.53793 2.52583 6.19093 2.71583 6.91693H4.99683Z" fill="white"/>
<path opacity="0.9" d="M5.85064 10.7959C5.43864 10.5189 5.13864 10.1249 4.99764 9.67792H3.43164C3.47064 9.88092 3.50764 10.0869 3.53664 10.2969C3.61964 10.9029 3.62464 11.5899 3.62964 12.3179C3.64164 13.9729 3.70164 15.3629 4.20364 16.1849C4.41064 14.7979 4.90264 12.5239 5.99064 10.9979C5.93864 10.9339 5.89064 10.8679 5.85064 10.7959Z" fill="white"/>
</g>
<path d="M11.5672 7.50393C11.5672 6.88693 10.9792 6.38593 10.2572 6.38593H7.21525C6.49325 6.38593 5.90625 6.88793 5.90625 7.50393V7.97293C5.90625 8.09193 5.94625 8.20093 6.01125 8.29693C5.94625 8.39293 5.90625 8.50193 5.90625 8.62093V9.08993C5.90625 9.70693 6.49325 10.2079 7.21525 10.2079H10.2572C10.9792 10.2079 11.5672 9.70593 11.5672 9.08993V8.62093C11.5672 8.50193 11.5272 8.39293 11.4622 8.29693C11.5272 8.20093 11.5672 8.09193 11.5672 7.97293V7.50393Z" fill="#00B7FF"/>
<path d="M7.59797 10.5789H7.21697C6.91397 10.5789 6.66797 10.3649 6.66797 10.0999V8.62793H8.14797V10.0999C8.14697 10.3649 7.90097 10.5789 7.59797 10.5789Z" fill="#666666"/>
<path opacity="0.1" d="M7.21587 10.1989C7.11387 10.1989 7.04688 10.1399 7.04688 10.0999V9.00793H7.76687V10.0999C7.76687 10.1389 7.69887 10.1989 7.59787 10.1989H7.21587Z" fill="white"/>
<path d="M10.2288 10.5789H9.84783C9.54483 10.5789 9.29883 10.3649 9.29883 10.0999V8.62793H10.7788V10.0999C10.7788 10.3649 10.5328 10.5789 10.2288 10.5789Z" fill="#666666"/>
<path opacity="0.1" d="M9.84673 10.1989C9.74473 10.1989 9.67773 10.1399 9.67773 10.0999V9.00793H10.3977V10.0999C10.3977 10.1389 10.3297 10.1989 10.2287 10.1989H9.84673Z" fill="white"/>
<path d="M7.59797 6.01495H7.21697C6.91397 6.01495 6.66797 6.22895 6.66797 6.49395V7.96595H8.14797V6.49395C8.14697 6.22895 7.90097 6.01495 7.59797 6.01495Z" fill="#666666"/>
<path opacity="0.1" d="M7.04688 7.58596V6.49396C7.04688 6.45496 7.11387 6.39496 7.21587 6.39496H7.59687C7.69887 6.39496 7.76587 6.45396 7.76587 6.49396V7.58596H7.04688Z" fill="white"/>
<path d="M10.2288 6.01495H9.84783C9.54483 6.01495 9.29883 6.22895 9.29883 6.49395V7.96595H10.7788V6.49395C10.7788 6.22895 10.5328 6.01495 10.2288 6.01495Z" fill="#666666"/>
<path opacity="0.1" d="M9.67773 7.58596V6.49396C9.67773 6.45496 9.74573 6.39496 9.84673 6.39496H10.2277C10.3297 6.39496 10.3967 6.45396 10.3967 6.49396V7.58596H9.67773Z" fill="white"/>
<path d="M16.3901 8.67797H1.08508C0.875075 8.67797 0.705078 8.50797 0.705078 8.29797C0.705078 8.08797 0.875075 7.91797 1.08508 7.91797H16.3901C16.6001 7.91797 16.7701 8.08797 16.7701 8.29797C16.7701 8.50697 16.6001 8.67797 16.3901 8.67797Z" fill="#CCCCCC"/>
<path opacity="0.1" d="M1.08508 8.67797H16.3901C16.6001 8.67797 16.7701 8.50797 16.7701 8.29797H0.705078C0.705078 8.50697 0.875075 8.67797 1.08508 8.67797Z" fill="black"/>
</svg>
