<svg width="21" height="21" viewBox="0 0 21 21" fill="none" xmlns="http://www.w3.org/2000/svg">
<path d="M15.8747 7.4629C15.5427 5.2159 13.9187 4.1889 11.6747 3.8339C10.3987 3.6319 9.19872 3.8949 8.19772 4.4689C7.19772 3.8959 5.99671 3.6319 4.72071 3.8339C2.47771 4.1889 0.852716 5.2159 0.520716 7.4629C0.249716 9.2979 1.24971 11.0619 1.53471 13.1399C1.81971 15.2179 0.966705 19.5389 3.8597 20.7909C4.51671 21.0759 5.26072 20.6169 5.28572 19.9009C5.34272 18.2859 6.31572 13.6859 8.19772 13.6859C10.0797 13.6859 11.0527 18.2859 11.1097 19.9009C11.1347 20.6159 11.8787 21.0749 12.5357 20.7909C15.4277 19.5389 14.5757 15.2179 14.8597 13.1399C15.1457 11.0619 16.1467 9.2979 15.8747 7.4629Z" fill="#EBEBEB"/>
<path opacity="0.1" d="M11.1093 19.9009C11.1343 20.6159 11.8783 21.0749 12.5353 20.7909C15.4273 19.5389 14.5753 15.2179 14.8603 13.1399C15.1453 11.0619 16.1453 9.2989 15.8743 7.4629C15.5423 5.2159 13.9183 4.1889 11.6743 3.8339C10.3983 3.6319 9.19827 3.8949 8.19727 4.4689V13.6869C10.0793 13.6859 11.0523 18.2859 11.1093 19.9009Z" fill="black"/>
<path opacity="0.9" d="M3.79768 18.6629C3.30868 17.8609 3.24967 16.5039 3.23767 14.8899C3.23267 14.1799 3.22768 13.5099 3.14668 12.9189C3.02168 12.0059 2.77968 11.1609 2.56668 10.4159C2.27068 9.37891 2.01468 8.48391 2.12968 7.70091C2.26568 6.78391 2.70967 5.79891 4.97567 5.43991C5.17467 5.40791 5.37568 5.39191 5.57168 5.39191C5.91468 5.39191 6.24868 5.43891 6.57168 5.53091V12.5579C4.76468 13.7779 4.05668 16.9319 3.79768 18.6629Z" fill="white"/>
<path d="M8.0032 1.6049C7.1552 2.5749 7.06419 4.03289 7.78919 5.09789C8.14719 5.62289 8.63319 5.98589 9.16819 6.18489C10.2022 6.56989 11.1442 7.1649 11.8902 7.9769L12.1052 8.21089L14.7152 5.81689L14.5012 5.58389C13.7492 4.76489 13.2482 3.76189 12.9422 2.69289C12.8242 2.27889 12.6102 1.88489 12.2982 1.54589C11.1502 0.294891 9.1522 0.289897 8.0032 1.6049Z" fill="#FBC21B"/>
<path d="M18.9109 13.0139C18.6839 13.2219 18.4259 13.4029 18.1379 13.5499C17.3099 13.9719 16.3669 14.0449 15.4829 13.7579C14.5989 13.4699 13.8799 12.8559 13.4589 12.0279C13.0369 11.1999 12.9629 10.2569 13.2509 9.37291C13.5379 8.48891 14.1529 7.76992 14.9809 7.34792C16.6909 6.47792 18.7909 7.16091 19.6609 8.87091C20.3849 10.2919 20.0339 11.9839 18.9109 13.0139ZM14.9049 8.6499C14.5989 8.9309 14.3689 9.28691 14.2369 9.69191C14.0349 10.3119 14.0869 10.9739 14.3829 11.5559C14.6789 12.1369 15.1839 12.5689 15.8039 12.7699C16.4239 12.9719 17.0859 12.9199 17.6679 12.6239C18.8689 12.0129 19.3479 10.5399 18.7369 9.33891C18.1259 8.13891 16.6519 7.65891 15.4519 8.26991C15.2499 8.37391 15.0669 8.5009 14.9049 8.6499Z" fill="#FF5297"/>
<path opacity="0.1" d="M19.1917 9.10789C18.4527 7.65689 16.6707 7.07689 15.2187 7.81489C14.5157 8.17289 13.9937 8.78289 13.7497 9.53389C13.5057 10.2839 13.5687 11.0849 13.9267 11.7879C14.2847 12.4909 14.8947 13.0129 15.6457 13.2569C16.3957 13.5009 17.1967 13.4379 17.8997 13.0799C18.1437 12.9559 18.3637 12.8019 18.5557 12.6249C19.5087 11.7519 19.8067 10.3149 19.1917 9.10789ZM17.6667 12.6249C17.0857 12.9209 16.4237 12.9729 15.8027 12.7709C15.1827 12.5689 14.6777 12.1379 14.3817 11.5569C14.0857 10.9759 14.0337 10.3139 14.2357 9.69288C14.3677 9.28688 14.5977 8.93089 14.9037 8.65089C15.0657 8.50289 15.2487 8.37489 15.4497 8.27189C16.6497 7.66089 18.1237 8.14089 18.7347 9.34089C19.3467 10.5399 18.8687 12.0139 17.6667 12.6249Z" fill="black"/>
<path d="M16.6726 7.95089C16.9866 8.29289 17.0716 8.72989 16.8626 8.92189L15.0147 10.6179C14.8057 10.8099 14.3766 10.6869 14.0636 10.3449L12.4666 8.60389C12.1526 8.26189 12.0676 7.82489 12.2766 7.63289L14.1246 5.93689C14.3336 5.74489 14.7626 5.8679 15.0756 6.2099L16.6726 7.95089Z" fill="#FF304A"/>
<path d="M9.15556 9.71388C8.81556 10.0259 8.79255 10.5599 9.10455 10.8999L9.16656 10.9679C9.47856 11.3079 10.0125 11.3309 10.3525 11.0189L17.6625 4.31288C18.0025 4.00088 18.0256 3.46687 17.7136 3.12687L17.6515 3.05887C17.3395 2.71887 16.8056 2.69588 16.4656 3.00788L9.15556 9.71388Z" fill="#FF5297"/>
<path opacity="0.1" d="M10.3528 11.0189L17.6628 4.31289C18.0008 4.00289 18.0248 3.47489 17.7198 3.13489L9.17383 10.9739C9.48683 11.3079 10.0148 11.3289 10.3528 11.0189Z" fill="black"/>
<path opacity="0.3" d="M12.1621 2.20187C12.1621 2.91687 11.2671 3.49686 10.1631 3.49686C9.05907 3.49686 8.16406 2.91687 8.16406 2.20187C8.16406 1.48687 9.05907 0.90686 10.1631 0.90686C11.2671 0.90686 12.1621 1.48687 12.1621 2.20187Z" fill="white"/>
</svg>
