<svg width="21" height="16" viewBox="0 0 21 16" fill="none" xmlns="http://www.w3.org/2000/svg">
<path d="M15.5804 3.47396C15.3424 1.86196 14.1764 1.12496 12.5674 0.869959C11.6524 0.724959 10.7904 0.913953 10.0734 1.32495C9.35544 0.913953 8.49444 0.724959 7.57944 0.869959C5.96944 1.12496 4.80444 1.86196 4.56644 3.47396C4.37144 4.79096 5.08944 6.05595 5.29444 7.54695C5.49844 9.03795 4.88743 12.138 6.96243 13.036C7.43343 13.24 7.96743 12.911 7.98543 12.398C8.02643 11.239 8.72443 7.93895 10.0744 7.93895C11.4244 7.93895 12.1224 11.239 12.1634 12.398C12.1814 12.911 12.7154 13.24 13.1864 13.036C15.2614 12.138 14.6494 9.03795 14.8544 7.54695C15.0574 6.05595 15.7754 4.79096 15.5804 3.47396Z" fill="#EBEBEB"/>
<path opacity="0.1" d="M12.1632 12.398C12.1812 12.911 12.7152 13.24 13.1862 13.036C15.2612 12.138 14.6492 9.03795 14.8542 7.54695C15.0582 6.05595 15.7762 4.79096 15.5812 3.47396C15.3432 1.86196 14.1772 1.12496 12.5682 0.869959C11.6532 0.724959 10.7912 0.913953 10.0742 1.32495V7.93796C11.4232 7.93896 12.1222 11.239 12.1632 12.398Z" fill="black"/>
<g opacity="0.9">
<path opacity="0.9" d="M7.41484 5.02297C7.51384 4.70997 7.72283 4.43398 8.01083 4.23998C8.17583 3.94498 8.48584 3.73698 8.84984 3.69898V2.08797C8.61784 2.02197 8.37884 1.98798 8.13284 1.98798C7.99184 1.98798 7.84783 1.99998 7.70483 2.02198C6.07883 2.27898 5.76084 2.98697 5.66284 3.64397C5.60184 4.05697 5.68584 4.51398 5.81784 5.02198L7.41484 5.02297Z" fill="white"/>
<path opacity="0.9" d="M8.01137 7.73796C7.72337 7.54396 7.51337 7.26796 7.41437 6.95496H6.31836C6.34536 7.09696 6.37137 7.24095 6.39137 7.38795C6.44937 7.81195 6.45236 8.29296 6.45636 8.80196C6.46436 9.95996 6.50636 10.934 6.85736 11.509C7.00236 10.538 7.34637 8.94595 8.10837 7.87895C8.07337 7.83495 8.03937 7.78796 8.01137 7.73796Z" fill="white"/>
</g>
<path d="M12.0138 5.43401C12.0138 5.00201 11.6028 4.651 11.0968 4.651H8.96777C8.46277 4.651 8.05078 5.00201 8.05078 5.43401V5.76199C8.05078 5.84499 8.07877 5.922 8.12477 5.989C8.07877 6.056 8.05078 6.133 8.05078 6.216V6.54401C8.05078 6.97601 8.46177 7.327 8.96777 7.327H11.0968C11.6018 7.327 12.0138 6.97601 12.0138 6.54401V6.216C12.0138 6.133 11.9858 6.056 11.9398 5.989C11.9858 5.922 12.0138 5.84499 12.0138 5.76199V5.43401Z" fill="#00B7FF"/>
<path d="M9.23499 7.58696H8.96799C8.75599 7.58696 8.58398 7.43695 8.58398 7.25195V6.22095H9.62V7.25195C9.62 7.43695 9.44699 7.58696 9.23499 7.58696Z" fill="#666666"/>
<path opacity="0.1" d="M8.96761 7.32094C8.89661 7.32094 8.84961 7.27894 8.84961 7.25194V6.48694H9.35361V7.25194C9.35361 7.27994 9.3066 7.32094 9.2346 7.32094H8.96761Z" fill="white"/>
<path d="M11.0768 7.58696H10.8098C10.5978 7.58696 10.4258 7.43695 10.4258 7.25195V6.22095H11.4618V7.25195C11.4608 7.43695 11.2888 7.58696 11.0768 7.58696Z" fill="#666666"/>
<path opacity="0.1" d="M10.8094 7.32094C10.7384 7.32094 10.6914 7.27894 10.6914 7.25194V6.48694H11.1954V7.25194C11.1954 7.27994 11.1484 7.32094 11.0774 7.32094H10.8094Z" fill="white"/>
<path d="M9.23499 4.39197H8.96799C8.75599 4.39197 8.58398 4.54197 8.58398 4.72697V5.75797H9.62V4.72697C9.62 4.54197 9.44699 4.39197 9.23499 4.39197Z" fill="#666666"/>
<path opacity="0.1" d="M8.84961 5.49098V4.72598C8.84961 4.69798 8.89661 4.65698 8.96761 4.65698H9.2346C9.3056 4.65698 9.35361 4.69898 9.35361 4.72598V5.49098H8.84961Z" fill="white"/>
<path d="M11.0768 4.39197H10.8098C10.5978 4.39197 10.4258 4.54197 10.4258 4.72697V5.75797H11.4618V4.72697C11.4608 4.54197 11.2888 4.39197 11.0768 4.39197Z" fill="#666666"/>
<path opacity="0.1" d="M10.6914 5.49098V4.72598C10.6914 4.69798 10.7384 4.65698 10.8094 4.65698H11.0764C11.1474 4.65698 11.1944 4.69898 11.1944 4.72598V5.49098H10.6914Z" fill="white"/>
<path d="M15.3892 6.25496H4.67616C4.52916 6.25496 4.41016 6.13595 4.41016 5.98895C4.41016 5.84195 4.52916 5.72296 4.67616 5.72296H15.3892C15.5362 5.72296 15.6552 5.84195 15.6552 5.98895C15.6552 6.13595 15.5362 6.25496 15.3892 6.25496Z" fill="#CCCCCC"/>
<path opacity="0.1" d="M4.67811 6.25496H15.3911C15.5381 6.25496 15.6571 6.13595 15.6571 5.98895H4.41212C4.41112 6.13595 4.53111 6.25496 4.67811 6.25496Z" fill="black"/>
<path d="M20.2285 11.225C20.2285 13.571 17.3715 15.491 13.8805 15.491H6.57652C3.08552 15.491 0.228516 13.572 0.228516 11.225C0.228516 8.87899 1.58852 6.95898 5.07952 6.95898C5.07952 6.95898 7.57552 7.96098 10.0395 7.96098C12.5035 7.96098 14.9995 6.95898 14.9995 6.95898C18.4915 6.95998 20.2285 8.87899 20.2285 11.225Z" fill="#FF304A"/>
<path opacity="0.2" d="M6.83509 13.547C3.75309 13.547 1.24609 12.153 1.24609 10.44C1.24609 9.28602 1.78509 7.35301 5.38609 7.33301C5.76909 7.45901 7.90408 8.12502 10.0541 8.12502C12.2041 8.12502 14.3391 7.45901 14.7221 7.33301C17.4941 7.34901 19.2131 8.53702 19.2131 10.44C19.2131 12.153 16.7061 13.547 13.6241 13.547H6.83509Z" fill="white"/>
</svg>
