<svg width="21" height="16" viewBox="0 0 21 16" fill="none" xmlns="http://www.w3.org/2000/svg">
<path d="M15.9222 3.37496C15.6772 1.71996 14.4812 0.962955 12.8282 0.700955C11.8882 0.551955 11.0042 0.745958 10.2672 1.16796C9.53019 0.745958 8.64619 0.550955 7.70619 0.700955C6.05319 0.962955 4.85719 1.71896 4.61219 3.37496C4.41219 4.72696 5.14919 6.02596 5.35919 7.55596C5.56919 9.08696 4.94119 12.269 7.07119 13.192C7.55519 13.402 8.10319 13.064 8.12219 12.537C8.16419 11.347 8.88119 7.95896 10.2672 7.95896C11.6532 7.95896 12.3702 11.347 12.4122 12.537C12.4312 13.064 12.9792 13.402 13.4632 13.192C15.5932 12.269 14.9662 9.08696 15.1752 7.55596C15.3852 6.02596 16.1222 4.72696 15.9222 3.37496Z" fill="#EBEBEB"/>
<path opacity="0.1" d="M12.4126 12.5369C12.4316 13.0639 12.9796 13.4019 13.4636 13.1919C15.5936 12.2689 14.9666 9.08694 15.1756 7.55594C15.3856 6.02494 16.1226 4.72593 15.9226 3.37393C15.6776 1.71893 14.4816 0.961938 12.8286 0.699938C11.8886 0.550938 11.0046 0.744941 10.2676 1.16694V7.95694C11.6536 7.95894 12.3706 11.3469 12.4126 12.5369Z" fill="black"/>
<path opacity="0.9" d="M7.02614 11.6259C6.66614 11.0349 6.62214 10.0359 6.61414 8.84692C6.61014 8.32392 6.60714 7.82992 6.54714 7.39492C6.45514 6.72292 6.27714 6.09991 6.12014 5.55091C5.90214 4.78691 5.71315 4.12791 5.79815 3.55091C5.89815 2.87591 6.22514 2.14992 7.89414 1.88492C8.04114 1.86192 8.18814 1.84991 8.33314 1.84991C8.58614 1.84991 8.83214 1.88492 9.07014 1.95292V7.12992C7.73814 8.02692 7.21614 10.3499 7.02614 11.6259Z" fill="white"/>
<path d="M20.457 11.2C20.457 13.546 17.6 15.466 14.109 15.466H6.80503C3.31403 15.466 0.457031 13.546 0.457031 11.2C0.457031 8.85395 1.81703 6.93396 5.30803 6.93396C5.30803 6.93396 7.80403 7.93596 10.268 7.93596C12.732 7.93596 15.228 6.93396 15.228 6.93396C18.719 6.93396 20.457 8.85395 20.457 11.2Z" fill="#FF304A"/>
<path opacity="0.2" d="M7.06361 13.5209C3.98161 13.5209 1.47461 12.1269 1.47461 10.4139C1.47461 9.25994 2.01361 7.32695 5.61461 7.30695C5.99761 7.43295 8.13261 8.09894 10.2826 8.09894C12.4326 8.09894 14.5676 7.43295 14.9506 7.30695C17.7226 7.32295 19.4416 8.51094 19.4416 10.4139C19.4416 12.1269 16.9346 13.5209 13.8526 13.5209H7.06361Z" fill="white"/>
</svg>
