<svg width="28" height="18" viewBox="0 0 28 18" fill="none" xmlns="http://www.w3.org/2000/svg">
<path d="M20.2156 3.515C19.9406 1.656 18.5976 0.806998 16.7416 0.512998C15.6866 0.345998 14.6936 0.563996 13.8666 1.038C13.0396 0.563996 12.0466 0.345998 10.9906 0.512998C9.13461 0.806998 7.79161 1.656 7.51661 3.515C7.29261 5.033 8.11963 6.491 8.35563 8.21C8.59063 9.929 7.88663 13.502 10.2786 14.538C10.8216 14.773 11.4376 14.394 11.4586 13.802C11.5056 12.466 12.3106 8.662 13.8666 8.662C15.4226 8.662 16.2276 12.466 16.2746 13.802C16.2956 14.394 16.9106 14.773 17.4546 14.538C19.8466 13.502 19.1416 9.929 19.3776 8.21C19.6116 6.492 20.4396 5.033 20.2156 3.515Z" fill="#EBEBEB"/>
<path opacity="0.1" d="M16.2742 13.802C16.2952 14.394 16.9102 14.773 17.4542 14.538C19.8462 13.502 19.1412 9.929 19.3772 8.21C19.6122 6.491 20.4402 5.033 20.2162 3.515C19.9412 1.656 18.5982 0.806998 16.7422 0.512998C15.6872 0.345998 14.6942 0.563996 13.8672 1.038V8.662C15.4222 8.662 16.2272 12.466 16.2742 13.802Z" fill="black"/>
<path opacity="0.9" d="M10.2258 12.779C9.82085 12.116 9.77283 10.994 9.76283 9.65798C9.75883 9.07098 9.75485 8.51598 9.68785 8.02798C9.58485 7.27298 9.38485 6.57398 9.20885 5.95798C8.96385 5.10098 8.75183 4.35998 8.84783 3.71198C8.95983 2.95398 9.32783 2.13898 11.2018 1.84198C11.3668 1.81598 11.5328 1.80298 11.6948 1.80298C11.9788 1.80298 12.2548 1.84198 12.5218 1.91798V7.72998C11.0258 8.73798 10.4398 11.347 10.2258 12.779Z" fill="white"/>
<path d="M13.9296 17.37C13.8886 17.37 13.8626 17.369 13.8546 17.369C13.6896 17.362 13.5606 17.223 13.5666 17.058C13.5726 16.893 13.7096 16.773 13.8776 16.769C14.1676 16.778 20.9646 16.895 21.3446 6.59296C21.3506 6.42796 21.4846 6.29496 21.6556 6.30396C21.8206 6.30996 21.9506 6.44896 21.9446 6.61496C21.7986 10.571 20.7076 13.52 18.7026 15.38C16.6626 17.272 14.3786 17.37 13.9296 17.37Z" fill="#3D964A"/>
<path d="M21.6445 7.027C21.6445 7.027 23.9815 7.623 25.4795 6.407C26.9775 5.191 27.0685 2.623 27.0685 2.623C26.8515 2.543 21.7905 7.059 21.6445 7.027Z" fill="#3DAE54"/>
<path d="M23.2316 3.24297C21.7336 4.45897 21.6426 7.02697 21.6426 7.02697C21.7896 7.05897 26.8496 2.54397 27.0666 2.62397C27.0666 2.62397 24.7296 2.02697 23.2316 3.24297Z" fill="#3DCC74"/>
<path d="M20.4707 12.1659C20.4707 12.1659 22.3137 13.3509 23.8987 12.7459C25.4837 12.1409 26.2107 9.97692 26.2107 9.97692C26.0467 9.84692 20.5877 12.2359 20.4707 12.1659Z" fill="#3DAE54"/>
<path d="M22.7827 9.39695C21.1977 10.0009 20.4707 12.1659 20.4707 12.1659C20.5877 12.2359 26.0467 9.84595 26.2107 9.97795C26.2107 9.97795 24.3677 8.79295 22.7827 9.39695Z" fill="#3DCC74"/>
<path d="M18.0645 15.3319C18.0645 15.3319 19.0145 16.8519 20.3455 16.9929C21.6775 17.1339 22.8864 15.8409 22.8864 15.8409C22.8084 15.6869 18.1265 15.4249 18.0645 15.3319Z" fill="#3DAE54"/>
<path d="M20.6035 14.1799C19.2725 14.0389 18.0625 15.3319 18.0625 15.3319C18.1245 15.4249 22.8075 15.6859 22.8845 15.8399C22.8845 15.8399 21.9355 14.3199 20.6035 14.1799Z" fill="#3DCC74"/>
<path d="M13.8013 17.37C13.3523 17.37 11.0693 17.272 9.02931 15.381C7.02431 13.521 5.93331 10.572 5.78731 6.61596C5.78131 6.44996 5.91031 6.31096 6.07631 6.30496C6.24531 6.29796 6.38132 6.42796 6.38732 6.59396C6.52732 10.385 7.5533 13.194 9.4373 14.941C11.4823 16.838 13.8293 16.772 13.8543 16.77C14.0223 16.764 14.1593 16.893 14.1653 17.059C14.1713 17.224 14.0423 17.364 13.8763 17.37C13.8673 17.369 13.8413 17.37 13.8013 17.37Z" fill="#3D964A"/>
<path d="M6.08707 7.027C6.08707 7.027 3.75008 7.623 2.25208 6.407C0.754075 5.191 0.664062 2.623 0.664062 2.623C0.880063 2.543 5.94107 7.059 6.08707 7.027Z" fill="#3DAE54"/>
<path d="M4.49905 3.24297C5.99705 4.45897 6.08807 7.02697 6.08807 7.02697C5.94107 7.05897 0.881062 2.54397 0.664062 2.62397C0.664062 2.62397 3.00105 2.02697 4.49905 3.24297Z" fill="#3DCC74"/>
<path d="M7.25955 12.1659C7.25955 12.1659 5.41654 13.3509 3.83154 12.7459C2.24654 12.1409 1.51953 9.97692 1.51953 9.97692C1.68353 9.84692 7.14255 12.2359 7.25955 12.1659Z" fill="#3DAE54"/>
<path d="M4.94754 9.39695C6.53254 10.0009 7.25955 12.1659 7.25955 12.1659C7.14255 12.2359 1.68353 9.84595 1.51953 9.97795C1.51953 9.97795 3.36254 8.79295 4.94754 9.39695Z" fill="#3DCC74"/>
<path d="M9.66769 15.3319C9.66769 15.3319 8.71769 16.8519 7.38669 16.9929C6.05469 17.1339 4.8457 15.8409 4.8457 15.8409C4.9237 15.6869 9.60569 15.4249 9.66769 15.3319Z" fill="#3DAE54"/>
<path d="M7.12772 14.1799C8.45872 14.0389 9.66769 15.3319 9.66769 15.3319C9.60569 15.4249 4.9227 15.6859 4.8457 15.8399C4.8457 15.8399 5.79572 14.3199 7.12772 14.1799Z" fill="#3DCC74"/>
</svg>
