<svg width="26" height="11" viewBox="0 0 26 11" fill="none" xmlns="http://www.w3.org/2000/svg">
<path d="M23.6703 4.80602C23.6703 4.80602 22.0033 5.47501 20.3583 5.47501C19.4093 5.47501 18.4553 5.25301 17.8163 5.06401C17.7133 5.02701 17.6063 4.99402 17.4943 4.96402C17.2133 4.87202 17.0463 4.80502 17.0463 4.80502C16.9003 4.80502 16.7593 4.81001 16.6243 4.82001C16.4873 4.81001 16.3453 4.80502 16.1993 4.80502C16.1993 4.80502 14.5323 5.47401 12.8873 5.47401C11.9383 5.47401 10.9843 5.25201 10.3453 5.06301C10.2423 5.02601 10.1353 4.99302 10.0233 4.96302C9.74228 4.87102 9.57529 4.80402 9.57529 4.80402C9.42929 4.80402 9.28829 4.80902 9.15329 4.81902C9.01629 4.80902 8.87429 4.80402 8.72829 4.80402C8.72829 4.80402 7.06129 5.47301 5.41629 5.47301C3.77129 5.47301 2.10429 4.80402 2.10429 4.80402C1.08329 5.15202 0.404297 6.08602 0.404297 7.65202C0.404297 9.21902 2.3123 10.501 4.6433 10.501H7.98129C8.43329 10.501 8.86929 10.452 9.27829 10.362C9.68729 10.451 10.1233 10.501 10.5753 10.501H15.4523C15.9043 10.501 16.3403 10.452 16.7493 10.362C17.1583 10.451 17.5943 10.501 18.0463 10.501H21.1643C23.4953 10.501 25.4033 9.21902 25.4033 7.65202C25.4033 6.08702 24.9293 5.26102 23.6703 4.80602Z" fill="#FF304A"/>
<path opacity="0.1" d="M23.485 5.05402C23.229 5.13802 21.804 5.58302 20.368 5.58302C18.932 5.58302 17.507 5.13802 17.251 5.05402C17.031 5.05502 16.834 5.07001 16.647 5.09201C16.446 5.06901 16.236 5.05602 16.014 5.05402C15.758 5.13802 14.332 5.58302 12.897 5.58302C11.461 5.58302 10.036 5.13802 9.78 5.05402C9.56 5.05502 9.363 5.07001 9.17599 5.09201C8.97499 5.06901 8.765 5.05602 8.543 5.05402C8.287 5.13802 6.86099 5.58302 5.42599 5.58302C3.99 5.58302 2.56499 5.13802 2.30899 5.05402C1.62899 5.31202 1.08398 6.35801 1.08398 7.12901C1.08398 8.27301 1.879 9.20402 3.937 9.20402H7.81C8.331 9.20402 8.82799 9.14402 9.27899 9.03602C9.72999 9.14402 10.227 9.20402 10.748 9.20402H15.281C15.802 9.20402 16.299 9.14402 16.75 9.03602C17.201 9.14402 17.698 9.20402 18.219 9.20402H20.993C23.051 9.20402 24.725 8.27301 24.725 7.12901C24.725 5.85801 24.449 5.51302 23.485 5.05402Z" fill="white"/>
<path d="M16.508 2.14499C16.349 1.06899 15.571 0.576985 14.496 0.405985C13.885 0.308985 13.31 0.434986 12.831 0.709986C12.352 0.434986 11.777 0.308985 11.165 0.405985C10.09 0.575985 9.312 1.06799 9.153 2.14499C9.023 3.02399 9.50201 3.86899 9.63901 4.86399C9.77501 5.85899 9.36701 7.92899 10.753 8.52899C11.068 8.66499 11.424 8.44498 11.436 8.10298C11.463 7.32898 11.93 5.12599 12.831 5.12599C13.732 5.12599 14.198 7.32898 14.226 8.10298C14.238 8.44598 14.595 8.66599 14.909 8.52899C16.294 7.92899 15.886 5.85899 16.022 4.86399C16.159 3.86899 16.638 3.02399 16.508 2.14499Z" fill="#EBEBEB"/>
<path d="M12.8304 1.81396C12.4344 1.59596 11.9594 1.49496 11.4534 1.57196C10.5654 1.70696 9.92243 2.09896 9.79043 2.95396C9.68343 3.65296 9.92443 4.26996 10.0364 5.06096C10.1494 5.85196 9.52844 8.06897 10.9074 8.31397C11.4564 8.41197 11.0194 4.99096 12.8294 4.94696C14.6394 4.99096 14.2034 8.41197 14.7514 8.31397C16.1304 8.06897 15.5094 5.85196 15.6224 5.06096C15.7354 4.26996 15.9764 3.65196 15.8684 2.95396C15.7364 2.09796 15.0934 1.70696 14.2054 1.57196C13.7014 1.49496 13.2264 1.59596 12.8304 1.81396Z" fill="#EBD79B"/>
<path d="M14.749 4.93199C14.764 4.67499 14.734 4.457 14.781 4.235C14.87 3.802 15.017 3.66999 15.009 3.30099C15.005 3.10799 15.092 2.66099 14.238 2.67699C14.169 2.67799 13.986 2.69 13.498 2.9C13.365 2.957 12.993 3.05299 12.852 3.05599C12.712 3.05299 12.482 3.00499 12.254 2.93099C12.049 2.86399 11.785 2.781 11.554 2.722C10.727 2.509 10.699 3.10799 10.695 3.30099C10.687 3.66899 10.834 3.802 10.923 4.235C10.969 4.458 10.939 4.67599 10.955 4.93199C10.962 5.04999 10.351 7.20599 10.695 8.57099C10.774 7.15799 11.111 5.612 11.453 5.067C11.69 4.689 12.282 4.43 12.851 4.416C13.421 4.43 14.013 4.689 14.249 5.067C14.591 5.612 14.928 7.15799 15.007 8.57099C15.353 7.20599 14.742 5.04999 14.749 4.93199Z" fill="#FF304A"/>
<path opacity="0.1" d="M10.9485 5.86996C10.9975 5.60596 11.0455 5.38196 11.0795 5.22496C11.1245 5.01696 11.1355 4.96597 11.1325 4.92197C11.1275 4.83097 11.1275 4.74496 11.1285 4.66196C11.1295 4.51196 11.1305 4.35797 11.0975 4.19897C11.0585 4.00897 11.0095 3.87497 10.9665 3.75697C10.9095 3.60197 10.8685 3.48897 10.8735 3.30497C10.8805 2.98497 10.9865 2.85397 11.2385 2.85397C11.3175 2.85397 11.4085 2.86697 11.5105 2.89297C11.7365 2.95097 11.9975 3.03396 12.1995 3.09896C12.4465 3.17896 12.6885 3.22897 12.8475 3.23297C13.0285 3.22897 13.4255 3.12297 13.5675 3.06197C13.7845 2.96797 14.0775 2.85597 14.2405 2.85297H14.2805C14.5205 2.85297 14.6895 2.89496 14.7665 2.97396C14.8295 3.03796 14.8325 3.12497 14.8305 3.24197C14.8305 3.26397 14.8295 3.28497 14.8305 3.30397C14.8345 3.48797 14.7935 3.59997 14.7375 3.75597C14.6945 3.87397 14.6455 4.00797 14.6065 4.19797C14.5735 4.35597 14.5745 4.51096 14.5755 4.66096C14.5755 4.74396 14.5765 4.82997 14.5715 4.92097C14.5685 4.96497 14.5795 5.01596 14.6245 5.22396C14.6585 5.38096 14.7075 5.60497 14.7555 5.86897C14.6455 5.48297 14.5245 5.16797 14.4015 4.97097C14.1405 4.55397 13.5055 4.25297 12.8565 4.23697C12.1995 4.25297 11.5645 4.55497 11.3035 4.97097C11.1795 5.16897 11.0585 5.48296 10.9485 5.86996Z" fill="black"/>
<path d="M10.7002 8.54398C10.6802 8.54398 10.6642 8.52898 10.6612 8.50898C10.6562 8.46898 10.5502 7.51998 10.6632 7.21898C10.7852 6.89398 10.9142 6.42198 10.9262 6.14898C10.9272 6.13598 11.0052 4.84998 11.2342 4.76198C11.3752 4.70798 11.5042 4.30598 11.4802 4.14698C11.4722 4.09598 11.4282 4.02598 11.3852 3.95798C11.2992 3.82298 11.1932 3.65398 11.3252 3.53298C11.4342 3.43298 11.6852 3.36298 11.9062 3.30198C12.0332 3.26698 12.1532 3.23398 12.1932 3.20698C12.2112 3.19498 12.2352 3.19998 12.2472 3.21798C12.2592 3.23598 12.2542 3.25998 12.2362 3.27198C12.1852 3.30598 12.0712 3.33698 11.9272 3.37698C11.7252 3.43298 11.4732 3.50198 11.3782 3.58998C11.3002 3.66198 11.3562 3.76598 11.4512 3.91598C11.5002 3.99398 11.5472 4.06698 11.5572 4.13498C11.5832 4.30798 11.4582 4.75898 11.2622 4.83398C11.1422 4.87998 11.0232 5.71598 11.0042 6.15198C10.9902 6.46598 10.8362 6.97798 10.7362 7.24598C10.6302 7.52998 10.7372 8.49098 10.7382 8.49998C10.7402 8.52098 10.7252 8.54098 10.7042 8.54298L10.7002 8.54398Z" fill="#29ABE2"/>
<path d="M15.041 8.46301C15.02 8.46301 15.002 8.44601 15.002 8.42501C15.002 8.41701 14.988 7.60701 14.917 7.20201C14.888 7.03701 14.884 6.88701 14.879 6.74201C14.872 6.51801 14.866 6.30701 14.773 6.05501C14.708 5.87901 14.637 5.73601 14.58 5.62101C14.496 5.45201 14.435 5.32901 14.443 5.21301C14.455 5.03101 14.356 4.46801 14.301 4.35901C14.289 4.33401 14.269 4.30501 14.247 4.27101C14.159 4.13801 14.027 3.93601 14.16 3.77101C14.204 3.71601 14.249 3.66801 14.292 3.62101C14.39 3.51601 14.467 3.43301 14.467 3.34601C14.467 3.32501 14.484 3.30701 14.506 3.30701C14.528 3.30701 14.545 3.32401 14.545 3.34601C14.545 3.46401 14.454 3.56101 14.349 3.67401C14.306 3.72001 14.263 3.76701 14.22 3.82001C14.13 3.93201 14.208 4.07201 14.312 4.22901C14.336 4.26501 14.357 4.29701 14.37 4.32501C14.436 4.45601 14.532 5.03301 14.52 5.21901C14.514 5.31401 14.571 5.42901 14.649 5.58701C14.707 5.70401 14.779 5.84901 14.845 6.02801C14.943 6.29201 14.95 6.52001 14.956 6.74001C14.96 6.88201 14.964 7.02901 14.993 7.18801C15.065 7.59901 15.079 8.389 15.08 8.423C15.08 8.445 15.063 8.46301 15.041 8.46301Z" fill="#5E42FF"/>
<path d="M15.0368 8.26296C15.0158 8.26296 14.9988 8.24696 14.9978 8.22596L14.9838 7.89896C14.9638 7.82796 14.8578 7.42495 14.9458 7.31195C15.0058 7.23595 15.0048 7.11396 15.0028 6.95896C15.0028 6.92896 15.0018 6.89796 15.0028 6.86596C15.0038 6.67796 14.8828 6.54396 14.7858 6.43596C14.6658 6.30296 14.6398 5.69096 14.6498 5.47996C14.6568 5.33196 14.6118 5.30196 14.5498 5.26096C14.5188 5.23996 14.4828 5.21696 14.4518 5.17696C14.3978 5.10596 14.2228 4.85996 14.2368 4.65396C14.2448 4.54496 14.3428 4.46296 14.4298 4.39096C14.4888 4.34196 14.5498 4.29096 14.5538 4.25196C14.5648 4.14596 14.4978 4.02696 14.3888 3.96196C14.2558 3.88196 13.9248 3.41196 13.9008 3.36296C13.8908 3.34396 13.8988 3.31996 13.9178 3.31096C13.9368 3.30196 13.9608 3.30896 13.9698 3.32796C13.9948 3.37696 14.3188 3.82896 14.4288 3.89496C14.5648 3.97596 14.6458 4.12296 14.6308 4.25996C14.6228 4.33096 14.5528 4.38896 14.4788 4.44996C14.3998 4.51496 14.3188 4.58296 14.3138 4.65896C14.3038 4.80096 14.4098 4.99496 14.5128 5.12896C14.5358 5.15896 14.5628 5.17696 14.5918 5.19596C14.6598 5.24096 14.7358 5.29096 14.7268 5.48296C14.7138 5.77296 14.7578 6.28896 14.8378 6.37796C14.9428 6.49496 15.0808 6.64696 15.0798 6.86596C15.0798 6.89796 15.0798 6.92796 15.0798 6.95796C15.0808 7.12696 15.0818 7.26196 15.0058 7.35896C14.9588 7.41896 15.0088 7.70296 15.0588 7.88596L15.0738 8.22096C15.0748 8.24196 15.0578 8.26196 15.0368 8.26296Z" fill="#8CC63F"/>
<path d="M10.6513 7.82898C10.6303 7.82898 10.6133 7.81198 10.6123 7.79098C10.6103 7.71898 10.6113 7.62998 10.6153 7.51898C10.6183 7.43298 10.6313 7.34698 10.6613 7.22298C10.6703 7.18698 10.6603 7.16398 10.6513 7.13998C10.6273 7.07998 10.6313 7.03698 10.7243 6.98998C10.7823 6.96098 10.7653 6.88498 10.7333 6.77298C10.7183 6.71898 10.7033 6.66898 10.7033 6.62398V6.38098C10.7033 6.30398 10.7753 6.16298 10.8543 6.02198C10.8873 5.96298 10.8773 5.89198 10.8653 5.80198C10.8583 5.74898 10.8493 5.68798 10.8493 5.62198C10.8493 5.44398 10.9103 5.39898 11.0033 5.33098L11.0333 5.30898C11.1133 5.24998 11.1523 5.08698 11.1693 5.01798C11.1733 5.00198 11.1763 4.98998 11.1783 4.98398C11.1843 4.95898 11.1723 4.81698 11.1623 4.71198C11.1583 4.66898 11.1553 4.62598 11.1523 4.58598C11.1433 4.46798 11.1713 4.36598 11.2113 4.22398C11.2273 4.16698 11.2453 4.10398 11.2623 4.02998C11.3193 3.79198 11.5133 3.83298 11.7593 3.88598C11.8213 3.89898 11.8893 3.91398 11.9613 3.92598C12.2203 3.96898 12.4203 3.78898 12.5643 3.65798C12.6103 3.61598 12.6493 3.57998 12.6863 3.55598C12.7043 3.54398 12.7283 3.54898 12.7403 3.56698C12.7523 3.58498 12.7473 3.60898 12.7293 3.62098C12.6983 3.64198 12.6603 3.67598 12.6163 3.71598C12.4693 3.84998 12.2473 4.05398 11.9483 4.00398C11.8743 3.99198 11.8053 3.97698 11.7423 3.96298C11.4823 3.90698 11.3753 3.89098 11.3373 4.04898C11.3193 4.12398 11.3013 4.18798 11.2853 4.24598C11.2483 4.37998 11.2213 4.47598 11.2293 4.58098C11.2323 4.61998 11.2363 4.66298 11.2393 4.70598C11.2563 4.89298 11.2623 4.97698 11.2513 5.00898C11.2493 5.01498 11.2473 5.02398 11.2443 5.03698C11.2233 5.12098 11.1813 5.29598 11.0793 5.37198L11.0483 5.39498C10.9613 5.45798 10.9263 5.48398 10.9263 5.62298C10.9263 5.68398 10.9333 5.73898 10.9413 5.79198C10.9543 5.88798 10.9673 5.97898 10.9213 6.05998C10.8833 6.12898 10.7803 6.31398 10.7803 6.38098V6.62398C10.7803 6.65798 10.7933 6.70298 10.8073 6.75098C10.8393 6.86098 10.8783 6.99898 10.7593 7.05898C10.7203 7.07898 10.7153 7.08898 10.7153 7.08898C10.7153 7.09198 10.7193 7.10298 10.7233 7.10998C10.7343 7.13798 10.7513 7.17898 10.7373 7.23998C10.7093 7.35998 10.6963 7.43898 10.6933 7.52098C10.6893 7.62998 10.6883 7.71698 10.6903 7.78798C10.6913 7.80898 10.6743 7.82698 10.6523 7.82798L10.6513 7.82898Z" fill="#5E42FF"/>
<path d="M10.653 7.61797C10.636 7.61797 10.62 7.60697 10.615 7.58897C10.553 7.34997 10.639 6.95497 10.716 6.60697C10.757 6.41897 10.796 6.24097 10.803 6.12397C10.815 5.90997 10.877 5.78197 10.981 5.56897C11.043 5.44197 11.12 5.28397 11.21 5.05697C11.438 4.48197 12.196 3.51697 12.287 3.48097C12.307 3.47297 12.33 3.48297 12.338 3.50297C12.346 3.52197 12.337 3.54397 12.318 3.55297C12.239 3.60397 11.513 4.50397 11.282 5.08697C11.191 5.31597 11.113 5.47597 11.05 5.60397C10.951 5.80697 10.891 5.92998 10.88 6.12897C10.873 6.25297 10.834 6.43297 10.791 6.62497C10.716 6.96497 10.632 7.34997 10.689 7.57097C10.694 7.59197 10.682 7.61298 10.661 7.61898C10.661 7.61898 10.656 7.61797 10.653 7.61797Z" fill="#FF8E5C"/>
<path d="M15.0159 7.82898C14.9959 7.82898 14.9789 7.81397 14.9769 7.79397C14.9769 7.78897 14.9369 7.33597 14.8859 6.92297C14.8769 6.84997 14.8689 6.77897 14.8609 6.70997C14.8239 6.39097 14.7919 6.11497 14.7179 5.88197C14.6859 5.78097 14.6599 5.66997 14.6329 5.55297C14.5819 5.33697 14.5239 5.09197 14.4089 4.82397C14.2399 4.43297 13.4449 3.75397 13.3699 3.72297C13.3489 3.72297 13.3359 3.70597 13.3359 3.68497C13.3359 3.66297 13.3579 3.64697 13.3799 3.64697C13.4729 3.64697 14.3059 4.38997 14.4809 4.79297C14.5999 5.06697 14.6579 5.31597 14.7099 5.53597C14.7369 5.65097 14.7629 5.75997 14.7939 5.85897C14.8699 6.09897 14.9029 6.37797 14.9399 6.70197C14.9479 6.77097 14.9559 6.84097 14.9649 6.91497C15.0159 7.32897 15.0559 7.78398 15.0559 7.78798C15.0579 7.80898 15.0419 7.82798 15.0209 7.82998C15.0179 7.82898 15.0159 7.82898 15.0159 7.82898Z" fill="#FF8E5C"/>
<path opacity="0.1" d="M14.2251 8.10298C14.2371 8.44598 14.5931 8.66599 14.9081 8.52899C16.2931 7.92899 15.8851 5.85899 16.0221 4.86399C16.1581 3.86899 16.6381 3.02399 16.5081 2.14499C16.3491 1.06899 15.5711 0.576985 14.4961 0.405985C13.8851 0.308985 13.3101 0.434986 12.8301 0.709986V5.12599C13.7311 5.12599 14.1981 7.32898 14.2251 8.10298Z" fill="black"/>
<path opacity="0.9" d="M9.48577 2.89497C9.44377 2.65497 9.42779 2.41998 9.46179 2.19098C9.58579 1.35298 10.1428 0.883973 11.2138 0.714973C11.3338 0.695973 11.4538 0.685974 11.5728 0.685974C11.9018 0.685974 12.2288 0.760973 12.5278 0.903973L12.5238 1.34797C12.2868 1.27397 12.0398 1.23697 11.7908 1.23697C11.6638 1.23697 11.5348 1.24697 11.4068 1.26597C10.2778 1.43697 9.63077 1.98497 9.48577 2.89497Z" fill="white"/>
<path d="M9.10861 2.39401C8.94962 1.31801 8.17161 0.825009 7.09661 0.655009C6.48561 0.558009 5.91061 0.68401 5.43061 0.95901C4.95161 0.68401 4.37662 0.558009 3.76462 0.655009C2.68962 0.825009 1.91161 1.31701 1.75261 2.39401C1.62261 3.27301 2.10162 4.11801 2.23862 5.11401C2.37462 6.11001 1.96662 8.17901 3.35262 8.78001C3.66762 8.91601 4.02362 8.69601 4.03562 8.35401C4.06262 7.58001 4.52961 5.37601 5.43061 5.37601C6.33161 5.37601 6.79861 7.58001 6.82561 8.35401C6.83761 8.69701 7.19361 8.91701 7.50861 8.78001C8.89461 8.18001 8.48561 6.11001 8.62261 5.11401C8.75861 4.11801 9.23862 3.27301 9.10861 2.39401Z" fill="#EBEBEB"/>
<path opacity="0.1" d="M6.82469 8.35199C6.83669 8.69499 7.19269 8.915 7.50769 8.778C8.89369 8.178 8.48469 6.10799 8.62169 5.11199C8.75769 4.11699 9.2377 3.27199 9.1077 2.39199C8.9487 1.31599 8.17069 0.822995 7.09569 0.652995C6.48469 0.555995 5.90969 0.681996 5.42969 0.956996V5.373C6.33169 5.375 6.79769 7.57799 6.82469 8.35199Z" fill="black"/>
<path opacity="0.9" d="M3.32355 7.759C3.08955 7.375 3.06054 6.725 3.05554 5.951C3.05354 5.611 3.05055 5.29 3.01255 5.007C2.95255 4.57 2.83655 4.165 2.73455 3.808C2.59255 3.311 2.46955 2.883 2.52555 2.507C2.59055 2.068 2.80354 1.596 3.88854 1.424C3.98354 1.409 4.07955 1.401 4.17455 1.401C4.33855 1.401 4.49854 1.424 4.65354 1.468V4.835C3.78654 5.419 3.44655 6.93 3.32355 7.759Z" fill="white"/>
<path d="M23.9074 2.39401C23.7484 1.31801 22.9704 0.825009 21.8954 0.655009C21.2844 0.558009 20.7094 0.68401 20.2294 0.95901C19.7504 0.68401 19.1754 0.558009 18.5634 0.655009C17.4884 0.825009 16.7104 1.31701 16.5514 2.39401C16.4214 3.27301 16.9004 4.11801 17.0374 5.11401C17.1734 6.11001 16.7654 8.17901 18.1514 8.78001C18.4664 8.91601 18.8224 8.69601 18.8344 8.35401C18.8614 7.58001 19.3284 5.37601 20.2294 5.37601C21.1304 5.37601 21.5974 7.58001 21.6244 8.35401C21.6364 8.69701 21.9935 8.91701 22.3075 8.78001C23.6935 8.18001 23.2845 6.11001 23.4215 5.11401C23.5585 4.11801 24.0374 3.27301 23.9074 2.39401Z" fill="#EBEBEB"/>
<path opacity="0.1" d="M21.6235 8.35199C21.6355 8.69499 21.9925 8.915 22.3065 8.778C23.6925 8.178 23.2835 6.10799 23.4205 5.11199C23.5565 4.11699 24.0365 3.27199 23.9065 2.39199C23.7475 1.31599 22.9695 0.822995 21.8945 0.652995C21.2835 0.555995 20.7085 0.681996 20.2285 0.956996V5.373C21.1305 5.375 21.5965 7.57799 21.6235 8.35199Z" fill="black"/>
<path opacity="0.9" d="M18.1224 7.759C17.8884 7.375 17.8594 6.725 17.8544 5.951C17.8524 5.611 17.8494 5.29 17.8114 5.007C17.7514 4.57 17.6354 4.165 17.5334 3.808C17.3914 3.311 17.2684 2.883 17.3244 2.507C17.3894 2.068 17.6024 1.596 18.6874 1.424C18.7824 1.409 18.8784 1.401 18.9734 1.401C19.1374 1.401 19.2974 1.424 19.4524 1.468V4.835C18.5854 5.419 18.2464 6.93 18.1224 7.759Z" fill="white"/>
</svg>
