<svg width="26" height="11" viewBox="0 0 26 11" fill="none" xmlns="http://www.w3.org/2000/svg">
<path d="M9.45428 2.19101C9.29528 1.11501 8.51727 0.623006 7.44227 0.452006C6.83127 0.355006 6.25627 0.482007 5.77627 0.756007C5.29727 0.481007 4.72227 0.355006 4.11027 0.452006C3.03527 0.622006 2.25728 1.11401 2.09828 2.19101C1.96828 3.07001 2.44829 3.91501 2.58429 4.91101C2.72029 5.90701 2.31228 7.97601 3.69828 8.57601C4.01328 8.71201 4.36928 8.49301 4.38128 8.15001C4.40828 7.37601 4.87527 5.17201 5.77627 5.17201C6.67727 5.17201 7.14428 7.37601 7.17128 8.15001C7.18328 8.49301 7.54028 8.71301 7.85428 8.57601C9.24028 7.97601 8.83127 5.90601 8.96827 4.91101C9.10427 3.91501 9.58428 3.07001 9.45428 2.19101Z" fill="#EBEBEB"/>
<path opacity="0.1" d="M7.17039 8.15001C7.18239 8.49301 7.53939 8.71301 7.85339 8.57601C9.23939 7.97601 8.83039 5.90601 8.96739 4.91101C9.10339 3.91501 9.5834 3.07101 9.4534 2.19101C9.2944 1.11501 8.51639 0.62301 7.44139 0.45201C6.83039 0.35501 6.25539 0.482011 5.77539 0.756011V5.17201C6.67639 5.17201 7.14339 7.37601 7.17039 8.15001Z" fill="black"/>
<g opacity="0.9">
<path opacity="0.9" d="M4.00203 3.22598C4.06803 3.01698 4.20803 2.83297 4.40003 2.70297C4.51003 2.50597 4.71804 2.36697 4.96004 2.34197V1.26598C4.80504 1.22198 4.64504 1.19897 4.48104 1.19897C4.38704 1.19897 4.29104 1.20698 4.19504 1.22198C3.10904 1.39398 2.89703 1.86598 2.83203 2.30498C2.79103 2.58098 2.84704 2.88598 2.93604 3.22498L4.00203 3.22598Z" fill="white"/>
</g>
<path d="M16.925 2.19101C16.766 1.11501 15.988 0.623006 14.913 0.452006C14.302 0.355006 13.727 0.482007 13.247 0.756007C12.768 0.481007 12.193 0.355006 11.581 0.452006C10.506 0.622006 9.72802 1.11401 9.56902 2.19101C9.43902 3.07001 9.91801 3.91501 10.055 4.91101C10.191 5.90701 9.78301 7.97601 11.169 8.57601C11.484 8.71201 11.84 8.49301 11.852 8.15001C11.879 7.37601 12.346 5.17201 13.247 5.17201C14.148 5.17201 14.615 7.37601 14.642 8.15001C14.654 8.49301 15.011 8.71301 15.325 8.57601C16.711 7.97601 16.302 5.90601 16.439 4.91101C16.576 3.91601 17.055 3.07001 16.925 2.19101Z" fill="#EBEBEB"/>
<path opacity="0.1" d="M14.6411 8.15001C14.6531 8.49301 15.0101 8.71301 15.3241 8.57601C16.7101 7.97601 16.3011 5.90601 16.4381 4.91101C16.5751 3.91601 17.0541 3.07101 16.9241 2.19101C16.7651 1.11501 15.9871 0.62301 14.9121 0.45201C14.3011 0.35501 13.7261 0.482011 13.2461 0.756011V5.17201C14.1481 5.17201 14.6141 7.37601 14.6411 8.15001Z" fill="black"/>
<g opacity="0.9">
<path opacity="0.9" d="M11.4727 3.22598C11.5387 3.01698 11.6787 2.83297 11.8707 2.70297C11.9807 2.50597 12.1887 2.36697 12.4307 2.34197V1.26598C12.2757 1.22198 12.1157 1.19897 11.9517 1.19897C11.8577 1.19897 11.7617 1.20698 11.6657 1.22198C10.5797 1.39398 10.3677 1.86598 10.3027 2.30498C10.2617 2.58098 10.3177 2.88598 10.4067 3.22498L11.4727 3.22598Z" fill="white"/>
</g>
<path d="M24.3977 2.19101C24.2387 1.11501 23.4607 0.623006 22.3857 0.452006C21.7747 0.355006 21.1997 0.482007 20.7197 0.756007C20.2407 0.481007 19.6657 0.355006 19.0537 0.452006C17.9787 0.622006 17.2007 1.11401 17.0417 2.19101C16.9117 3.07001 17.3907 3.91501 17.5277 4.91101C17.6637 5.90701 17.2557 7.97601 18.6417 8.57601C18.9567 8.71201 19.3127 8.49301 19.3247 8.15001C19.3517 7.37601 19.8187 5.17201 20.7197 5.17201C21.6207 5.17201 22.0877 7.37601 22.1147 8.15001C22.1267 8.49301 22.4827 8.71301 22.7977 8.57601C24.1827 7.97601 23.7747 5.90601 23.9117 4.91101C24.0487 3.91601 24.5277 3.07001 24.3977 2.19101Z" fill="#EBEBEB"/>
<path opacity="0.1" d="M22.1138 8.15001C22.1258 8.49301 22.4818 8.71301 22.7968 8.57601C24.1818 7.97601 23.7738 5.90601 23.9108 4.91101C24.0478 3.91601 24.5267 3.07101 24.3967 2.19101C24.2377 1.11501 23.4598 0.62301 22.3848 0.45201C21.7738 0.35501 21.1987 0.482011 20.7188 0.756011V5.17201C21.6198 5.17201 22.0858 7.37601 22.1138 8.15001Z" fill="black"/>
<g opacity="0.9">
<path opacity="0.9" d="M18.9454 3.22598C19.0114 3.01698 19.1514 2.83297 19.3434 2.70297C19.4534 2.50597 19.6614 2.36697 19.9034 2.34197V1.26598C19.7484 1.22198 19.5884 1.19897 19.4244 1.19897C19.3304 1.19897 19.2344 1.20698 19.1384 1.22198C18.0524 1.39398 17.8404 1.86598 17.7754 2.30498C17.7344 2.58098 17.7904 2.88598 17.8794 3.22498L18.9454 3.22598Z" fill="white"/>
</g>
<path opacity="0.5" d="M24.5556 2.09002C24.3986 1.02602 23.6666 0.384019 22.3816 0.180019C22.2366 0.157019 22.0896 0.14502 21.9446 0.14502C21.6196 0.14502 21.3006 0.203019 20.9956 0.317019C20.9026 0.352019 20.8106 0.392019 20.7196 0.438019C20.3396 0.246019 19.9186 0.146019 19.4956 0.146019C19.3506 0.146019 19.2036 0.158019 19.0586 0.181019C17.9496 0.357019 17.2556 0.86102 16.9846 1.67902C16.7136 0.86102 16.0186 0.357019 14.9106 0.181019C14.7656 0.158019 14.6186 0.146019 14.4736 0.146019C14.1486 0.146019 13.8296 0.20402 13.5246 0.31802C13.4316 0.35302 13.3396 0.393018 13.2496 0.439018C12.8696 0.247018 12.4486 0.147018 12.0256 0.147018C11.8806 0.147018 11.7336 0.159018 11.5886 0.182018C10.4796 0.358018 9.78557 0.86202 9.51457 1.67902C9.24357 0.86202 8.54857 0.357018 7.44057 0.182018C7.29557 0.159018 7.14857 0.147018 7.00357 0.147018C6.67857 0.147018 6.35957 0.205019 6.05457 0.319019C5.96157 0.354019 5.86957 0.39402 5.77957 0.44002C5.39957 0.24802 4.97856 0.14802 4.55556 0.14802C4.41056 0.14802 4.26356 0.16002 4.11856 0.18302C2.83356 0.38702 2.10156 1.03002 1.94456 2.09302C1.85856 2.67602 2.01256 3.21602 2.17656 3.78702C2.23356 3.98502 2.28957 4.18902 2.33757 4.39502H9.22256C9.27056 4.18902 9.32656 3.98502 9.38356 3.78702C9.41356 3.68302 9.44257 3.58102 9.47057 3.47902C9.48657 3.41802 9.50056 3.35802 9.51556 3.29802C9.55556 3.45902 9.60156 3.62102 9.64856 3.78602C9.70556 3.98402 9.76157 4.18802 9.80957 4.39402H16.6946C16.7426 4.18802 16.7986 3.98402 16.8556 3.78602C16.8856 3.68202 16.9146 3.58002 16.9426 3.47802C16.9586 3.41702 16.9726 3.35702 16.9876 3.29602C17.0276 3.45802 17.0736 3.62002 17.1206 3.78502C17.1776 3.98302 17.2336 4.18702 17.2816 4.39302H24.1666C24.2146 4.18702 24.2706 3.98302 24.3276 3.78502C24.3576 3.68102 24.3866 3.57902 24.4146 3.47702C24.4446 3.36502 24.4736 3.25302 24.4976 3.14202C24.5246 3.01902 24.5446 2.90802 24.5586 2.80102C24.5746 2.67802 24.5836 2.56402 24.5836 2.45102C24.5816 2.32702 24.5736 2.20602 24.5556 2.09002Z" fill="#3D969E"/>
<path d="M24.016 4.43004C24.016 4.43004 22.349 5.09904 20.704 5.09904C19.755 5.09904 18.801 4.87704 18.162 4.68804C18.059 4.65104 17.952 4.61804 17.84 4.58804C17.56 4.49604 17.392 4.42904 17.392 4.42904C17.246 4.42904 17.105 4.43404 16.97 4.44404C16.833 4.43404 16.691 4.42904 16.545 4.42904C16.545 4.42904 14.878 5.09804 13.233 5.09804C12.284 5.09804 11.33 4.87604 10.691 4.68704C10.588 4.65004 10.481 4.61704 10.369 4.58704C10.088 4.49504 9.92101 4.42804 9.92101 4.42804C9.77501 4.42804 9.63399 4.43304 9.49899 4.44304C9.36199 4.43304 9.22001 4.42804 9.07401 4.42804C9.07401 4.42804 7.40699 5.09704 5.76199 5.09704C4.11699 5.09704 2.45 4.42804 2.45 4.42804C1.429 4.77604 0.75 5.71004 0.75 7.27604C0.75 8.84204 2.658 10.124 4.989 10.124H8.327C8.779 10.124 9.21499 10.075 9.62399 9.98504C10.033 10.074 10.469 10.124 10.921 10.124H15.798C16.25 10.124 16.686 10.075 17.095 9.98504C17.505 10.074 17.94 10.124 18.392 10.124H21.51C23.841 10.124 25.749 8.84204 25.749 7.27604C25.749 5.71004 25.275 4.88604 24.016 4.43004Z" fill="#FF304A"/>
<path opacity="0.2" d="M23.8307 4.67902C23.5747 4.76302 22.1487 5.20802 20.7137 5.20802C19.2787 5.20802 17.8527 4.76302 17.5967 4.67902C17.3767 4.68002 17.1797 4.69501 16.9927 4.71701C16.7917 4.69401 16.5817 4.68102 16.3597 4.67902C16.1037 4.76302 14.6787 5.20802 13.2427 5.20802C11.8067 5.20802 10.3817 4.76302 10.1257 4.67902C9.90569 4.68002 9.70868 4.69501 9.52168 4.71701C9.32068 4.69401 9.11069 4.68102 8.88869 4.67902C8.63269 4.76302 7.20668 5.20802 5.77168 5.20802C4.33568 5.20802 2.91069 4.76302 2.65469 4.67902C1.97469 4.93702 1.42969 5.98301 1.42969 6.75401C1.42969 7.89802 2.22468 8.82902 4.28268 8.82902H8.15569C8.67669 8.82902 9.17368 8.76901 9.62468 8.66101C10.0757 8.76901 10.5727 8.82902 11.0937 8.82902H15.6267C16.1477 8.82902 16.6447 8.76901 17.0957 8.66101C17.5467 8.76901 18.0437 8.82902 18.5647 8.82902H21.3387C23.3967 8.82902 25.0707 7.89802 25.0707 6.75401C25.0697 5.48301 24.7947 5.13802 23.8307 4.67902Z" fill="white"/>
</svg>
