<svg width="21" height="16" viewBox="0 0 21 16" fill="none" xmlns="http://www.w3.org/2000/svg">
<g id="Group">
<g id="Group_2">
<path id="Vector" d="M15.9241 3.37496C15.6791 1.71996 14.4831 0.962955 12.8301 0.700955C11.8901 0.551955 11.0061 0.745958 10.2691 1.16796C9.53214 0.745958 8.64815 0.550955 7.70815 0.700955C6.05515 0.962955 4.85914 1.71896 4.61414 3.37496C4.41414 4.72696 5.15115 6.02596 5.36115 7.55596C5.57115 9.08696 4.94314 12.269 7.07314 13.192C7.55714 13.402 8.10515 13.064 8.12415 12.537C8.16615 11.347 8.88314 7.95896 10.2691 7.95896C11.6551 7.95896 12.3721 11.347 12.4141 12.537C12.4331 13.064 12.9811 13.402 13.4651 13.192C15.5951 12.269 14.9681 9.08696 15.1771 7.55596C15.3871 6.02596 16.1241 4.72696 15.9241 3.37496Z" fill="#EBEBEB"/>
<path id="Vector_2" opacity="0.1" d="M12.4145 12.5369C12.4335 13.0639 12.9815 13.4019 13.4655 13.1919C15.5955 12.2689 14.9685 9.08694 15.1775 7.55594C15.3875 6.02494 16.1245 4.72593 15.9245 3.37393C15.6795 1.71893 14.4835 0.961938 12.8305 0.699938C11.8905 0.550938 11.0065 0.744941 10.2695 1.16694V7.95694C11.6555 7.95894 12.3725 11.3469 12.4145 12.5369Z" fill="black"/>
<path id="Vector_3" opacity="0.9" d="M7.02712 11.626C6.66712 11.035 6.62312 10.036 6.61512 8.84698C6.61112 8.32398 6.60811 7.82998 6.54811 7.39498C6.45611 6.72298 6.27812 6.09997 6.12112 5.55097C5.90312 4.78697 5.71412 4.12797 5.79912 3.55097C5.89912 2.87597 6.22612 2.14998 7.89512 1.88498C8.04212 1.86198 8.18912 1.84998 8.33412 1.84998C8.58712 1.84998 8.83312 1.88498 9.07112 1.95298V7.12998C7.73912 8.02698 7.21712 10.35 7.02712 11.626Z" fill="white"/>
</g>
<g id="Group_3">
<path id="Vector_4" d="M20.458 11.2C20.458 13.546 17.601 15.466 14.11 15.466H6.80601C3.31501 15.466 0.458008 13.546 0.458008 11.2C0.458008 8.85395 1.81801 6.93396 5.30901 6.93396C5.30901 6.93396 7.80501 7.93596 10.269 7.93596C12.733 7.93596 15.229 6.93396 15.229 6.93396C18.72 6.93396 20.458 8.85395 20.458 11.2Z" fill="#FF304A"/>
<path id="Vector_5" opacity="0.2" d="M7.06361 13.521C3.98161 13.521 1.47461 12.127 1.47461 10.414C1.47461 9.26 2.01361 7.32701 5.61461 7.30701C5.99761 7.43301 8.13261 8.099 10.2826 8.099C12.4326 8.099 14.5676 7.43301 14.9506 7.30701C17.7226 7.32301 19.4416 8.511 19.4416 10.414C19.4416 12.127 16.9346 13.521 13.8526 13.521H7.06361Z" fill="white"/>
</g>
</g>
</svg>
