<svg width="26" height="11" viewBox="0 0 26 11" fill="none" xmlns="http://www.w3.org/2000/svg">
<g id="Group">
<path id="Vector" d="M23.6703 4.80595C23.6703 4.80595 22.0033 5.47495 20.3583 5.47495C19.4093 5.47495 18.4553 5.25295 17.8163 5.06395C17.7133 5.02695 17.6063 4.99395 17.4943 4.96395C17.2133 4.87195 17.0463 4.80495 17.0463 4.80495C16.9003 4.80495 16.7593 4.80995 16.6243 4.81995C16.4873 4.80995 16.3453 4.80495 16.1993 4.80495C16.1993 4.80495 14.5323 5.47395 12.8873 5.47395C11.9383 5.47395 10.9843 5.25195 10.3453 5.06295C10.2423 5.02595 10.1353 4.99296 10.0233 4.96296C9.74228 4.87096 9.57529 4.80396 9.57529 4.80396C9.42929 4.80396 9.28829 4.80895 9.15329 4.81895C9.01629 4.80895 8.87429 4.80396 8.72829 4.80396C8.72829 4.80396 7.06129 5.47295 5.41629 5.47295C3.77129 5.47295 2.10429 4.80396 2.10429 4.80396C1.08329 5.15196 0.404297 6.08595 0.404297 7.65195C0.404297 9.21895 2.3123 10.501 4.6433 10.501H7.98129C8.43329 10.501 8.86929 10.452 9.27829 10.362C9.68729 10.451 10.1233 10.501 10.5753 10.501H15.4523C15.9043 10.501 16.3403 10.452 16.7493 10.362C17.1583 10.451 17.5943 10.501 18.0463 10.501H21.1643C23.4953 10.501 25.4033 9.21895 25.4033 7.65195C25.4033 6.08695 24.9293 5.26095 23.6703 4.80595Z" fill="#FF304A"/>
<path id="Vector_2" opacity="0.1" d="M23.484 5.05396C23.228 5.13796 21.803 5.58295 20.367 5.58295C18.931 5.58295 17.506 5.13796 17.25 5.05396C17.03 5.05496 16.833 5.06995 16.646 5.09195C16.445 5.06895 16.235 5.05596 16.013 5.05396C15.757 5.13796 14.331 5.58295 12.896 5.58295C11.46 5.58295 10.035 5.13796 9.77902 5.05396C9.55902 5.05496 9.36202 5.06995 9.17502 5.09195C8.97402 5.06895 8.76402 5.05596 8.54202 5.05396C8.28602 5.13796 6.86002 5.58295 5.42502 5.58295C3.98902 5.58295 2.56401 5.13796 2.30801 5.05396C1.62801 5.31196 1.08301 6.35795 1.08301 7.12895C1.08301 8.27295 1.87802 9.20396 3.93602 9.20396H7.80902C8.33002 9.20396 8.82701 9.14396 9.27802 9.03596C9.72902 9.14396 10.226 9.20396 10.747 9.20396H15.28C15.801 9.20396 16.298 9.14396 16.749 9.03596C17.2 9.14396 17.697 9.20396 18.218 9.20396H20.992C23.05 9.20396 24.724 8.27295 24.724 7.12895C24.724 5.85795 24.448 5.51296 23.484 5.05396Z" fill="white"/>
<g id="Group_2">
<path id="Vector_3" d="M16.507 2.14499C16.348 1.06899 15.57 0.576985 14.495 0.405985C13.884 0.308985 13.309 0.434986 12.83 0.709986C12.351 0.434986 11.776 0.308985 11.164 0.405985C10.089 0.575985 9.31103 1.06799 9.15203 2.14499C9.02203 3.02399 9.50103 3.86899 9.63803 4.86399C9.77403 5.85899 9.36603 7.92899 10.752 8.52899C11.067 8.66499 11.423 8.44498 11.435 8.10298C11.462 7.32898 11.929 5.12599 12.83 5.12599C13.731 5.12599 14.197 7.32898 14.225 8.10298C14.237 8.44598 14.594 8.66599 14.908 8.52899C16.293 7.92899 15.885 5.85899 16.021 4.86399C16.158 3.86899 16.637 3.02399 16.507 2.14499Z" fill="#EBEBEB"/>
<path id="Vector_4" d="M12.8304 1.81402C12.4344 1.59602 11.9594 1.49502 11.4534 1.57202C10.5654 1.70702 9.92243 2.09902 9.79043 2.95402C9.68343 3.65302 9.92443 4.27002 10.0364 5.06102C10.1494 5.85203 9.52844 8.06903 10.9074 8.31403C11.4564 8.41203 11.0194 4.99102 12.8294 4.94702C14.6394 4.99102 14.2034 8.41203 14.7514 8.31403C16.1304 8.06903 15.5094 5.85203 15.6224 5.06102C15.7354 4.27002 15.9764 3.65202 15.8684 2.95402C15.7364 2.09802 15.0934 1.70702 14.2054 1.57202C13.7014 1.49502 13.2264 1.59602 12.8304 1.81402Z" fill="#EBD79B"/>
<path id="Vector_5" d="M14.748 4.93193C14.763 4.67493 14.733 4.45693 14.78 4.23493C14.869 3.80193 15.016 3.66993 15.008 3.30093C15.004 3.10793 15.091 2.66093 14.237 2.67693C14.168 2.67793 13.985 2.68994 13.497 2.89994C13.364 2.95694 12.992 3.05293 12.851 3.05593C12.711 3.05293 12.481 3.00493 12.253 2.93093C12.048 2.86393 11.784 2.78093 11.553 2.72193C10.726 2.50893 10.698 3.10793 10.694 3.30093C10.686 3.66893 10.833 3.80193 10.922 4.23493C10.968 4.45793 10.938 4.67593 10.954 4.93193C10.961 5.04993 10.35 7.20593 10.694 8.57093C10.773 7.15793 11.11 5.61194 11.452 5.06694C11.689 4.68894 12.281 4.42993 12.85 4.41593C13.42 4.42993 14.012 4.68894 14.248 5.06694C14.59 5.61194 14.927 7.15793 15.006 8.57093C15.352 7.20593 14.741 5.04993 14.748 4.93193Z" fill="#FF304A"/>
<path id="Vector_6" opacity="0.1" d="M10.9485 5.87003C10.9975 5.60603 11.0455 5.38203 11.0795 5.22503C11.1245 5.01703 11.1355 4.96603 11.1325 4.92203C11.1275 4.83103 11.1275 4.74503 11.1285 4.66203C11.1295 4.51203 11.1305 4.35803 11.0975 4.19903C11.0585 4.00903 11.0095 3.87503 10.9665 3.75703C10.9095 3.60203 10.8685 3.48903 10.8735 3.30503C10.8805 2.98503 10.9865 2.85403 11.2385 2.85403C11.3175 2.85403 11.4085 2.86703 11.5105 2.89303C11.7365 2.95103 11.9975 3.03403 12.1995 3.09903C12.4465 3.17903 12.6885 3.22903 12.8475 3.23303C13.0285 3.22903 13.4255 3.12303 13.5675 3.06203C13.7845 2.96803 14.0775 2.85603 14.2405 2.85303H14.2805C14.5205 2.85303 14.6895 2.89503 14.7665 2.97403C14.8295 3.03803 14.8325 3.12503 14.8305 3.24203C14.8305 3.26403 14.8295 3.28503 14.8305 3.30403C14.8345 3.48803 14.7935 3.60003 14.7375 3.75603C14.6945 3.87403 14.6455 4.00803 14.6065 4.19803C14.5735 4.35603 14.5745 4.51103 14.5755 4.66103C14.5755 4.74403 14.5765 4.83003 14.5715 4.92103C14.5685 4.96503 14.5795 5.01603 14.6245 5.22403C14.6585 5.38103 14.7075 5.60503 14.7555 5.86903C14.6455 5.48303 14.5245 5.16803 14.4015 4.97103C14.1405 4.55403 13.5055 4.25303 12.8565 4.23703C12.1995 4.25303 11.5645 4.55503 11.3035 4.97103C11.1795 5.16903 11.0585 5.48303 10.9485 5.87003Z" fill="black"/>
<g id="Group_3">
<g id="Group_4">
<path id="Vector_7" d="M10.6992 8.54398C10.6792 8.54398 10.6632 8.52898 10.6602 8.50898C10.6552 8.46898 10.5492 7.51998 10.6622 7.21898C10.7842 6.89398 10.9132 6.42198 10.9252 6.14898C10.9262 6.13598 11.0042 4.84998 11.2332 4.76198C11.3742 4.70798 11.5032 4.30598 11.4792 4.14698C11.4712 4.09598 11.4272 4.02598 11.3842 3.95798C11.2982 3.82298 11.1922 3.65398 11.3242 3.53298C11.4332 3.43298 11.6842 3.36298 11.9052 3.30198C12.0322 3.26698 12.1522 3.23398 12.1922 3.20698C12.2102 3.19498 12.2342 3.19998 12.2462 3.21798C12.2582 3.23598 12.2532 3.25998 12.2352 3.27198C12.1842 3.30598 12.0702 3.33698 11.9262 3.37698C11.7242 3.43298 11.4722 3.50198 11.3772 3.58998C11.2992 3.66198 11.3552 3.76598 11.4502 3.91598C11.4992 3.99398 11.5462 4.06698 11.5562 4.13498C11.5822 4.30798 11.4572 4.75898 11.2612 4.83398C11.1412 4.87998 11.0223 5.71598 11.0033 6.15198C10.9893 6.46598 10.8352 6.97798 10.7352 7.24598C10.6292 7.52998 10.7362 8.49098 10.7372 8.49998C10.7392 8.52098 10.7242 8.54098 10.7032 8.54298L10.6992 8.54398Z" fill="#29ABE2"/>
</g>
<g id="Group_5">
<path id="Vector_8" d="M15.04 8.46301C15.019 8.46301 15.0011 8.44601 15.0011 8.42501C15.0011 8.41701 14.987 7.60701 14.916 7.20201C14.887 7.03701 14.8831 6.88701 14.8781 6.74201C14.8711 6.51801 14.8651 6.30701 14.7721 6.05501C14.7071 5.87901 14.636 5.73601 14.579 5.62101C14.495 5.45201 14.434 5.32901 14.442 5.21301C14.454 5.03101 14.3551 4.46801 14.3001 4.35901C14.2881 4.33401 14.2681 4.30501 14.2461 4.27101C14.1581 4.13801 14.026 3.93601 14.159 3.77101C14.203 3.71601 14.248 3.66801 14.291 3.62101C14.389 3.51601 14.4661 3.43301 14.4661 3.34601C14.4661 3.32501 14.4831 3.30701 14.5051 3.30701C14.5271 3.30701 14.5441 3.32401 14.5441 3.34601C14.5441 3.46401 14.4531 3.56101 14.3481 3.67401C14.3051 3.72001 14.262 3.76701 14.219 3.82001C14.129 3.93201 14.2071 4.07201 14.3111 4.22901C14.3351 4.26501 14.3561 4.29701 14.3691 4.32501C14.4351 4.45601 14.531 5.03301 14.519 5.21901C14.513 5.31401 14.57 5.42901 14.648 5.58701C14.706 5.70401 14.778 5.84901 14.844 6.02801C14.942 6.29201 14.9491 6.52001 14.9551 6.74001C14.9591 6.88201 14.9631 7.02901 14.9921 7.18801C15.0641 7.59901 15.078 8.389 15.079 8.423C15.079 8.445 15.062 8.46301 15.04 8.46301Z" fill="#5E42FF"/>
</g>
<g id="Group_6">
<path id="Vector_9" d="M15.0349 8.26302C15.0139 8.26302 14.9969 8.24702 14.9959 8.22602L14.9819 7.89902C14.9619 7.82802 14.8559 7.42502 14.9439 7.31202C15.0039 7.23602 15.0029 7.11402 15.0009 6.95902C15.0009 6.92902 14.9999 6.89802 15.0009 6.86602C15.0019 6.67802 14.8809 6.54402 14.7839 6.43602C14.6639 6.30302 14.6379 5.69102 14.6479 5.48002C14.6549 5.33202 14.6099 5.30202 14.5479 5.26102C14.5169 5.24002 14.4809 5.21702 14.4499 5.17702C14.3959 5.10602 14.2209 4.86002 14.2349 4.65402C14.2429 4.54502 14.3409 4.46302 14.4279 4.39102C14.4869 4.34202 14.5479 4.29102 14.5519 4.25202C14.5629 4.14602 14.4959 4.02702 14.3869 3.96202C14.2539 3.88202 13.9229 3.41202 13.8989 3.36302C13.8889 3.34402 13.8969 3.32002 13.9159 3.31102C13.9349 3.30202 13.9589 3.30902 13.9679 3.32802C13.9929 3.37702 14.3169 3.82902 14.4269 3.89502C14.5629 3.97602 14.6439 4.12302 14.6289 4.26002C14.6209 4.33102 14.5509 4.38902 14.4769 4.45002C14.3979 4.51502 14.3169 4.58302 14.3119 4.65902C14.3019 4.80102 14.4079 4.99502 14.5109 5.12902C14.5339 5.15902 14.5609 5.17702 14.5899 5.19602C14.6579 5.24102 14.7339 5.29102 14.7249 5.48302C14.7119 5.77302 14.7559 6.28902 14.8359 6.37802C14.9409 6.49502 15.0789 6.64702 15.0779 6.86602C15.0779 6.89802 15.0779 6.92802 15.0779 6.95802C15.0789 7.12702 15.0799 7.26202 15.0039 7.35902C14.9569 7.41902 15.0069 7.70302 15.0569 7.88602L15.0719 8.22102C15.0729 8.24202 15.0559 8.26202 15.0349 8.26302Z" fill="#8CC63F"/>
</g>
<g id="Group_7">
<path id="Vector_10" d="M10.6513 7.82898C10.6303 7.82898 10.6133 7.81198 10.6123 7.79098C10.6103 7.71898 10.6113 7.62998 10.6153 7.51898C10.6183 7.43298 10.6313 7.34698 10.6613 7.22298C10.6703 7.18698 10.6603 7.16398 10.6513 7.13998C10.6273 7.07998 10.6313 7.03698 10.7243 6.98998C10.7823 6.96098 10.7653 6.88498 10.7333 6.77298C10.7183 6.71898 10.7033 6.66898 10.7033 6.62398V6.38098C10.7033 6.30398 10.7753 6.16298 10.8543 6.02198C10.8873 5.96298 10.8773 5.89198 10.8653 5.80198C10.8583 5.74898 10.8493 5.68798 10.8493 5.62198C10.8493 5.44398 10.9103 5.39898 11.0033 5.33098L11.0333 5.30898C11.1133 5.24998 11.1523 5.08698 11.1693 5.01798C11.1733 5.00198 11.1763 4.98998 11.1783 4.98398C11.1843 4.95898 11.1723 4.81698 11.1623 4.71198C11.1583 4.66898 11.1553 4.62598 11.1523 4.58598C11.1433 4.46798 11.1713 4.36598 11.2113 4.22398C11.2273 4.16698 11.2453 4.10398 11.2623 4.02998C11.3193 3.79198 11.5133 3.83298 11.7593 3.88598C11.8213 3.89898 11.8893 3.91398 11.9613 3.92598C12.2203 3.96898 12.4203 3.78898 12.5643 3.65798C12.6103 3.61598 12.6493 3.57998 12.6863 3.55598C12.7043 3.54398 12.7283 3.54898 12.7403 3.56698C12.7523 3.58498 12.7473 3.60898 12.7293 3.62098C12.6983 3.64198 12.6603 3.67598 12.6163 3.71598C12.4693 3.84998 12.2473 4.05398 11.9483 4.00398C11.8743 3.99198 11.8053 3.97698 11.7423 3.96298C11.4823 3.90698 11.3753 3.89098 11.3373 4.04898C11.3193 4.12398 11.3013 4.18798 11.2853 4.24598C11.2483 4.37998 11.2213 4.47598 11.2293 4.58098C11.2323 4.61998 11.2363 4.66298 11.2393 4.70598C11.2563 4.89298 11.2623 4.97698 11.2513 5.00898C11.2493 5.01498 11.2473 5.02398 11.2443 5.03698C11.2233 5.12098 11.1813 5.29598 11.0793 5.37198L11.0483 5.39498C10.9613 5.45798 10.9263 5.48398 10.9263 5.62298C10.9263 5.68398 10.9333 5.73898 10.9413 5.79198C10.9543 5.88798 10.9673 5.97898 10.9213 6.05998C10.8833 6.12898 10.7803 6.31398 10.7803 6.38098V6.62398C10.7803 6.65798 10.7933 6.70298 10.8073 6.75098C10.8393 6.86098 10.8783 6.99898 10.7593 7.05898C10.7203 7.07898 10.7153 7.08898 10.7153 7.08898C10.7153 7.09198 10.7193 7.10298 10.7233 7.10998C10.7343 7.13798 10.7513 7.17898 10.7373 7.23998C10.7093 7.35998 10.6963 7.43898 10.6933 7.52098C10.6893 7.62998 10.6883 7.71698 10.6903 7.78798C10.6913 7.80898 10.6743 7.82698 10.6523 7.82798L10.6513 7.82898Z" fill="#5E42FF"/>
</g>
</g>
<g id="Group_8">
<path id="Vector_11" d="M10.652 7.61803C10.635 7.61803 10.619 7.60703 10.614 7.58903C10.552 7.35003 10.638 6.95503 10.715 6.60703C10.756 6.41903 10.795 6.24103 10.802 6.12403C10.814 5.91003 10.876 5.78203 10.98 5.56903C11.042 5.44203 11.119 5.28403 11.209 5.05703C11.437 4.48203 12.195 3.51703 12.286 3.48103C12.306 3.47303 12.329 3.48303 12.337 3.50303C12.345 3.52203 12.336 3.54404 12.317 3.55304C12.238 3.60404 11.512 4.50404 11.281 5.08704C11.19 5.31604 11.112 5.47603 11.049 5.60403C10.95 5.80703 10.89 5.93004 10.879 6.12904C10.872 6.25304 10.833 6.43303 10.79 6.62503C10.715 6.96503 10.631 7.35003 10.688 7.57103C10.693 7.59203 10.681 7.61304 10.66 7.61904C10.66 7.61904 10.655 7.61803 10.652 7.61803Z" fill="#FF8E5C"/>
</g>
<g id="Group_9">
<path id="Vector_12" d="M15.015 7.82898C14.995 7.82898 14.978 7.81397 14.976 7.79397C14.976 7.78897 14.9359 7.33597 14.8849 6.92297C14.8759 6.84997 14.868 6.77897 14.86 6.70997C14.823 6.39097 14.7909 6.11497 14.7169 5.88197C14.6849 5.78097 14.659 5.66997 14.632 5.55297C14.581 5.33697 14.523 5.09197 14.408 4.82397C14.239 4.43297 13.444 3.75397 13.369 3.72297C13.348 3.72297 13.335 3.70597 13.335 3.68497C13.335 3.66297 13.357 3.64697 13.379 3.64697C13.472 3.64697 14.3049 4.38997 14.4799 4.79297C14.5989 5.06697 14.657 5.31597 14.709 5.53597C14.736 5.65097 14.762 5.75997 14.793 5.85897C14.869 6.09897 14.9019 6.37797 14.9389 6.70197C14.9469 6.77097 14.955 6.84097 14.964 6.91497C15.015 7.32897 15.0549 7.78398 15.0549 7.78798C15.0569 7.80898 15.041 7.82798 15.02 7.82998C15.017 7.82898 15.015 7.82898 15.015 7.82898Z" fill="#FF8E5C"/>
</g>
<path id="Vector_13" opacity="0.1" d="M14.2251 8.10298C14.2371 8.44598 14.5931 8.66599 14.9081 8.52899C16.2931 7.92899 15.8851 5.85899 16.0221 4.86399C16.1581 3.86899 16.6381 3.02399 16.5081 2.14499C16.3491 1.06899 15.5711 0.576985 14.4961 0.405985C13.8851 0.308985 13.3101 0.434986 12.8301 0.709986V5.12599C13.7311 5.12599 14.1981 7.32898 14.2251 8.10298Z" fill="black"/>
<path id="Vector_14" opacity="0.9" d="M9.48382 2.89503C9.44182 2.65503 9.42583 2.42004 9.45983 2.19104C9.58383 1.35304 10.1408 0.884034 11.2118 0.715034C11.3318 0.696034 11.4518 0.686035 11.5708 0.686035C11.8998 0.686035 12.2268 0.761034 12.5258 0.904034L12.5218 1.34803C12.2848 1.27403 12.0378 1.23703 11.7888 1.23703C11.6618 1.23703 11.5328 1.24703 11.4048 1.26603C10.2758 1.43703 9.62882 1.98503 9.48382 2.89503Z" fill="white"/>
</g>
<g id="Group_10">
<path id="Vector_15" d="M9.10861 2.39389C8.94962 1.31789 8.17161 0.824887 7.09661 0.654887C6.48561 0.557887 5.91061 0.683888 5.43061 0.958888C4.95161 0.683888 4.37662 0.557887 3.76462 0.654887C2.68962 0.824887 1.91161 1.31689 1.75261 2.39389C1.62261 3.27289 2.10162 4.11789 2.23862 5.11389C2.37462 6.10989 1.96662 8.17889 3.35262 8.77989C3.66762 8.91589 4.02362 8.69588 4.03562 8.35388C4.06262 7.57988 4.52961 5.37589 5.43061 5.37589C6.33161 5.37589 6.79861 7.57988 6.82561 8.35388C6.83761 8.69688 7.19361 8.91689 7.50861 8.77989C8.89461 8.17989 8.48561 6.10989 8.62261 5.11389C8.75861 4.11789 9.23862 3.27289 9.10861 2.39389Z" fill="#EBEBEB"/>
<path id="Vector_16" opacity="0.1" d="M6.82567 8.35193C6.83767 8.69493 7.19367 8.91493 7.50867 8.77793C8.89467 8.17793 8.48567 6.10793 8.62267 5.11193C8.75867 4.11693 9.23867 3.27193 9.10867 2.39193C8.94967 1.31593 8.17166 0.822934 7.09666 0.652934C6.48566 0.555934 5.91066 0.681934 5.43066 0.956934V5.37293C6.33266 5.37493 6.79867 7.57793 6.82567 8.35193Z" fill="black"/>
<path id="Vector_17" opacity="0.9" d="M3.32257 7.75888C3.08857 7.37488 3.05957 6.72488 3.05457 5.95088C3.05257 5.61088 3.04957 5.28988 3.01157 5.00688C2.95157 4.56988 2.83557 4.16488 2.73357 3.80788C2.59157 3.31088 2.46857 2.88288 2.52457 2.50688C2.58957 2.06788 2.80256 1.59588 3.88756 1.42388C3.98256 1.40888 4.07857 1.40088 4.17357 1.40088C4.33757 1.40088 4.49756 1.42388 4.65256 1.46788V4.83488C3.78556 5.41888 3.44557 6.92988 3.32257 7.75888Z" fill="white"/>
</g>
<g id="Group_11">
<path id="Vector_18" d="M23.9074 2.39389C23.7484 1.31789 22.9704 0.824887 21.8954 0.654887C21.2844 0.557887 20.7094 0.683888 20.2294 0.958888C19.7504 0.683888 19.1754 0.557887 18.5634 0.654887C17.4884 0.824887 16.7104 1.31689 16.5514 2.39389C16.4214 3.27289 16.9004 4.11789 17.0374 5.11389C17.1734 6.10989 16.7654 8.17889 18.1514 8.77989C18.4664 8.91589 18.8224 8.69588 18.8344 8.35388C18.8614 7.57988 19.3284 5.37589 20.2294 5.37589C21.1304 5.37589 21.5974 7.57988 21.6244 8.35388C21.6364 8.69688 21.9935 8.91689 22.3075 8.77989C23.6935 8.17989 23.2845 6.10989 23.4215 5.11389C23.5585 4.11789 24.0374 3.27289 23.9074 2.39389Z" fill="#EBEBEB"/>
<path id="Vector_19" opacity="0.1" d="M21.6245 8.35193C21.6365 8.69493 21.9935 8.91493 22.3075 8.77793C23.6935 8.17793 23.2845 6.10793 23.4215 5.11193C23.5575 4.11693 24.0375 3.27193 23.9075 2.39193C23.7485 1.31593 22.9705 0.822934 21.8955 0.652934C21.2845 0.555934 20.7095 0.681934 20.2295 0.956934V5.37293C21.1315 5.37493 21.5975 7.57793 21.6245 8.35193Z" fill="black"/>
<path id="Vector_20" opacity="0.9" d="M18.1214 7.75888C17.8874 7.37488 17.8584 6.72488 17.8534 5.95088C17.8514 5.61088 17.8484 5.28988 17.8104 5.00688C17.7504 4.56988 17.6344 4.16488 17.5324 3.80788C17.3904 3.31088 17.2674 2.88288 17.3234 2.50688C17.3884 2.06788 17.6014 1.59588 18.6864 1.42388C18.7814 1.40888 18.8774 1.40088 18.9724 1.40088C19.1364 1.40088 19.2964 1.42388 19.4514 1.46788V4.83488C18.5844 5.41888 18.2454 6.92988 18.1214 7.75888Z" fill="white"/>
</g>
</g>
</svg>
