<svg width="28" height="18" viewBox="0 0 28 18" fill="none" xmlns="http://www.w3.org/2000/svg">
<g id="Group">
<g id="Group_2">
<path id="Vector" d="M20.2146 3.515C19.9396 1.656 18.5966 0.806998 16.7406 0.512998C15.6856 0.345998 14.6926 0.563996 13.8656 1.038C13.0386 0.563996 12.0456 0.345998 10.9896 0.512998C9.13363 0.806998 7.79063 1.656 7.51563 3.515C7.29163 5.033 8.11865 6.491 8.35465 8.21C8.58965 9.929 7.88565 13.502 10.2777 14.538C10.8207 14.773 11.4366 14.394 11.4576 13.802C11.5046 12.466 12.3096 8.662 13.8656 8.662C15.4216 8.662 16.2266 12.466 16.2736 13.802C16.2946 14.394 16.9096 14.773 17.4536 14.538C19.8456 13.502 19.1407 9.929 19.3767 8.21C19.6107 6.492 20.4386 5.033 20.2146 3.515Z" fill="#EBEBEB"/>
<path id="Vector_2" opacity="0.1" d="M16.2732 13.802C16.2942 14.394 16.9092 14.773 17.4532 14.538C19.8452 13.502 19.1402 9.929 19.3762 8.21C19.6112 6.491 20.4392 5.033 20.2152 3.515C19.9402 1.656 18.5972 0.806998 16.7412 0.512998C15.6862 0.345998 14.6932 0.563996 13.8662 1.038V8.662C15.4212 8.662 16.2262 12.466 16.2732 13.802Z" fill="black"/>
<path id="Vector_3" opacity="0.9" d="M10.2249 12.779C9.81987 12.116 9.77186 10.994 9.76186 9.65798C9.75786 9.07098 9.75388 8.51598 9.68688 8.02798C9.58388 7.27298 9.38387 6.57398 9.20787 5.95798C8.96287 5.10098 8.75085 4.35998 8.84685 3.71198C8.95885 2.95398 9.32685 2.13898 11.2009 1.84198C11.3659 1.81598 11.5319 1.80298 11.6939 1.80298C11.9779 1.80298 12.2539 1.84198 12.5209 1.91798V7.72998C11.0249 8.73798 10.4389 11.347 10.2249 12.779Z" fill="white"/>
</g>
<g id="Group_3">
<g id="Group_4">
<path id="Vector_4" d="M13.9286 17.37C13.8876 17.37 13.8616 17.369 13.8536 17.369C13.6886 17.362 13.5596 17.223 13.5656 17.058C13.5716 16.893 13.7086 16.773 13.8766 16.769C14.1666 16.778 20.9636 16.895 21.3436 6.59302C21.3496 6.42802 21.4836 6.29502 21.6546 6.30402C21.8196 6.31002 21.9496 6.44902 21.9436 6.61502C21.7976 10.571 20.7066 13.52 18.7016 15.38C16.6616 17.272 14.3776 17.37 13.9286 17.37Z" fill="#3D964A"/>
</g>
<g id="Group_5">
<g id="Group_6">
<path id="Vector_5" d="M21.6436 7.027C21.6436 7.027 23.9805 7.623 25.4785 6.407C26.9765 5.191 27.0675 2.623 27.0675 2.623C26.8505 2.543 21.7896 7.059 21.6436 7.027Z" fill="#3DAE54"/>
</g>
<g id="Group_7">
<path id="Vector_6" d="M23.2316 3.24297C21.7336 4.45897 21.6426 7.02697 21.6426 7.02697C21.7896 7.05897 26.8496 2.54397 27.0666 2.62397C27.0666 2.62397 24.7296 2.02697 23.2316 3.24297Z" fill="#3DCC74"/>
</g>
</g>
<g id="Group_8">
<g id="Group_9">
<path id="Vector_7" d="M20.4707 12.166C20.4707 12.166 22.3137 13.351 23.8987 12.746C25.4837 12.141 26.2107 9.97704 26.2107 9.97704C26.0467 9.84704 20.5877 12.236 20.4707 12.166Z" fill="#3DAE54"/>
</g>
<g id="Group_10">
<path id="Vector_8" d="M22.7827 9.39701C21.1977 10.001 20.4707 12.166 20.4707 12.166C20.5877 12.236 26.0467 9.84601 26.2107 9.97801C26.2107 9.97801 24.3677 8.79301 22.7827 9.39701Z" fill="#3DCC74"/>
</g>
</g>
<g id="Group_11">
<g id="Group_12">
<path id="Vector_9" d="M18.0645 15.3319C18.0645 15.3319 19.0145 16.8519 20.3455 16.9929C21.6775 17.1339 22.8864 15.8409 22.8864 15.8409C22.8084 15.6869 18.1265 15.4249 18.0645 15.3319Z" fill="#3DAE54"/>
</g>
<g id="Group_13">
<path id="Vector_10" d="M20.6045 14.1799C19.2735 14.0389 18.0635 15.3319 18.0635 15.3319C18.1255 15.4249 22.8085 15.6859 22.8855 15.8399C22.8855 15.8399 21.9365 14.3199 20.6045 14.1799Z" fill="#3DCC74"/>
</g>
</g>
<g id="Group_14">
<path id="Vector_11" d="M13.8023 17.37C13.3533 17.37 11.0703 17.272 9.03029 15.381C7.02529 13.521 5.93429 10.572 5.78829 6.61596C5.78229 6.44996 5.91129 6.31096 6.07729 6.30496C6.24629 6.29796 6.38229 6.42796 6.38829 6.59396C6.52829 10.385 7.55428 13.194 9.43828 14.941C11.4833 16.838 13.8303 16.772 13.8553 16.77C14.0233 16.764 14.1603 16.893 14.1663 17.059C14.1723 17.224 14.0433 17.364 13.8773 17.37C13.8683 17.369 13.8423 17.37 13.8023 17.37Z" fill="#3D964A"/>
</g>
<g id="Group_15">
<g id="Group_16">
<path id="Vector_12" d="M6.08707 7.027C6.08707 7.027 3.75008 7.623 2.25208 6.407C0.754075 5.191 0.664062 2.623 0.664062 2.623C0.880063 2.543 5.94107 7.059 6.08707 7.027Z" fill="#3DAE54"/>
</g>
<g id="Group_17">
<path id="Vector_13" d="M4.49905 3.24297C5.99705 4.45897 6.08807 7.02697 6.08807 7.02697C5.94107 7.05897 0.881062 2.54397 0.664062 2.62397C0.664062 2.62397 3.00105 2.02697 4.49905 3.24297Z" fill="#3DCC74"/>
</g>
</g>
<g id="Group_18">
<g id="Group_19">
<path id="Vector_14" d="M7.26053 12.166C7.26053 12.166 5.41752 13.351 3.83252 12.746C2.24752 12.141 1.52051 9.97704 1.52051 9.97704C1.68451 9.84704 7.14353 12.236 7.26053 12.166Z" fill="#3DAE54"/>
</g>
<g id="Group_20">
<path id="Vector_15" d="M4.94852 9.39701C6.53352 10.001 7.26053 12.166 7.26053 12.166C7.14353 12.236 1.68451 9.84601 1.52051 9.97801C1.52051 9.97801 3.36352 8.79301 4.94852 9.39701Z" fill="#3DCC74"/>
</g>
</g>
<g id="Group_21">
<g id="Group_22">
<path id="Vector_16" d="M9.66672 15.3319C9.66672 15.3319 8.71671 16.8519 7.38571 16.9929C6.05371 17.1339 4.84473 15.8409 4.84473 15.8409C4.92273 15.6869 9.60472 15.4249 9.66672 15.3319Z" fill="#3DAE54"/>
</g>
<g id="Group_23">
<path id="Vector_17" d="M7.12674 14.1799C8.45774 14.0389 9.66672 15.3319 9.66672 15.3319C9.60472 15.4249 4.92173 15.6859 4.84473 15.8399C4.84473 15.8399 5.79474 14.3199 7.12674 14.1799Z" fill="#3DCC74"/>
</g>
</g>
</g>
</g>
</svg>
