<svg width="26" height="10" viewBox="0 0 26 10" fill="none" xmlns="http://www.w3.org/2000/svg">
<g id="Group">
<g id="Group_2">
<g id="Group_3">
<path id="Vector" d="M9.06368 1.93099C8.90468 0.854995 8.12669 0.361996 7.05168 0.191996C6.44068 0.0949961 5.86567 0.220997 5.38567 0.495997C4.90667 0.220997 4.33168 0.0949961 3.71968 0.191996C2.64468 0.361996 1.86669 0.853994 1.70769 1.93099C1.57769 2.80999 2.05668 3.655 2.19368 4.651C2.32968 5.646 1.9217 7.716 3.3077 8.316C3.6227 8.452 3.97868 8.23299 3.99068 7.88999C4.01768 7.11599 4.48467 4.912 5.38567 4.912C6.28667 4.912 6.75369 7.11599 6.78069 7.88999C6.79269 8.23299 7.14867 8.453 7.46367 8.316C8.84867 7.716 8.44069 5.646 8.57769 4.651C8.71369 3.655 9.19368 2.80999 9.06368 1.93099Z" fill="#EBEBEB"/>
<path id="Vector_2" opacity="0.1" d="M6.78076 7.88999C6.79276 8.23299 7.14875 8.453 7.46375 8.316C8.84875 7.716 8.44076 5.646 8.57776 4.651C8.71376 3.656 9.19375 2.81099 9.06375 1.93099C8.90475 0.853994 8.12676 0.361996 7.05176 0.191996C6.44076 0.0949961 5.86574 0.220997 5.38574 0.495997V4.912C6.28674 4.912 6.75376 7.11599 6.78076 7.88999Z" fill="black"/>
<g id="Group_4" opacity="0.9">
<path id="Vector_3" opacity="0.9" d="M3.61042 2.96496C3.67642 2.75596 3.81643 2.57196 4.00843 2.44296C4.11843 2.24596 4.32542 2.10696 4.56842 2.08196V1.00596C4.41342 0.961959 4.25342 0.938965 4.08942 0.938965C3.99542 0.938965 3.89941 0.94696 3.80341 0.96196C2.71741 1.13396 2.50543 1.60596 2.44043 2.04496C2.39943 2.32096 2.45544 2.62596 2.54444 2.96496H3.61042Z" fill="white"/>
</g>
</g>
<g id="Group_5">
<path id="Vector_4" d="M16.5344 1.93099C16.3754 0.854995 15.5974 0.361996 14.5224 0.191996C13.9114 0.0949961 13.3364 0.220997 12.8564 0.495997C12.3774 0.220997 11.8024 0.0949961 11.1904 0.191996C10.1154 0.361996 9.33739 0.853994 9.17839 1.93099C9.04839 2.80999 9.52742 3.655 9.66442 4.651C9.80042 5.646 9.3924 7.716 10.7784 8.316C11.0934 8.452 11.4494 8.23299 11.4614 7.88999C11.4884 7.11599 11.9554 4.912 12.8564 4.912C13.7574 4.912 14.2244 7.11599 14.2514 7.88999C14.2634 8.23299 14.6194 8.453 14.9344 8.316C16.3194 7.716 15.9114 5.646 16.0484 4.651C16.1854 3.655 16.6644 2.80999 16.5344 1.93099Z" fill="#EBEBEB"/>
<path id="Vector_5" opacity="0.1" d="M14.2515 7.88999C14.2635 8.23299 14.6194 8.453 14.9344 8.316C16.3194 7.716 15.9115 5.646 16.0485 4.651C16.1845 3.656 16.6645 2.81099 16.5345 1.93099C16.3755 0.853994 15.5975 0.361996 14.5225 0.191996C13.9115 0.0949961 13.3364 0.220997 12.8564 0.495997V4.912C13.7584 4.912 14.2245 7.11599 14.2515 7.88999Z" fill="black"/>
<g id="Group_6" opacity="0.9">
<path id="Vector_6" opacity="0.9" d="M11.0821 2.96496C11.1481 2.75596 11.2881 2.57196 11.4801 2.44296C11.5901 2.24596 11.7981 2.10696 12.0401 2.08196V1.00596C11.8851 0.961959 11.7251 0.938965 11.5611 0.938965C11.4671 0.938965 11.3711 0.94696 11.2751 0.96196C10.1891 1.13396 9.97711 1.60596 9.91211 2.04496C9.87111 2.32096 9.92712 2.62596 10.0161 2.96496H11.0821Z" fill="white"/>
</g>
</g>
<g id="Group_7">
<path id="Vector_7" d="M24.0061 1.93099C23.8471 0.854995 23.0691 0.361996 21.9941 0.191996C21.3831 0.0949961 20.8081 0.220997 20.3281 0.495997C19.8491 0.220997 19.2741 0.0949961 18.6621 0.191996C17.5871 0.361996 16.8091 0.853994 16.6501 1.93099C16.5201 2.80999 16.9991 3.655 17.1361 4.651C17.2721 5.646 16.8641 7.716 18.2501 8.316C18.5651 8.452 18.9211 8.23299 18.9331 7.88999C18.9601 7.11599 19.4271 4.912 20.3281 4.912C21.2291 4.912 21.6961 7.11599 21.7231 7.88999C21.7351 8.23299 22.0921 8.453 22.4061 8.316C23.7921 7.716 23.3831 5.646 23.5201 4.651C23.6571 3.655 24.1361 2.80999 24.0061 1.93099Z" fill="#EBEBEB"/>
<path id="Vector_8" opacity="0.1" d="M21.7241 7.88999C21.7361 8.23299 22.0931 8.453 22.4071 8.316C23.7931 7.716 23.3841 5.646 23.5211 4.651C23.6571 3.656 24.1371 2.81099 24.0071 1.93099C23.8481 0.853994 23.0701 0.361996 21.9951 0.191996C21.3841 0.0949961 20.8091 0.220997 20.3291 0.495997V4.912C21.2301 4.912 21.6961 7.11599 21.7241 7.88999Z" fill="black"/>
<g id="Group_8" opacity="0.9">
<path id="Vector_9" opacity="0.9" d="M18.5538 2.96496C18.6198 2.75596 18.7598 2.57196 18.9518 2.44296C19.0618 2.24596 19.2698 2.10696 19.5118 2.08196V1.00596C19.3568 0.961959 19.1968 0.938965 19.0328 0.938965C18.9388 0.938965 18.8428 0.94696 18.7468 0.96196C17.6608 1.13396 17.4488 1.60596 17.3838 2.04496C17.3428 2.32096 17.3988 2.62596 17.4878 2.96496H18.5538Z" fill="white"/>
</g>
</g>
</g>
<path id="Vector_10" d="M23.6479 4.00896C23.6479 4.00896 21.9808 4.67796 20.3358 4.67796C19.3868 4.67796 18.4329 4.45595 17.7939 4.26695C17.6909 4.22995 17.5838 4.19695 17.4718 4.16695C17.1908 4.07495 17.0229 4.00796 17.0229 4.00796C16.8769 4.00796 16.7359 4.01296 16.6009 4.02296C16.4639 4.01296 16.3218 4.00796 16.1758 4.00796C16.1758 4.00796 14.5089 4.67696 12.8639 4.67696C11.9149 4.67696 10.9608 4.45495 10.3218 4.26595C10.2188 4.22895 10.1118 4.19595 9.99985 4.16595C9.71985 4.07395 9.55185 4.00696 9.55185 4.00696C9.40585 4.00696 9.26485 4.01196 9.12985 4.02196C8.99285 4.01196 8.85083 4.00696 8.70483 4.00696C8.70483 4.00696 7.03785 4.67596 5.39285 4.67596C3.74785 4.67596 2.08084 4.00696 2.08084 4.00696C1.05984 4.35496 0.380859 5.28896 0.380859 6.85596C0.380859 8.42296 2.28884 9.70396 4.61984 9.70396H7.95786C8.40985 9.70396 8.84585 9.65496 9.25485 9.56596C9.66485 9.65496 10.0998 9.70396 10.5518 9.70396H15.4288C15.8808 9.70396 16.3169 9.65496 16.7259 9.56596C17.1349 9.65496 17.5709 9.70396 18.0229 9.70396H21.1408C23.4728 9.70396 25.3799 8.42196 25.3799 6.85596C25.3809 5.29096 24.9069 4.46496 23.6479 4.00896Z" fill="#FF304A"/>
<path id="Vector_11" opacity="0.2" d="M23.4615 4.25806C23.2055 4.34206 21.7805 4.78706 20.3445 4.78706C18.9085 4.78706 17.4835 4.34206 17.2275 4.25806C17.0075 4.25906 16.8105 4.27405 16.6235 4.29605C16.4225 4.27305 16.2125 4.26006 15.9905 4.25806C15.7345 4.34206 14.3095 4.78706 12.8735 4.78706C11.4375 4.78706 10.0125 4.34206 9.75653 4.25806C9.53653 4.25906 9.33956 4.27405 9.15256 4.29605C8.95156 4.27305 8.74153 4.26006 8.51953 4.25806C8.26353 4.34206 6.83756 4.78706 5.40256 4.78706C3.96656 4.78706 2.54155 4.34206 2.28555 4.25806C1.60555 4.51606 1.06055 5.56205 1.06055 6.33305C1.06055 7.47705 1.85554 8.40805 3.91354 8.40805H7.78653C8.30853 8.40805 8.80455 8.34805 9.25555 8.24005C9.70655 8.34805 10.2035 8.40805 10.7245 8.40805H15.2575C15.7795 8.40805 16.2755 8.34805 16.7265 8.24005C17.1775 8.34805 17.6746 8.40805 18.1956 8.40805H20.9695C23.0275 8.40805 24.7015 7.47705 24.7015 6.33305C24.7015 5.06205 24.4265 4.71706 23.4615 4.25806Z" fill="white"/>
</g>
</svg>
