<svg width="334" height="210" viewBox="0 0 334 210" fill="none" xmlns="http://www.w3.org/2000/svg">
<rect width="334" height="210" rx="20" fill="white"/>
<g clip-path="url(#clip0_520_81397)">
<path d="M190.766 92.5964C160.894 79.2725 131.602 82.8857 120.69 86.3577C150.266 65.3148 177.441 72.608 204.777 84.8008C233.697 97.7001 252.189 96.5851 259.872 93.1359C235.224 111.988 228.106 109.251 190.766 92.5964Z" fill="#BBE2F8"/>
<path d="M190.388 78.6877C158.455 71.6073 130.477 81.0058 120.48 86.5901C145.25 60.0573 173.334 61.7681 202.557 68.2475C233.472 75.1023 251.368 70.3114 258.206 65.3952C237.826 88.7956 230.304 87.5383 190.388 78.6877Z" fill="#F8F387"/>
<path d="M187.746 64.6815C155.042 64.0948 129.494 78.8708 120.807 86.3322C139.804 55.4024 167.667 51.4924 197.594 52.0293C229.255 52.5973 245.841 44.3422 251.564 38.164C236.247 65.1507 228.625 65.4149 187.746 64.6815Z" fill="#1386C7"/>
</g>
<path d="M80.7301 133.361C79.9098 133.361 79.1895 133.181 78.5692 132.821C77.969 132.461 77.4988 131.94 77.1586 131.26C76.8185 130.58 76.6484 129.77 76.6484 128.829V105.869C76.6484 104.909 76.8185 104.098 77.1586 103.438C77.4988 102.758 77.969 102.238 78.5692 101.877C79.1895 101.517 79.8998 101.337 80.7001 101.337C81.5204 101.337 82.2307 101.527 82.8309 101.907C83.4512 102.268 83.9214 102.778 84.2415 103.438C84.5817 104.098 84.7517 104.909 84.7517 105.869V118.265H77.7589V116.374H83.6113L82.5608 117.964V105.689C82.5608 105.189 82.4808 104.769 82.3207 104.429C82.1607 104.088 81.9406 103.828 81.6605 103.648C81.4004 103.468 81.0802 103.378 80.7001 103.378C80.3599 103.378 80.0398 103.468 79.7397 103.648C79.4596 103.828 79.2395 104.088 79.0794 104.429C78.9394 104.769 78.8693 105.189 78.8693 105.689V129.039C78.8693 129.539 78.9394 129.96 79.0794 130.3C79.2395 130.64 79.4596 130.9 79.7397 131.08C80.0398 131.26 80.3699 131.35 80.7301 131.35C81.0902 131.35 81.4104 131.27 81.6905 131.11C81.9706 130.93 82.1907 130.67 82.3508 130.33C82.5108 129.97 82.5909 129.539 82.5909 129.039V122.196H84.7517V128.829C84.7517 129.529 84.6517 130.16 84.4516 130.72C84.2715 131.28 84.0014 131.76 83.6413 132.161C83.2811 132.561 82.851 132.861 82.3508 133.061C81.8706 133.261 81.3303 133.361 80.7301 133.361Z" fill="#1386C7"/>
<path d="M89.4012 133.181V89.332H91.5921V133.181H89.4012Z" fill="#1386C7"/>
<path d="M96.5117 133.181V101.547H98.7026V133.181H96.5117ZM97.6222 98.3659C97.142 98.3659 96.7318 98.2159 96.3917 97.9157C96.0715 97.5956 95.9115 97.2054 95.9115 96.7452C95.9115 96.285 96.0715 95.9049 96.3917 95.6047C96.7318 95.2846 97.142 95.1245 97.6222 95.1245C98.0823 95.1245 98.4725 95.2846 98.7926 95.6047C99.1328 95.9049 99.3028 96.285 99.3028 96.7452C99.3028 97.2054 99.1328 97.5956 98.7926 97.9157C98.4725 98.2159 98.0823 98.3659 97.6222 98.3659Z" fill="#1386C7"/>
<path d="M106.653 133.361C105.993 133.361 105.413 133.201 104.913 132.881C104.413 132.541 104.022 132.061 103.742 131.44C103.462 130.82 103.322 130.06 103.322 129.159V105.569C103.322 104.669 103.462 103.908 103.742 103.288C104.022 102.668 104.413 102.188 104.913 101.847C105.413 101.507 105.993 101.337 106.653 101.337C107.134 101.337 107.544 101.427 107.884 101.607C108.244 101.767 108.544 101.988 108.784 102.268C109.024 102.548 109.224 102.848 109.385 103.168H109.445V89.332H111.665V133.181H109.445V131.56H109.385C109.244 131.9 109.054 132.211 108.814 132.491C108.574 132.751 108.274 132.961 107.914 133.121C107.554 133.281 107.134 133.361 106.653 133.361ZM107.494 131.32C107.874 131.32 108.214 131.23 108.514 131.05C108.814 130.87 109.044 130.61 109.204 130.27C109.365 129.91 109.445 129.469 109.445 128.949V105.779C109.445 105.259 109.365 104.829 109.204 104.489C109.044 104.128 108.814 103.858 108.514 103.678C108.214 103.498 107.874 103.408 107.494 103.408C107.114 103.408 106.773 103.498 106.473 103.678C106.193 103.858 105.963 104.128 105.783 104.489C105.623 104.829 105.543 105.259 105.543 105.779V128.949C105.543 129.469 105.623 129.91 105.783 130.27C105.963 130.61 106.193 130.87 106.473 131.05C106.773 131.23 107.114 131.32 107.494 131.32Z" fill="#1386C7"/>
<path d="M119.196 133.361C118.556 133.361 117.986 133.221 117.485 132.941C117.005 132.641 116.625 132.211 116.345 131.65C116.085 131.07 115.955 130.36 115.955 129.519V119.495C115.955 118.615 116.125 117.874 116.465 117.274C116.825 116.654 117.345 116.174 118.026 115.834C118.726 115.473 119.596 115.243 120.637 115.143L123.038 114.903V116.794L120.877 117.034C119.956 117.114 119.276 117.354 118.836 117.754C118.416 118.155 118.206 118.715 118.206 119.435V129.309C118.206 129.99 118.366 130.5 118.686 130.84C119.006 131.18 119.456 131.35 120.036 131.35C120.417 131.35 120.747 131.27 121.027 131.11C121.327 130.93 121.547 130.67 121.687 130.33C121.847 129.99 121.927 129.589 121.927 129.129V105.539C121.927 104.859 121.767 104.329 121.447 103.948C121.127 103.568 120.687 103.378 120.126 103.378C119.566 103.378 119.126 103.568 118.806 103.948C118.506 104.329 118.356 104.859 118.356 105.539V112.862H116.165V105.689C116.165 104.809 116.325 104.048 116.645 103.408C116.985 102.748 117.455 102.238 118.056 101.877C118.656 101.517 119.356 101.337 120.157 101.337C120.977 101.337 121.677 101.517 122.257 101.877C122.858 102.238 123.318 102.748 123.638 103.408C123.958 104.048 124.118 104.819 124.118 105.719V133.181H121.927V131.59H121.837C121.677 131.97 121.467 132.301 121.207 132.581C120.967 132.841 120.667 133.041 120.307 133.181C119.966 133.301 119.596 133.361 119.196 133.361Z" fill="#1386C7"/>
<path d="M138.459 133.361C137.799 133.361 137.219 133.201 136.718 132.881C136.218 132.541 135.828 132.061 135.548 131.44C135.268 130.82 135.128 130.06 135.128 129.159V105.569C135.128 104.669 135.268 103.908 135.548 103.288C135.828 102.668 136.218 102.188 136.718 101.847C137.219 101.507 137.799 101.337 138.459 101.337C138.939 101.337 139.35 101.427 139.69 101.607C140.05 101.767 140.35 101.988 140.59 102.268C140.83 102.548 141.03 102.848 141.19 103.168H141.25V89.332H143.471V133.181H141.25V131.56H141.19C141.05 131.9 140.86 132.211 140.62 132.491C140.38 132.751 140.08 132.961 139.72 133.121C139.36 133.281 138.939 133.361 138.459 133.361ZM139.299 131.32C139.68 131.32 140.02 131.23 140.32 131.05C140.62 130.87 140.85 130.61 141.01 130.27C141.17 129.91 141.25 129.469 141.25 128.949V105.779C141.25 105.259 141.17 104.829 141.01 104.489C140.85 104.128 140.62 103.858 140.32 103.678C140.02 103.498 139.68 103.408 139.299 103.408C138.919 103.408 138.579 103.498 138.279 103.678C137.999 103.858 137.769 104.128 137.589 104.489C137.429 104.829 137.349 105.259 137.349 105.779V128.949C137.349 129.469 137.429 129.91 137.589 130.27C137.769 130.61 137.999 130.87 138.279 131.05C138.579 131.23 138.919 131.32 139.299 131.32Z" fill="#1386C7"/>
<path d="M152.142 133.361C151.322 133.361 150.602 133.181 149.981 132.821C149.381 132.461 148.911 131.94 148.571 131.26C148.231 130.58 148.061 129.77 148.061 128.829V105.869C148.061 104.909 148.231 104.098 148.571 103.438C148.911 102.758 149.381 102.238 149.981 101.877C150.602 101.517 151.312 101.337 152.112 101.337C152.933 101.337 153.643 101.527 154.243 101.907C154.863 102.268 155.334 102.778 155.654 103.438C155.994 104.098 156.164 104.909 156.164 105.869V118.265H149.171V116.374H155.023L153.973 117.964V105.689C153.973 105.189 153.893 104.769 153.733 104.429C153.573 104.088 153.353 103.828 153.073 103.648C152.813 103.468 152.492 103.378 152.112 103.378C151.772 103.378 151.452 103.468 151.152 103.648C150.872 103.828 150.652 104.088 150.492 104.429C150.352 104.769 150.282 105.189 150.282 105.689V129.039C150.282 129.539 150.352 129.96 150.492 130.3C150.652 130.64 150.872 130.9 151.152 131.08C151.452 131.26 151.782 131.35 152.142 131.35C152.502 131.35 152.823 131.27 153.103 131.11C153.383 130.93 153.603 130.67 153.763 130.33C153.923 129.97 154.003 129.539 154.003 129.039V122.196H156.164V128.829C156.164 129.529 156.064 130.16 155.864 130.72C155.684 131.28 155.414 131.76 155.053 132.161C154.693 132.561 154.263 132.861 153.763 133.061C153.283 133.261 152.743 133.361 152.142 133.361Z" fill="#1386C7"/>
<path d="M160.633 133.181V101.547H162.824V103.258H162.914C163.134 102.718 163.485 102.268 163.965 101.907C164.445 101.527 165.025 101.337 165.705 101.337C166.726 101.337 167.516 101.697 168.076 102.418C168.637 103.118 168.917 104.128 168.917 105.449V133.181H166.726V105.689C166.726 104.929 166.566 104.359 166.246 103.978C165.925 103.598 165.465 103.408 164.865 103.408C164.425 103.408 164.055 103.518 163.755 103.738C163.454 103.958 163.224 104.258 163.064 104.639C162.904 104.999 162.824 105.429 162.824 105.929V133.181H160.633Z" fill="#1386C7"/>
<path d="M177.648 133.271C176.447 133.271 175.547 132.971 174.947 132.371C174.367 131.75 174.076 130.84 174.076 129.639V103.528H172.696V101.547H174.076V93.0236H176.297V101.547H178.338V103.528H176.297V129.519C176.297 130.12 176.427 130.57 176.687 130.87C176.948 131.15 177.358 131.29 177.918 131.29C177.998 131.29 178.068 131.29 178.128 131.29C178.208 131.29 178.278 131.28 178.338 131.26V133.211C178.238 133.211 178.128 133.221 178.008 133.241C177.908 133.261 177.788 133.271 177.648 133.271Z" fill="#1386C7"/>
<path d="M184.788 133.361C184.148 133.361 183.578 133.221 183.078 132.941C182.597 132.641 182.217 132.211 181.937 131.65C181.677 131.07 181.547 130.36 181.547 129.519V119.495C181.547 118.615 181.717 117.874 182.057 117.274C182.417 116.654 182.938 116.174 183.618 115.834C184.318 115.473 185.189 115.243 186.229 115.143L188.63 114.903V116.794L186.469 117.034C185.549 117.114 184.868 117.354 184.428 117.754C184.008 118.155 183.798 118.715 183.798 119.435V129.309C183.798 129.99 183.958 130.5 184.278 130.84C184.598 131.18 185.048 131.35 185.629 131.35C186.009 131.35 186.339 131.27 186.619 131.11C186.919 130.93 187.139 130.67 187.279 130.33C187.439 129.99 187.519 129.589 187.519 129.129V105.539C187.519 104.859 187.359 104.329 187.039 103.948C186.719 103.568 186.279 103.378 185.719 103.378C185.159 103.378 184.718 103.568 184.398 103.948C184.098 104.329 183.948 104.859 183.948 105.539V112.862H181.757V105.689C181.757 104.809 181.917 104.048 182.237 103.408C182.577 102.748 183.048 102.238 183.648 101.877C184.248 101.517 184.948 101.337 185.749 101.337C186.569 101.337 187.269 101.517 187.85 101.877C188.45 102.238 188.91 102.748 189.23 103.408C189.55 104.048 189.71 104.819 189.71 105.719V133.181H187.519V131.59H187.429C187.269 131.97 187.059 132.301 186.799 132.581C186.559 132.841 186.259 133.041 185.899 133.181C185.559 133.301 185.189 133.361 184.788 133.361Z" fill="#1386C7"/>
<path d="M194.48 133.181V89.332H196.671V133.181H194.48Z" fill="#1386C7"/>
<path d="M212.152 144.046C211.332 144.046 210.612 143.876 209.991 143.536C209.391 143.195 208.921 142.715 208.581 142.095C208.261 141.475 208.101 140.734 208.101 139.874V135.462H210.262V140.024C210.262 140.644 210.432 141.134 210.772 141.495C211.112 141.855 211.572 142.035 212.152 142.035C212.733 142.035 213.183 141.845 213.503 141.465C213.843 141.084 214.013 140.544 214.013 139.844V131.5H213.923C213.783 131.84 213.583 132.151 213.323 132.431C213.083 132.691 212.783 132.901 212.422 133.061C212.082 133.221 211.672 133.301 211.192 133.301C210.532 133.301 209.951 133.141 209.451 132.821C208.951 132.481 208.561 132.001 208.281 131.38C208.001 130.74 207.861 129.97 207.861 129.069V105.569C207.861 104.669 208.001 103.908 208.281 103.288C208.561 102.668 208.951 102.188 209.451 101.847C209.951 101.507 210.532 101.337 211.192 101.337C211.672 101.337 212.092 101.427 212.452 101.607C212.813 101.767 213.103 101.988 213.323 102.268C213.563 102.528 213.763 102.838 213.923 103.198H214.013V101.547H216.204V139.664C216.204 140.564 216.034 141.345 215.694 142.005C215.374 142.665 214.903 143.165 214.283 143.505C213.683 143.866 212.973 144.046 212.152 144.046ZM212.032 131.29C212.412 131.29 212.753 131.2 213.053 131.02C213.353 130.84 213.583 130.58 213.743 130.24C213.903 129.88 213.983 129.439 213.983 128.919V105.779C213.983 105.259 213.903 104.829 213.743 104.489C213.583 104.128 213.353 103.858 213.053 103.678C212.753 103.498 212.412 103.408 212.032 103.408C211.652 103.408 211.312 103.498 211.012 103.678C210.732 103.858 210.502 104.128 210.322 104.489C210.161 104.829 210.081 105.259 210.081 105.779V128.919C210.081 129.439 210.161 129.88 210.322 130.24C210.502 130.58 210.732 130.84 211.012 131.02C211.312 131.2 211.652 131.29 212.032 131.29Z" fill="#1386C7"/>
<path d="M220.943 133.181V101.547H223.164V103.618H223.254C223.454 102.878 223.775 102.338 224.215 101.998C224.675 101.637 225.235 101.457 225.895 101.457C226.056 101.457 226.186 101.477 226.286 101.517C226.406 101.537 226.496 101.557 226.556 101.577V103.858C226.456 103.818 226.346 103.788 226.226 103.768C226.106 103.748 225.976 103.738 225.835 103.738C225.235 103.738 224.735 103.878 224.335 104.158C223.955 104.439 223.665 104.849 223.464 105.389C223.264 105.929 223.164 106.59 223.164 107.37V133.181H220.943Z" fill="#1386C7"/>
<path d="M233.546 133.361C232.746 133.361 232.026 133.191 231.385 132.851C230.765 132.491 230.265 131.97 229.885 131.29C229.525 130.61 229.344 129.78 229.344 128.799V105.929C229.344 104.949 229.525 104.118 229.885 103.438C230.265 102.758 230.765 102.238 231.385 101.877C232.026 101.517 232.746 101.337 233.546 101.337C234.367 101.337 235.087 101.517 235.707 101.877C236.347 102.238 236.848 102.758 237.208 103.438C237.588 104.118 237.778 104.949 237.778 105.929V128.799C237.778 129.78 237.588 130.61 237.208 131.29C236.848 131.97 236.347 132.491 235.707 132.851C235.087 133.191 234.367 133.361 233.546 133.361ZM233.546 131.32C233.966 131.32 234.316 131.23 234.597 131.05C234.897 130.85 235.127 130.58 235.287 130.24C235.467 129.88 235.557 129.459 235.557 128.979V105.749C235.557 105.249 235.467 104.829 235.287 104.489C235.127 104.128 234.897 103.858 234.597 103.678C234.316 103.498 233.966 103.408 233.546 103.408C233.146 103.408 232.796 103.498 232.496 103.678C232.216 103.858 231.996 104.128 231.835 104.489C231.675 104.829 231.595 105.249 231.595 105.749V128.979C231.595 129.459 231.675 129.88 231.835 130.24C231.996 130.58 232.216 130.85 232.496 131.05C232.796 131.23 233.146 131.32 233.546 131.32Z" fill="#1386C7"/>
<path d="M245.429 133.391C244.708 133.391 244.108 133.241 243.628 132.941C243.148 132.621 242.788 132.161 242.547 131.56C242.307 130.96 242.187 130.24 242.187 129.399V101.547H244.408V129.189C244.408 129.89 244.558 130.43 244.858 130.81C245.178 131.17 245.649 131.35 246.269 131.35C246.609 131.35 246.899 131.3 247.139 131.2C247.379 131.08 247.589 130.91 247.77 130.69C247.95 130.47 248.08 130.21 248.16 129.91C248.24 129.609 248.28 129.279 248.28 128.919V101.547H250.501V133.181H248.28V131.56H248.22C248.06 131.92 247.85 132.241 247.589 132.521C247.329 132.801 247.009 133.021 246.629 133.181C246.269 133.321 245.869 133.391 245.429 133.391Z" fill="#1386C7"/>
<path d="M255.18 143.836V101.547H257.401V103.198H257.461C257.621 102.838 257.811 102.528 258.031 102.268C258.271 101.988 258.572 101.767 258.932 101.607C259.292 101.427 259.702 101.337 260.162 101.337C260.862 101.337 261.453 101.507 261.933 101.847C262.433 102.188 262.823 102.668 263.103 103.288C263.383 103.908 263.524 104.669 263.524 105.569V129.159C263.524 130.06 263.383 130.82 263.103 131.44C262.823 132.061 262.433 132.541 261.933 132.881C261.453 133.201 260.862 133.361 260.162 133.361C259.702 133.361 259.292 133.281 258.932 133.121C258.592 132.961 258.301 132.751 258.061 132.491C257.821 132.211 257.621 131.9 257.461 131.56H257.401V143.836H255.18ZM259.322 131.32C259.722 131.32 260.062 131.23 260.342 131.05C260.642 130.87 260.872 130.61 261.033 130.27C261.213 129.91 261.303 129.469 261.303 128.949V105.779C261.303 105.259 261.213 104.829 261.033 104.489C260.872 104.128 260.642 103.858 260.342 103.678C260.062 103.498 259.722 103.408 259.322 103.408C258.962 103.408 258.632 103.498 258.331 103.678C258.031 103.858 257.801 104.128 257.641 104.489C257.481 104.829 257.401 105.259 257.401 105.779V128.949C257.401 129.469 257.481 129.91 257.641 130.27C257.801 130.61 258.031 130.87 258.331 131.05C258.632 131.23 258.962 131.32 259.322 131.32Z" fill="#1386C7"/>
<line x1="72" y1="149.777" x2="265" y2="149.777" stroke="#BBE2F8" stroke-width="1.22933"/>
<path d="M245.552 171.079C245.552 171.541 245.483 171.954 245.346 172.318C245.208 172.672 245.016 172.977 244.77 173.233C244.534 173.478 244.254 173.665 243.929 173.793C243.605 173.931 243.261 174 242.897 174C242.366 174 241.874 173.887 241.422 173.66C240.979 173.434 240.62 173.134 240.345 172.761L240.979 172.038C241.205 172.362 241.49 172.613 241.835 172.79C242.179 172.967 242.528 173.056 242.882 173.056C243.354 173.056 243.748 172.888 244.062 172.554C244.387 172.22 244.549 171.743 244.549 171.123C244.549 170.828 244.5 170.567 244.402 170.341C244.303 170.115 244.17 169.913 244.003 169.736C243.836 169.559 243.644 169.402 243.428 169.264C243.221 169.127 243 168.999 242.764 168.881C242.479 168.743 242.208 168.591 241.953 168.423C241.697 168.246 241.471 168.045 241.274 167.819C241.087 167.592 240.935 167.327 240.817 167.022C240.699 166.707 240.64 166.343 240.64 165.93C240.64 165.448 240.714 165.03 240.861 164.676C241.009 164.313 241.205 164.013 241.451 163.777C241.707 163.531 241.992 163.349 242.307 163.231C242.621 163.113 242.951 163.054 243.295 163.054C243.767 163.054 244.19 163.137 244.564 163.304C244.947 163.462 245.267 163.713 245.523 164.057L244.888 164.78C244.692 164.494 244.461 164.293 244.195 164.175C243.929 164.047 243.639 163.983 243.325 163.983C243.118 163.983 242.912 164.022 242.705 164.101C242.508 164.17 242.331 164.283 242.174 164.44C242.017 164.598 241.889 164.799 241.79 165.045C241.692 165.291 241.643 165.581 241.643 165.916C241.643 166.211 241.687 166.466 241.776 166.683C241.864 166.899 241.982 167.091 242.13 167.258C242.287 167.425 242.464 167.573 242.661 167.701C242.867 167.828 243.079 167.946 243.295 168.055C243.57 168.192 243.841 168.35 244.106 168.527C244.382 168.704 244.628 168.91 244.844 169.146C245.06 169.382 245.233 169.658 245.36 169.972C245.488 170.287 245.552 170.656 245.552 171.079Z" fill="#1386C7"/>
<path d="M239.076 168.542C239.076 169.397 238.987 170.149 238.81 170.799C238.633 171.448 238.377 171.993 238.043 172.436C237.709 172.869 237.305 173.198 236.833 173.424C236.371 173.641 235.855 173.749 235.284 173.749H233.042V163.305H235.299C235.869 163.305 236.386 163.418 236.848 163.644C237.32 163.86 237.718 164.19 238.043 164.632C238.377 165.075 238.633 165.626 238.81 166.284C238.987 166.934 239.076 167.686 239.076 168.542ZM238.058 168.542C238.058 167.804 237.984 167.165 237.836 166.624C237.699 166.073 237.502 165.621 237.246 165.267C237 164.913 236.705 164.647 236.361 164.47C236.027 164.293 235.663 164.204 235.27 164.204H234.06V172.849H235.27C235.663 172.849 236.027 172.761 236.361 172.584C236.705 172.407 237 172.141 237.246 171.787C237.502 171.433 237.699 170.985 237.836 170.445C237.984 169.904 238.058 169.269 238.058 168.542Z" fill="#1386C7"/>
<path d="M226.877 173.749V163.305H231.081V164.219H227.88V167.892H230.875V168.763H227.88V172.82H231.229V173.749H226.877Z" fill="#1386C7"/>
<path d="M220.711 173.749V163.305H224.915V164.219H221.714V167.892H224.709V168.763H221.714V172.82H225.063V173.749H220.711Z" fill="#1386C7"/>
<path d="M217.088 173.749L213.445 165.06H213.4V173.749H212.441V163.305H213.725L217.339 171.993H217.383V163.305H218.327V173.749H217.088Z" fill="#1386C7"/>
<path d="M204.807 173.749V163.305H205.839V172.79H208.819V173.749H204.807Z" fill="#1386C7"/>
<path d="M202.434 173.749L201.799 171.138H198.583L197.919 173.749H196.872L199.527 163.305H200.929L203.51 173.749H202.434ZM200.236 164.234H200.177L198.731 170.312H201.652L200.236 164.234Z" fill="#1386C7"/>
<path d="M195.01 164.19V173.749H193.993V164.19H191.986V163.305H197.032V164.19H195.01Z" fill="#1386C7"/>
<path d="M189.559 173.749L185.915 165.06H185.871V173.749H184.912V163.305H186.196L189.81 171.993H189.854V163.305H190.798V173.749H189.559Z" fill="#1386C7"/>
<path d="M178.747 173.749V163.305H182.951V164.219H179.75V167.892H182.745V168.763H179.75V172.82H183.099V173.749H178.747Z" fill="#1386C7"/>
<path d="M176.799 168.542C176.799 169.397 176.711 170.149 176.534 170.799C176.357 171.448 176.101 171.993 175.767 172.436C175.432 172.869 175.029 173.198 174.557 173.424C174.095 173.641 173.578 173.749 173.008 173.749H170.766V163.305H173.023C173.593 163.305 174.109 163.418 174.572 163.644C175.044 163.86 175.442 164.19 175.767 164.632C176.101 165.075 176.357 165.626 176.534 166.284C176.711 166.934 176.799 167.686 176.799 168.542ZM175.781 168.542C175.781 167.804 175.708 167.165 175.56 166.624C175.422 166.073 175.226 165.621 174.97 165.267C174.724 164.913 174.429 164.647 174.085 164.47C173.75 164.293 173.387 164.204 172.993 164.204H171.784V172.849H172.993C173.387 172.849 173.75 172.761 174.085 172.584C174.429 172.407 174.724 172.141 174.97 171.787C175.226 171.433 175.422 170.985 175.56 170.445C175.708 169.904 175.781 169.269 175.781 168.542Z" fill="#1386C7"/>
<path d="M165.276 173.749L163.388 168.91H162.045V173.749H161.027V163.305H163.535C163.879 163.305 164.209 163.354 164.524 163.452C164.848 163.541 165.133 163.693 165.379 163.909C165.635 164.126 165.836 164.411 165.984 164.765C166.141 165.119 166.22 165.552 166.22 166.063C166.22 166.506 166.161 166.889 166.043 167.214C165.935 167.529 165.787 167.794 165.6 168.01C165.423 168.227 165.222 168.394 164.996 168.512C164.779 168.63 164.563 168.704 164.347 168.733L166.382 173.749H165.276ZM165.217 166.107C165.217 165.734 165.163 165.424 165.055 165.178C164.956 164.922 164.819 164.721 164.642 164.573C164.474 164.426 164.278 164.322 164.051 164.263C163.835 164.204 163.609 164.175 163.373 164.175H162.045V168.099H163.417C163.978 168.099 164.415 167.927 164.73 167.583C165.055 167.229 165.217 166.737 165.217 166.107Z" fill="#1386C7"/>
<path d="M158.759 170.09C158.759 170.631 158.705 171.143 158.596 171.625C158.498 172.097 158.331 172.51 158.095 172.864C157.869 173.218 157.564 173.498 157.18 173.705C156.797 173.901 156.325 174 155.764 174C155.203 174 154.731 173.901 154.348 173.705C153.974 173.498 153.669 173.218 153.433 172.864C153.207 172.51 153.045 172.097 152.946 171.625C152.848 171.143 152.799 170.631 152.799 170.09V163.305H153.831V169.958C153.831 170.341 153.856 170.72 153.905 171.094C153.964 171.467 154.063 171.802 154.2 172.097C154.348 172.382 154.544 172.613 154.79 172.79C155.046 172.967 155.376 173.056 155.779 173.056C156.172 173.056 156.497 172.967 156.752 172.79C157.008 172.613 157.205 172.382 157.342 172.097C157.49 171.802 157.588 171.472 157.637 171.108C157.696 170.735 157.726 170.351 157.726 169.958V163.305H158.759V170.09Z" fill="#1386C7"/>
<path d="M150.965 168.512C150.965 169.328 150.887 170.076 150.729 170.754C150.572 171.423 150.346 171.998 150.051 172.48C149.756 172.962 149.397 173.336 148.974 173.601C148.551 173.867 148.069 174 147.528 174C146.987 174 146.501 173.867 146.068 173.601C145.645 173.336 145.281 172.962 144.976 172.48C144.681 171.998 144.455 171.423 144.298 170.754C144.14 170.076 144.062 169.328 144.062 168.512C144.062 167.706 144.135 166.968 144.283 166.299C144.44 165.621 144.666 165.045 144.961 164.573C145.256 164.091 145.615 163.718 146.038 163.452C146.471 163.186 146.968 163.054 147.528 163.054C148.069 163.054 148.551 163.186 148.974 163.452C149.397 163.718 149.756 164.091 150.051 164.573C150.346 165.045 150.572 165.621 150.729 166.299C150.887 166.968 150.965 167.706 150.965 168.512ZM149.889 168.512C149.889 167.883 149.839 167.292 149.741 166.742C149.643 166.191 149.49 165.714 149.284 165.311C149.087 164.908 148.841 164.588 148.546 164.352C148.251 164.116 147.912 163.998 147.528 163.998C147.125 163.998 146.771 164.116 146.466 164.352C146.171 164.588 145.925 164.908 145.728 165.311C145.532 165.714 145.384 166.191 145.286 166.742C145.188 167.292 145.138 167.883 145.138 168.512C145.138 169.141 145.188 169.731 145.286 170.282C145.384 170.833 145.532 171.315 145.728 171.728C145.925 172.141 146.171 172.465 146.466 172.702C146.771 172.938 147.125 173.056 147.528 173.056C147.922 173.056 148.266 172.938 148.561 172.702C148.856 172.465 149.102 172.141 149.298 171.728C149.495 171.315 149.643 170.833 149.741 170.282C149.839 169.731 149.889 169.141 149.889 168.512Z" fill="#1386C7"/>
<path d="M140.858 169.456V173.749H139.855V169.456L137.259 163.305H138.38L140.357 168.394L142.378 163.305H143.484L140.858 169.456Z" fill="#1386C7"/>
<path d="M131.179 173.749V163.305H132.211V172.79H135.191V173.749H131.179Z" fill="#1386C7"/>
<path d="M125.906 173.749V163.305H126.939V172.79H129.919V173.749H125.906Z" fill="#1386C7"/>
<path d="M123.533 173.749L122.899 171.138H119.683L119.019 173.749H117.972L120.627 163.305H122.028L124.61 173.749H123.533ZM121.335 164.234H121.276L119.83 170.312H122.751L121.335 164.234Z" fill="#1386C7"/>
<path d="M113.833 173.749L111.944 168.91H110.602V173.749H109.584V163.305H112.092C112.436 163.305 112.765 163.354 113.08 163.452C113.405 163.541 113.69 163.693 113.936 163.909C114.192 164.126 114.393 164.411 114.541 164.765C114.698 165.119 114.777 165.552 114.777 166.063C114.777 166.506 114.718 166.889 114.6 167.214C114.491 167.529 114.344 167.794 114.157 168.01C113.98 168.227 113.778 168.394 113.552 168.512C113.336 168.63 113.12 168.704 112.903 168.733L114.939 173.749H113.833ZM113.774 166.107C113.774 165.734 113.719 165.424 113.611 165.178C113.513 164.922 113.375 164.721 113.198 164.573C113.031 164.426 112.834 164.322 112.608 164.263C112.392 164.204 112.166 164.175 111.93 164.175H110.602V168.099H111.974C112.534 168.099 112.972 167.927 113.287 167.583C113.611 167.229 113.774 166.737 113.774 166.107Z" fill="#1386C7"/>
<path d="M107.632 168.512C107.632 169.328 107.554 170.076 107.396 170.754C107.239 171.423 107.013 171.998 106.718 172.48C106.423 172.962 106.064 173.336 105.641 173.601C105.218 173.867 104.736 174 104.195 174C103.654 174 103.168 173.867 102.735 173.601C102.312 173.336 101.948 172.962 101.643 172.48C101.348 171.998 101.122 171.423 100.965 170.754C100.807 170.076 100.729 169.328 100.729 168.512C100.729 167.706 100.802 166.968 100.95 166.299C101.107 165.621 101.333 165.045 101.628 164.573C101.923 164.091 102.282 163.718 102.705 163.452C103.138 163.186 103.635 163.054 104.195 163.054C104.736 163.054 105.218 163.186 105.641 163.452C106.064 163.718 106.423 164.091 106.718 164.573C107.013 165.045 107.239 165.621 107.396 166.299C107.554 166.968 107.632 167.706 107.632 168.512ZM106.556 168.512C106.556 167.883 106.506 167.292 106.408 166.742C106.31 166.191 106.157 165.714 105.951 165.311C105.754 164.908 105.508 164.588 105.213 164.352C104.918 164.116 104.579 163.998 104.195 163.998C103.792 163.998 103.438 164.116 103.133 164.352C102.838 164.588 102.592 164.908 102.395 165.311C102.199 165.714 102.051 166.191 101.953 166.742C101.855 167.292 101.805 167.883 101.805 168.512C101.805 169.141 101.855 169.731 101.953 170.282C102.051 170.833 102.199 171.315 102.395 171.728C102.592 172.141 102.838 172.465 103.133 172.702C103.438 172.938 103.792 173.056 104.195 173.056C104.589 173.056 104.933 172.938 105.228 172.702C105.523 172.465 105.769 172.141 105.965 171.728C106.162 171.315 106.31 170.833 106.408 170.282C106.506 169.731 106.556 169.141 106.556 168.512Z" fill="#1386C7"/>
<path d="M96.3402 164.234V167.966H99.2758V168.866H96.3402V173.749H95.3223V163.305H99.4971V164.234H96.3402Z" fill="#1386C7"/>
<defs>
<clipPath id="clip0_520_81397">
<rect width="138.451" height="108.044" fill="white" transform="matrix(0.996175 0.0873817 -0.087377 0.996175 126.925 25)"/>
</clipPath>
</defs>
</svg>
