<svg width="23" height="20" viewBox="0 0 23 20" fill="none" xmlns="http://www.w3.org/2000/svg">
<g id="Group">
<path id="Vector" d="M11.4585 19.4258C6.94953 19.4258 0.894531 1.12883 0.894531 1.12883C0.894531 1.12883 3.82153 1.62783 6.22153 1.26383C8.62153 0.899832 11.4585 0.027832 11.4585 0.027832C11.4585 0.027832 13.0435 0.682833 17.1315 1.19183C21.2195 1.70083 22.0225 1.12883 22.0225 1.12883C22.0225 1.12883 15.9675 19.4258 11.4585 19.4258Z" fill="#E6E6E6"/>
<path id="Vector_2" d="M11.4597 18.6328C8.88869 18.6328 4.57669 9.32282 2.05469 2.07582C2.66269 2.13682 3.43469 2.18982 4.25269 2.18982C5.01869 2.18982 5.72068 2.14182 6.34168 2.04782C8.37768 1.73882 10.6767 1.08682 11.4367 0.861816C12.0657 1.07382 13.7897 1.57382 17.0337 1.97782C18.1907 2.12182 19.2047 2.19482 20.0477 2.19482C20.3407 2.19482 20.6007 2.18581 20.8307 2.17081C18.3047 9.40481 14.0187 18.6328 11.4597 18.6328Z" fill="#00B7FF"/>
<path id="Vector_3" d="M16.3445 5.15884C16.1335 3.72884 15.0995 3.07483 13.6715 2.84883C12.8595 2.71983 12.0955 2.88783 11.4585 3.25283C10.8215 2.88783 10.0575 2.71983 9.24546 2.84883C7.81746 3.07483 6.78346 3.72884 6.57246 5.15884C6.39946 6.32684 7.03646 7.44984 7.21746 8.77184C7.39846 10.0948 6.85646 12.8448 8.69746 13.6418C9.11546 13.8228 9.58946 13.5308 9.60546 13.0758C9.64146 12.0478 10.2615 9.11984 11.4585 9.11984C12.6565 9.11984 13.2755 12.0478 13.3115 13.0758C13.3275 13.5308 13.8015 13.8228 14.2195 13.6418C16.0605 12.8448 15.5185 10.0948 15.6995 8.77184C15.8805 7.44984 16.5175 6.32784 16.3445 5.15884Z" fill="#EBEBEB"/>
<path id="Vector_4" opacity="0.1" d="M13.31 13.0758C13.326 13.5308 13.8 13.8228 14.218 13.6418C16.059 12.8448 15.517 10.0948 15.698 8.77184C15.879 7.44884 16.516 6.32684 16.343 5.15884C16.132 3.72884 15.098 3.07483 13.67 2.84883C12.858 2.71983 12.094 2.88783 11.457 3.25283V9.11984C12.655 9.11984 13.274 12.0478 13.31 13.0758Z" fill="black"/>
<path id="Vector_5" opacity="0.1" d="M11.457 19.4258C11.457 15.0298 11.457 0.027832 11.457 0.027832C11.457 0.027832 13.042 0.682833 17.13 1.19183C21.218 1.70083 22.021 1.12883 22.021 1.12883C22.021 1.12883 15.966 19.4258 11.457 19.4258Z" fill="black"/>
<path id="Vector_6" opacity="0.3" d="M10.2673 17.5978C8.10934 15.5848 4.97234 9.11684 2.65234 2.59084C2.72234 2.59184 2.79535 2.59284 2.86835 2.59284C3.72735 2.59284 4.75734 2.51884 5.93034 2.37284C7.88834 2.12884 9.30534 1.84884 10.2663 1.61584L10.2673 17.5978Z" fill="white"/>
</g>
</svg>
