<svg width="20" height="21" viewBox="0 0 20 21" fill="none" xmlns="http://www.w3.org/2000/svg">
<g id="Group">
<g id="Group_2">
<path id="Vector" d="M17.7179 6.91289C17.3889 4.68489 15.7789 3.66689 13.5549 3.31489C12.2899 3.11489 11.0999 3.3759 10.1079 3.9439C9.11591 3.3759 7.92591 3.11389 6.66191 3.31489C4.43791 3.66689 2.82792 4.68489 2.49892 6.91289C2.22992 8.73189 3.22191 10.4809 3.50391 12.5409C3.78591 14.6009 2.94091 18.8839 5.80791 20.1249C6.45891 20.4069 7.19691 19.9519 7.22191 19.2429C7.27891 17.6419 8.24291 13.0819 10.1079 13.0819C11.9729 13.0819 12.9379 17.6419 12.9949 19.2429C13.0199 19.9519 13.7579 20.4069 14.4089 20.1249C17.2759 18.8839 16.4309 14.5999 16.7129 12.5409C16.9949 10.4799 17.9869 8.73189 17.7179 6.91289Z" fill="#EBEBEB"/>
<path id="Vector_2" opacity="0.1" d="M12.9964 19.2429C13.0214 19.9519 13.7594 20.4069 14.4104 20.1249C17.2774 18.8839 16.4324 14.5999 16.7144 12.5409C16.9964 10.4809 17.9884 8.73288 17.7194 6.91288C17.3904 4.68488 15.7804 3.66688 13.5564 3.31488C12.2914 3.11488 11.1014 3.37589 10.1094 3.94389V13.0819C11.9744 13.0819 12.9394 17.6409 12.9964 19.2429Z" fill="black"/>
</g>
<path id="Vector_3" d="M15.7891 9.83888L17.0581 8.93588L15.8841 7.91188L17.3001 8.55888L17.6001 7.03088L17.7471 8.58089L19.2211 8.07588L17.9521 8.97888L19.1261 10.0029L17.7091 9.35588L17.4101 10.8839L17.2621 9.33389L15.7891 9.83888Z" fill="white"/>
<path id="Vector_4" d="M3.14837 16.5389L3.09337 14.4859L1.10938 15.0179L2.85938 13.9429L1.40637 12.4909L3.21237 13.4699L3.74337 11.4849L3.79937 13.5389L5.78337 13.0069L4.03237 14.0809L5.48537 15.5329L3.67937 14.5549L3.14837 16.5389Z" fill="white"/>
<path id="Vector_5" d="M8.06251 6.9899L5.14951 5.17191L4.0595 8.42891L4.17751 4.9959L0.8125 5.68091L3.84351 4.06689L1.5685 1.4949L4.48151 3.3129L5.5715 0.0559082L5.45351 3.48891L8.8185 2.80391L5.78751 4.41791L8.06251 6.9899Z" fill="white"/>
</g>
</svg>
