<svg width="26" height="10" viewBox="0 0 26 10" fill="none" xmlns="http://www.w3.org/2000/svg">
<g id="Group">
<g id="Group_2">
<g id="Group_3">
<path id="Vector" d="M9.25995 1.76584C9.10095 0.689835 8.32296 0.196835 7.24796 0.026835C6.63696 -0.070165 6.06195 0.0558358 5.58295 0.330836C5.10395 0.0558358 4.52896 -0.070165 3.91696 0.026835C2.84196 0.196835 2.06396 0.688835 1.90496 1.76584C1.77496 2.64484 2.25396 3.48984 2.39096 4.48584C2.52696 5.48084 2.11896 7.55184 3.50496 8.15084C3.81996 8.28684 4.17596 8.06783 4.18796 7.72483C4.21496 6.95083 4.68195 4.74784 5.58295 4.74784C6.48395 4.74784 6.95095 6.95183 6.97795 7.72483C6.98995 8.06783 7.34695 8.28784 7.66095 8.15084C9.04695 7.55084 8.63795 5.48084 8.77495 4.48584C8.91095 3.48984 9.38995 2.64584 9.25995 1.76584Z" fill="#EBEBEB"/>
<path id="Vector_2" opacity="0.1" d="M6.97604 7.72483C6.98804 8.06783 7.34504 8.28784 7.65904 8.15084C9.04504 7.55084 8.63604 5.48084 8.77304 4.48584C8.90904 3.48984 9.38903 2.64584 9.25903 1.76584C9.10003 0.689835 8.32204 0.196835 7.24704 0.026835C6.63604 -0.070165 6.06103 0.0558358 5.58203 0.330836V4.74684C6.48303 4.74784 6.94904 6.95083 6.97604 7.72483Z" fill="black"/>
<g id="Group_4" opacity="0.9">
<path id="Vector_3" opacity="0.9" d="M3.80867 2.80083C3.87467 2.59183 4.01467 2.40783 4.20667 2.27783C4.31667 2.08083 4.52468 1.94183 4.76668 1.91683V0.840834C4.61168 0.796834 4.45168 0.773834 4.28768 0.773834C4.19368 0.773834 4.09768 0.781833 4.00168 0.796833C2.91568 0.968833 2.70367 1.44083 2.63867 1.87983C2.59767 2.15583 2.65368 2.46083 2.74268 2.79983L3.80867 2.80083Z" fill="white"/>
</g>
</g>
<g id="Group_5">
<path id="Vector_4" d="M16.7336 1.76584C16.5746 0.689835 15.7966 0.196835 14.7216 0.026835C14.1106 -0.070165 13.5356 0.0558358 13.0556 0.330836C12.5766 0.0558358 12.0016 -0.070165 11.3896 0.026835C10.3146 0.196835 9.53661 0.688835 9.37761 1.76584C9.24761 2.64484 9.72661 3.48984 9.86361 4.48584C9.99961 5.48084 9.5916 7.55184 10.9776 8.15084C11.2926 8.28684 11.6486 8.06783 11.6606 7.72483C11.6876 6.95083 12.1546 4.74784 13.0556 4.74784C13.9566 4.74784 14.4236 6.95183 14.4506 7.72483C14.4626 8.06783 14.8186 8.28784 15.1336 8.15084C16.5186 7.55084 16.1106 5.48084 16.2476 4.48584C16.3836 3.48984 16.8636 2.64584 16.7336 1.76584Z" fill="#EBEBEB"/>
<path id="Vector_5" opacity="0.1" d="M14.4497 7.72483C14.4617 8.06783 14.8177 8.28784 15.1327 8.15084C16.5177 7.55084 16.1097 5.48084 16.2467 4.48584C16.3827 3.48984 16.8627 2.64584 16.7327 1.76584C16.5737 0.689835 15.7957 0.196835 14.7207 0.026835C14.1097 -0.070165 13.5347 0.0558358 13.0547 0.330836V4.74684C13.9557 4.74784 14.4217 6.95083 14.4497 7.72483Z" fill="black"/>
<g id="Group_6" opacity="0.9">
<path id="Vector_6" opacity="0.9" d="M11.2813 2.80083C11.3473 2.59183 11.4873 2.40783 11.6793 2.27783C11.7893 2.08083 11.9973 1.94183 12.2393 1.91683V0.840834C12.0843 0.796834 11.9243 0.773834 11.7603 0.773834C11.6663 0.773834 11.5703 0.781833 11.4743 0.796833C10.3883 0.968833 10.1763 1.44083 10.1113 1.87983C10.0703 2.15583 10.1263 2.46083 10.2153 2.79983L11.2813 2.80083Z" fill="white"/>
</g>
</g>
<g id="Group_7">
<path id="Vector_7" d="M24.2024 1.76584C24.0434 0.689835 23.2654 0.196835 22.1904 0.026835C21.5794 -0.070165 21.0044 0.0558358 20.5244 0.330836C20.0454 0.0558358 19.4704 -0.070165 18.8584 0.026835C17.7834 0.196835 17.0054 0.688835 16.8464 1.76584C16.7164 2.64484 17.1954 3.48984 17.3324 4.48584C17.4684 5.48084 17.0604 7.55184 18.4464 8.15084C18.7614 8.28684 19.1174 8.06783 19.1294 7.72483C19.1564 6.95083 19.6234 4.74784 20.5244 4.74784C21.4254 4.74784 21.8924 6.95183 21.9194 7.72483C21.9314 8.06783 22.2874 8.28784 22.6024 8.15084C23.9874 7.55084 23.5794 5.48084 23.7164 4.48584C23.8534 3.48984 24.3324 2.64584 24.2024 1.76584Z" fill="#EBEBEB"/>
<path id="Vector_8" opacity="0.1" d="M21.9184 7.72483C21.9304 8.06783 22.2864 8.28784 22.6014 8.15084C23.9864 7.55084 23.5784 5.48084 23.7154 4.48584C23.8514 3.48984 24.3314 2.64584 24.2014 1.76584C24.0424 0.689835 23.2644 0.196835 22.1894 0.026835C21.5784 -0.070165 21.0034 0.0558358 20.5234 0.330836V4.74684C21.4254 4.74784 21.8914 6.95083 21.9184 7.72483Z" fill="black"/>
<g id="Group_8" opacity="0.9">
<path id="Vector_9" opacity="0.9" d="M18.7501 2.80083C18.8161 2.59183 18.9561 2.40783 19.1481 2.27783C19.2581 2.08083 19.4661 1.94183 19.7081 1.91683V0.840834C19.5531 0.796834 19.3931 0.773834 19.2291 0.773834C19.1351 0.773834 19.0391 0.781833 18.9431 0.796833C17.8571 0.968833 17.6451 1.44083 17.5801 1.87983C17.5391 2.15583 17.5951 2.46083 17.6841 2.79983L18.7501 2.80083Z" fill="white"/>
</g>
</g>
</g>
<g id="Group_9">
<path id="Vector_10" d="M6.88037 2.63485C6.88037 2.34685 6.60537 2.11185 6.26837 2.11185H4.84637C4.50937 2.11185 4.23438 2.34585 4.23438 2.63485V2.85385C4.23438 2.90885 4.25337 2.96085 4.28337 3.00485C4.25337 3.04985 4.23438 3.10085 4.23438 3.15585V3.37485C4.23438 3.66285 4.50937 3.89785 4.84637 3.89785H6.26837C6.60637 3.89785 6.88037 3.66285 6.88037 3.37485V3.15585C6.88037 3.10085 6.86138 3.04885 6.83138 3.00485C6.86138 2.95985 6.88037 2.90885 6.88037 2.85385V2.63485Z" fill="#00B7FF"/>
<g id="Group_10">
<path id="Vector_11" d="M5.02094 4.07185H4.84294C4.70094 4.07185 4.58594 3.97185 4.58594 3.84785V3.15985H5.27794V3.84785C5.27794 3.97185 5.16294 4.07185 5.02094 4.07185Z" fill="#666666"/>
<path id="Vector_12" opacity="0.1" d="M4.84462 3.89484C4.79662 3.89484 4.76562 3.86684 4.76562 3.84884V3.33784H5.10162V3.84884C5.10162 3.86684 5.06961 3.89484 5.02261 3.89484H4.84462Z" fill="white"/>
<path id="Vector_13" d="M6.25142 4.07185H6.07341C5.93141 4.07185 5.81641 3.97185 5.81641 3.84785V3.15985H6.50841V3.84785C6.50841 3.97185 6.39342 4.07185 6.25142 4.07185Z" fill="#666666"/>
<path id="Vector_14" opacity="0.1" d="M6.07118 3.89484C6.02318 3.89484 5.99219 3.86684 5.99219 3.84884V3.33784H6.32819V3.84884C6.32819 3.86684 6.29619 3.89484 6.24919 3.89484H6.07118Z" fill="white"/>
<path id="Vector_15" d="M5.02094 1.93884H4.84294C4.70094 1.93884 4.58594 2.03884 4.58594 2.16284V2.85084H5.27794V2.16284C5.27794 2.03884 5.16294 1.93884 5.02094 1.93884Z" fill="#666666"/>
<path id="Vector_16" opacity="0.1" d="M4.76562 2.67284V2.16284C4.76562 2.14484 4.79762 2.11684 4.84462 2.11684H5.02261C5.07061 2.11684 5.10162 2.14484 5.10162 2.16284V2.67284H4.76562Z" fill="white"/>
<path id="Vector_17" d="M6.25142 1.93884H6.07341C5.93141 1.93884 5.81641 2.03884 5.81641 2.16284V2.85084H6.50841V2.16284C6.50841 2.03884 6.39342 1.93884 6.25142 1.93884Z" fill="#666666"/>
<path id="Vector_18" opacity="0.1" d="M5.99219 2.67284V2.16284C5.99219 2.14484 6.0242 2.11684 6.0712 2.11684H6.24919C6.29719 2.11684 6.32819 2.14484 6.32819 2.16284V2.67284H5.99219Z" fill="white"/>
</g>
<g id="Group_11">
<path id="Vector_19" d="M9.13278 3.18385H1.97879C1.88079 3.18385 1.80078 3.10385 1.80078 3.00585C1.80078 2.90785 1.87979 2.82785 1.97879 2.82785H9.13278C9.23078 2.82785 9.31079 2.90785 9.31079 3.00585C9.31079 3.10385 9.23078 3.18385 9.13278 3.18385Z" fill="#CCCCCC"/>
</g>
<path id="Vector_20" opacity="0.1" d="M1.97779 3.18385H9.13178C9.22978 3.18385 9.30979 3.10384 9.30979 3.00584H1.80079C1.79979 3.10384 1.87979 3.18385 1.97779 3.18385Z" fill="black"/>
</g>
<g id="Group_12">
<path id="Vector_21" d="M14.3452 2.63485C14.3452 2.34685 14.0702 2.11185 13.7332 2.11185H12.3112C11.9742 2.11185 11.6992 2.34585 11.6992 2.63485V2.85385C11.6992 2.90885 11.7182 2.96085 11.7482 3.00485C11.7182 3.04985 11.6992 3.10085 11.6992 3.15585V3.37485C11.6992 3.66285 11.9742 3.89785 12.3112 3.89785H13.7332C14.0712 3.89785 14.3452 3.66285 14.3452 3.37485V3.15585C14.3452 3.10085 14.3262 3.04885 14.2962 3.00485C14.3262 2.95985 14.3452 2.90885 14.3452 2.85385V2.63485Z" fill="#00B7FF"/>
<g id="Group_13">
<path id="Vector_22" d="M12.4936 4.07185H12.3156C12.1736 4.07185 12.0586 3.97185 12.0586 3.84785V3.15985H12.7506V3.84785C12.7496 3.97185 12.6346 4.07185 12.4936 4.07185Z" fill="#666666"/>
<path id="Vector_23" opacity="0.1" d="M12.3134 3.89484C12.2654 3.89484 12.2344 3.86684 12.2344 3.84884V3.33784H12.5704V3.84884C12.5704 3.86684 12.5384 3.89484 12.4914 3.89484H12.3134Z" fill="white"/>
<path id="Vector_24" d="M13.7241 4.07185H13.5461C13.4041 4.07185 13.2891 3.97185 13.2891 3.84785V3.15985H13.9811V3.84785C13.9811 3.97185 13.8661 4.07185 13.7241 4.07185Z" fill="#666666"/>
<path id="Vector_25" opacity="0.1" d="M13.5439 3.89484C13.4959 3.89484 13.4648 3.86684 13.4648 3.84884V3.33784H13.8008V3.84884C13.8008 3.86684 13.7688 3.89484 13.7218 3.89484H13.5439Z" fill="white"/>
<path id="Vector_26" d="M12.4936 1.93884H12.3156C12.1736 1.93884 12.0586 2.03884 12.0586 2.16284V2.85084H12.7506V2.16284C12.7496 2.03884 12.6346 1.93884 12.4936 1.93884Z" fill="#666666"/>
<path id="Vector_27" opacity="0.1" d="M12.2344 2.67284V2.16284C12.2344 2.14484 12.2654 2.11684 12.3134 2.11684H12.4914C12.5384 2.11684 12.5704 2.14484 12.5704 2.16284V2.67284H12.2344Z" fill="white"/>
<path id="Vector_28" d="M13.7241 1.93884H13.5461C13.4041 1.93884 13.2891 2.03884 13.2891 2.16284V2.85084H13.9811V2.16284C13.9811 2.03884 13.8661 1.93884 13.7241 1.93884Z" fill="#666666"/>
<path id="Vector_29" opacity="0.1" d="M13.4648 2.67284V2.16284C13.4648 2.14484 13.4959 2.11684 13.5439 2.11684H13.7218C13.7698 2.11684 13.8008 2.14484 13.8008 2.16284V2.67284H13.4648Z" fill="white"/>
</g>
<g id="Group_14">
<path id="Vector_30" d="M16.8719 3.18385H9.15294C9.04694 3.18385 8.96094 3.10385 8.96094 3.00585C8.96094 2.90785 9.04694 2.82785 9.15294 2.82785H16.8719C16.9779 2.82785 17.0639 2.90785 17.0639 3.00585C17.0639 3.10385 16.9779 3.18385 16.8719 3.18385Z" fill="#CCCCCC"/>
</g>
<path id="Vector_31" opacity="0.1" d="M9.18127 3.18385H16.9513C17.0583 3.18385 17.1443 3.10384 17.1443 3.00584H8.98828C8.98828 3.10384 9.07527 3.18385 9.18127 3.18385Z" fill="black"/>
</g>
<g id="Group_15">
<path id="Vector_32" d="M21.8218 2.63485C21.8218 2.34685 21.5468 2.11185 21.2098 2.11185H19.7878C19.4498 2.11185 19.1758 2.34585 19.1758 2.63485V2.85385C19.1758 2.90885 19.1948 2.96085 19.2248 3.00485C19.1948 3.04985 19.1758 3.10085 19.1758 3.15585V3.37485C19.1758 3.66285 19.4508 3.89785 19.7878 3.89785H21.2098C21.5468 3.89785 21.8218 3.66285 21.8218 3.37485V3.15585C21.8218 3.10085 21.8028 3.04885 21.7728 3.00485C21.8028 2.95985 21.8218 2.90885 21.8218 2.85385V2.63485Z" fill="#00B7FF"/>
<g id="Group_16">
<path id="Vector_33" d="M19.9623 4.07185H19.7843C19.6423 4.07185 19.5273 3.97185 19.5273 3.84785V3.15985H20.2193V3.84785C20.2193 3.97185 20.1043 4.07185 19.9623 4.07185Z" fill="#666666"/>
<path id="Vector_34" opacity="0.1" d="M19.786 3.89484C19.738 3.89484 19.707 3.86684 19.707 3.84884V3.33784H20.043V3.84884C20.043 3.86684 20.011 3.89484 19.964 3.89484H19.786Z" fill="white"/>
<path id="Vector_35" d="M21.1928 4.07185H21.0148C20.8728 4.07185 20.7578 3.97185 20.7578 3.84785V3.15985H21.4498V3.84785C21.4488 3.97185 21.3338 4.07185 21.1928 4.07185Z" fill="#666666"/>
<path id="Vector_36" opacity="0.1" d="M21.0126 3.89484C20.9646 3.89484 20.9336 3.86684 20.9336 3.84884V3.33784H21.2696V3.84884C21.2696 3.86684 21.2376 3.89484 21.1906 3.89484H21.0126Z" fill="white"/>
<path id="Vector_37" d="M19.9623 1.93884H19.7843C19.6423 1.93884 19.5273 2.03884 19.5273 2.16284V2.85084H20.2193V2.16284C20.2193 2.03884 20.1043 1.93884 19.9623 1.93884Z" fill="#666666"/>
<path id="Vector_38" opacity="0.1" d="M19.707 2.67284V2.16284C19.707 2.14484 19.738 2.11684 19.786 2.11684H19.964C20.012 2.11684 20.043 2.14484 20.043 2.16284V2.67284H19.707Z" fill="white"/>
<path id="Vector_39" d="M21.1928 1.93884H21.0148C20.8728 1.93884 20.7578 2.03884 20.7578 2.16284V2.85084H21.4498V2.16284C21.4488 2.03884 21.3338 1.93884 21.1928 1.93884Z" fill="#666666"/>
<path id="Vector_40" opacity="0.1" d="M20.9336 2.67284V2.16284C20.9336 2.14484 20.9656 2.11684 21.0126 2.11684H21.1906C21.2386 2.11684 21.2696 2.14484 21.2696 2.16284V2.67284H20.9336Z" fill="white"/>
</g>
<g id="Group_17">
<path id="Vector_41" d="M24.0742 3.18385H16.9202C16.8222 3.18385 16.7422 3.10385 16.7422 3.00585C16.7422 2.90785 16.8212 2.82785 16.9202 2.82785H24.0742C24.1722 2.82785 24.2522 2.90785 24.2522 3.00585C24.2522 3.10385 24.1722 3.18385 24.0742 3.18385Z" fill="#CCCCCC"/>
</g>
<path id="Vector_42" opacity="0.1" d="M16.9192 3.18385H24.0732C24.1712 3.18385 24.2512 3.10384 24.2512 3.00584H16.7422C16.7412 3.10384 16.8212 3.18385 16.9192 3.18385Z" fill="black"/>
</g>
<path id="Vector_43" d="M23.8431 3.97084C23.8431 3.97084 22.1761 4.63984 20.5311 4.63984C19.5821 4.63984 18.6281 4.41784 17.9891 4.22884C17.8861 4.19184 17.7791 4.15884 17.6671 4.12884C17.3861 4.03684 17.2191 3.96984 17.2191 3.96984C17.0731 3.96984 16.9321 3.97484 16.7971 3.98484C16.6601 3.97484 16.5181 3.96984 16.3721 3.96984C16.3721 3.96984 14.7051 4.63884 13.0601 4.63884C12.1111 4.63884 11.1571 4.41684 10.5181 4.22784C10.4151 4.19084 10.3081 4.15784 10.1971 4.12784C9.91613 4.03584 9.74913 3.96884 9.74913 3.96884C9.60313 3.96884 9.46212 3.97384 9.32712 3.98384C9.19012 3.97384 9.04813 3.96884 8.90213 3.96884C8.90213 3.96884 7.23512 4.63784 5.59012 4.63784C3.94512 4.63784 2.27812 3.96884 2.27812 3.96884C1.25712 4.31684 0.578125 5.25084 0.578125 6.81684C0.578125 8.38284 2.48612 9.66584 4.81712 9.66584H8.15512C8.60712 9.66584 9.04312 9.61684 9.45212 9.52684C9.86112 9.61584 10.2971 9.66584 10.7491 9.66584H15.6261C16.0781 9.66584 16.5141 9.61684 16.9231 9.52684C17.3321 9.61584 17.7681 9.66584 18.2201 9.66584H21.3381C23.6691 9.66584 25.5771 8.38384 25.5771 6.81684C25.5771 5.24984 25.1021 4.42684 23.8431 3.97084Z" fill="#FF304A"/>
<path id="Vector_44" opacity="0.2" d="M23.6588 4.21983C23.4028 4.30383 21.9768 4.74883 20.5418 4.74883C19.1058 4.74883 17.6808 4.30383 17.4248 4.21983C17.2048 4.22083 17.0078 4.23583 16.8208 4.25783C16.6198 4.23483 16.4098 4.22183 16.1878 4.21983C15.9318 4.30383 14.5068 4.74883 13.0708 4.74883C11.6348 4.74883 10.2098 4.30383 9.95381 4.21983C9.73381 4.22083 9.53682 4.23583 9.34982 4.25783C9.14882 4.23483 8.93881 4.22183 8.71681 4.21983C8.46081 4.30383 7.03482 4.74883 5.59982 4.74883C4.16382 4.74883 2.73882 4.30383 2.48282 4.21983C1.80282 4.47783 1.25781 5.52383 1.25781 6.29483C1.25781 7.43883 2.05281 8.36983 4.11081 8.36983H7.98381C8.50481 8.36983 9.00182 8.30983 9.45282 8.20183C9.90382 8.30983 10.4008 8.36983 10.9218 8.36983H15.4548C15.9758 8.36983 16.4728 8.30983 16.9238 8.20183C17.3748 8.30983 17.8718 8.36983 18.3928 8.36983H21.1668C23.2248 8.36983 24.8988 7.43883 24.8988 6.29483C24.8988 5.02383 24.6228 4.67883 23.6588 4.21983Z" fill="white"/>
</g>
</svg>
